<?xml version="1.0" encoding="utf-8"?>
<!-- Generator: Adobe Illustrator 22.0.1, SVG Export Plug-In . SVG Version: 6.00 Build 0)  -->
<svg version="1.1" id="Layer_1" xmlns="http://www.w3.org/2000/svg" xmlns:xlink="http://www.w3.org/1999/xlink" x="0px" y="0px"
	 viewBox="0 0 513.8 157.3" style="enable-background:new 0 0 513.8 157.3;" xml:space="preserve">
<style type="text/css">
	.st0{fill:#2B222D;}
	.st1{fill:url(#SVGID_1_);}
	.st2{fill:url(#SVGID_2_);}
	.st3{fill:url(#SVGID_3_);}
	.st4{fill:url(#SVGID_4_);}
	.st5{fill:url(#SVGID_5_);}
</style>
<g>
	<g>
		<g>
			<path class="st0" d="M67.3,30.6l-19.4,4c-1.4-7.6-7.7-11.3-14-11.3c-6.6,0-10.8,3.6-10.8,8.2c0,3.2,1.4,5.6,6.5,6.7l16.7,3.7
				C60.1,45,68.3,52.6,68.3,65.3c0,17.2-15.2,26-33.1,26C17,91.3,2.2,82.7,0,67l20.4-4c2,8.3,7.8,11.9,15.8,11.9
				c7.4,0,11.9-3.4,11.9-8.3c0-3.6-1.7-5.9-7.4-7.1l-16.8-3.6C12.4,53.3,2.3,47.3,2.3,32.6c0-15.6,13-25.3,31.8-25.3
				C51.6,7.3,64.3,16,67.3,30.6z"/>
			<path class="st0" d="M216.7,59.4c0,19.1-15.1,31.8-33,31.8c-18.2,0-33.4-12.7-33.4-31.8c0-19,15.1-31.7,33.4-31.7
				C201.6,27.7,216.7,40.4,216.7,59.4z M198.2,59.4c0-9.4-7.1-15.6-14.5-15.6c-7.8,0-14.9,6.2-14.9,15.6c0,9.5,7.1,15.6,14.9,15.6
				C191.2,75,198.2,68.9,198.2,59.4z"/>
			<path class="st0" d="M285.7,64.3h-44.2c1.6,7.2,6.5,11.6,13,11.6c4.4,0,9.6-1.1,12.8-7l17,3.5c-5.2,12.7-16.1,18.8-29.9,18.8
				c-17.4,0-31.8-12.8-31.8-31.9c0-19,14.4-31.9,31.9-31.9c17,0,30.7,12.2,31.1,31.9V64.3z M241.9,52.6h24.8
				c-1.8-6.5-6.6-9.5-12.1-9.5C249.2,43.1,243.7,46.4,241.9,52.6z"/>
			<linearGradient id="SVGID_1_" gradientUnits="userSpaceOnUse" x1="406.8555" y1="109.9199" x2="406.8555" y2="27.4834">
				<stop  offset="0" style="stop-color:#FDFAD5"/>
				<stop  offset="3.461635e-02" style="stop-color:#F8F0C9"/>
				<stop  offset="0.1421" style="stop-color:#EEDDAB"/>
				<stop  offset="0.2592" style="stop-color:#E6CF94"/>
				<stop  offset="0.3873" style="stop-color:#E0C484"/>
				<stop  offset="0.5322" style="stop-color:#DBBD79"/>
				<stop  offset="0.7079" style="stop-color:#D9B973"/>
				<stop  offset="1" style="stop-color:#D8B771"/>
			</linearGradient>
			<path class="st1" d="M440.5,59.4c0,19.1-13.4,31.9-29.4,31.9c-7.8,0-14-2.4-18.7-6.6v25.2h-19.2V29.3h19.2v4.8
				c4.7-4.2,10.9-6.6,18.7-6.6C427.1,27.5,440.5,40.4,440.5,59.4z M421.7,59.4c0-9.2-6.1-15.6-14.5-15.6c-7.8,0-14.8,6.4-14.8,15.6
				c0,9.4,7,15.6,14.8,15.6C415.6,75,421.7,68.8,421.7,59.4z"/>
			<linearGradient id="SVGID_2_" gradientUnits="userSpaceOnUse" x1="480.1758" y1="91.3203" x2="480.1758" y2="27.4834">
				<stop  offset="0" style="stop-color:#FDFAD5"/>
				<stop  offset="3.461635e-02" style="stop-color:#F8F0C9"/>
				<stop  offset="0.1421" style="stop-color:#EEDDAB"/>
				<stop  offset="0.2592" style="stop-color:#E6CF94"/>
				<stop  offset="0.3873" style="stop-color:#E0C484"/>
				<stop  offset="0.5322" style="stop-color:#DBBD79"/>
				<stop  offset="0.7079" style="stop-color:#D9B973"/>
				<stop  offset="1" style="stop-color:#D8B771"/>
			</linearGradient>
			<path class="st2" d="M513.8,89.5h-19.2v-4.8c-4.7,4.2-10.9,6.6-18.7,6.6c-16,0-29.4-12.8-29.4-31.9c0-19,13.4-31.9,29.4-31.9
				c7.8,0,14,2.4,18.7,6.6v-4.8h19.2V89.5z M494.6,59.4c0-9.2-7-15.6-14.8-15.6c-8.4,0-14.5,6.4-14.5,15.6c0,9.4,6.1,15.6,14.5,15.6
				C487.7,75,494.6,68.8,494.6,59.4z"/>
		</g>
		<g>
			<path class="st0" d="M112.7,156.5H88V123h8.3v26.3h16.5V156.5z"/>
			<path class="st0" d="M175.9,139.8c0,9.8-7.9,17.5-17.9,17.5c-10,0-17.9-7.7-17.9-17.5c0-9.8,7.9-17.6,17.9-17.6
				C168,122.3,175.9,130,175.9,139.8z M167.6,139.8c0-5.8-4.1-10-9.6-10c-5.5,0-9.6,4.3-9.6,10c0,5.7,4.2,9.9,9.6,9.9
				C163.5,149.7,167.6,145.5,167.6,139.8z"/>
			<path class="st0" d="M237.5,156.5h-6.8l-17-19.4v19.4h-8.3V123h6.9l17,20v-20h8.2V156.5z"/>
			<path class="st0" d="M281.6,123c11.1,0,18.4,6.8,18.4,16.8s-7.3,16.8-18.4,16.8h-13.3V123H281.6z M281.3,149.4
				c6.3,0,10.4-3.8,10.4-9.6s-4.1-9.6-10.4-9.6h-4.7v19.2H281.3z"/>
			<path class="st0" d="M364.2,139.8c0,9.8-7.9,17.5-17.9,17.5c-10,0-17.9-7.7-17.9-17.5c0-9.8,7.9-17.6,17.9-17.6
				C356.3,122.3,364.2,130,364.2,139.8z M355.9,139.8c0-5.8-4.1-10-9.6-10c-5.5,0-9.6,4.3-9.6,10c0,5.7,4.2,9.9,9.6,9.9
				C351.8,149.7,355.9,145.5,355.9,139.8z"/>
			<path class="st0" d="M425.8,156.5H419l-17-19.4v19.4h-8.3V123h6.9l17,20v-20h8.2V156.5z"/>
		</g>
		<path class="st0" d="M117.8,27.5c-7.7,0-13.9,2.8-18.6,7.6V7H80v82.5h19.2v-28c0-11.6,4.9-16.8,12.4-16.8
			c6.2,0,10.4,4.8,10.4,11.9v32.9h19.1v-37C141.1,37.4,131.8,27.5,117.8,27.5z"/>
	</g>
	<g>
		<linearGradient id="SVGID_3_" gradientUnits="userSpaceOnUse" x1="289.6848" y1="12.5131" x2="364.7634" y2="12.5131">
			<stop  offset="0" style="stop-color:#FDFAD5"/>
			<stop  offset="3.461635e-02" style="stop-color:#F8F0C9"/>
			<stop  offset="0.1421" style="stop-color:#EEDDAB"/>
			<stop  offset="0.2592" style="stop-color:#E6CF94"/>
			<stop  offset="0.3873" style="stop-color:#E0C484"/>
			<stop  offset="0.5322" style="stop-color:#DBBD79"/>
			<stop  offset="0.7079" style="stop-color:#D9B973"/>
			<stop  offset="1" style="stop-color:#D8B771"/>
		</linearGradient>
		<path class="st3" d="M364.8,0h-50.1c-13.8,0-25,11.2-25,25v0h50.1C353.6,25,364.8,13.8,364.8,0z"/>
		<linearGradient id="SVGID_4_" gradientUnits="userSpaceOnUse" x1="289.6848" y1="78.4869" x2="364.7634" y2="78.4869">
			<stop  offset="0" style="stop-color:#FDFAD5"/>
			<stop  offset="3.461635e-02" style="stop-color:#F8F0C9"/>
			<stop  offset="0.1421" style="stop-color:#EEDDAB"/>
			<stop  offset="0.2592" style="stop-color:#E6CF94"/>
			<stop  offset="0.3873" style="stop-color:#E0C484"/>
			<stop  offset="0.5322" style="stop-color:#DBBD79"/>
			<stop  offset="0.7079" style="stop-color:#D9B973"/>
			<stop  offset="1" style="stop-color:#D8B771"/>
		</linearGradient>
		<path class="st4" d="M289.7,91L289.7,91l50.1,0c13.8,0,25-11.2,25-25h-50.1C300.9,66,289.7,77.2,289.7,91z"/>
		<linearGradient id="SVGID_5_" gradientUnits="userSpaceOnUse" x1="364.7634" y1="45.5" x2="289.6848" y2="45.5">
			<stop  offset="0" style="stop-color:#FDFAD5"/>
			<stop  offset="3.461635e-02" style="stop-color:#F8F0C9"/>
			<stop  offset="0.1421" style="stop-color:#EEDDAB"/>
			<stop  offset="0.2592" style="stop-color:#E6CF94"/>
			<stop  offset="0.3873" style="stop-color:#E0C484"/>
			<stop  offset="0.5322" style="stop-color:#DBBD79"/>
			<stop  offset="0.7079" style="stop-color:#D9B973"/>
			<stop  offset="1" style="stop-color:#D8B771"/>
		</linearGradient>
		<path class="st5" d="M339.7,33h-50.1c0,13.8,11.2,25,25,25h50.1v0C364.8,44.2,353.6,33,339.7,33z"/>
	</g>
</g>
</svg>
