<?xml version="1.0" encoding="utf-8"?>
<!-- Generator: Adobe Illustrator 22.0.1, SVG Export Plug-In . SVG Version: 6.00 Build 0)  -->
<svg version="1.1" id="Layer_1" xmlns="http://www.w3.org/2000/svg" xmlns:xlink="http://www.w3.org/1999/xlink" x="0px" y="0px"
	 viewBox="0 0 359.5 358.5" style="enable-background:new 0 0 359.5 358.5;" xml:space="preserve">
<style type="text/css">
	.st0{fill:#EDEDED;}
	.st1{fill:#D9B771;}
	.st2{fill:#FFFFFF;}
</style>
<g>
	<path class="st0" d="M209.3,176.4l-40.5-22.9l-1.6,58.6c0,0.4-0.2,0.9-0.6,1c-0.2,0.1-0.4,0.1-0.6,0.1c-0.2,0-0.4,0-0.5-0.1
		l-36.4-18.2c-0.4-0.2-0.7-0.6-0.7-1.1v-63.2l-42.1-23.8v124.1c0,12.4,6.7,23.8,17.6,29.7L209.3,319V176.4z"/>
	<path class="st0" d="M268.8,209.2L268.8,209.2L268.8,209.2z"/>
	<path class="st0" d="M295.8,188.5c-3.5-3.7-8.2-5.6-13.4-5.6c-3.3,0-6.9,0.7-10.5,2.5c-0.2,0.1-0.5,0.2-0.6,0.4
		c-9.4,4.6-17.2,14-20.7,24.7L295.8,188.5z"/>
	<path class="st0" d="M295.6,240.8l0.9-0.9c0.4-0.2,0.6-0.6,0.7-1c0.1-0.2,0-0.5-0.1-0.7c-0.1-0.2-0.2-0.2-0.5-0.2
		c-0.1,0-0.1,0-0.2,0.1c-0.2,0.1-0.5,0.2-0.7,0.5l-1,0.9L295.6,240.8z"/>
	<path class="st0" d="M278.2,240.4l0.1,0.2l0,0l0,0L278.2,240.4c0.2-0.1,0.5-0.2,0.7-0.4c9.3-4.5,17.1-13.8,20.6-24.3l-44.8,21.7
		C260.2,243.5,269,244.5,278.2,240.4z"/>
	<path class="st0" d="M290.7,169.9c-0.1-0.1-0.4-0.2-0.6-0.2l0,0l-1-0.1l-0.7,2.2l0.9,0.1c0.2,0,0.5,0,0.7-0.1l0,0
		c0.1,0,0.1,0,0.1-0.1c0.2-0.2,0.5-0.5,0.6-0.9C290.8,170.6,290.8,170.2,290.7,169.9z"/>
	<path class="st0" d="M280.7,260.6c0.4-0.1,0.7-0.4,1.1-0.5c19.7-9.5,35.4-31.7,38.3-54.1l-7.9,3.8c-0.9,4.8-2.2,9.4-4.3,13.9
		c-0.1,0.4-0.4,0.6-0.7,0.7l0,0c-0.2,0.1-0.5,0.1-0.7,0.1c-0.2-0.1-0.5-0.2-0.5-0.5c-0.1-0.4-0.1-0.7,0-1.1c1.7-3.8,3.1-7.8,3.8-12
		l-7.6,3.6c-3.5,12.1-12.1,22.8-22.7,27.9c-0.2,0.1-0.5,0.2-0.7,0.4c-10.3,4.7-20.4,3.1-26.6-4l-7.6,3.6c1.9,3,4.3,5.5,7.2,7.4
		c0.5,0.5,0.6,1.2,0.1,1.7c-0.1,0.2-0.4,0.4-0.6,0.5c-0.4,0.1-0.7,0.1-1,0c-3.3-2.2-6.1-5.1-8.1-8.5l-8.2,4
		C242.4,264.2,261.1,269.4,280.7,260.6z M298.4,233h3.3l-0.6-3.5l1.2-1.6l0.2,0.1h0.2l1,5.3l1.9,1.6l-1.6,2.1l-1.9-1.6h-5.6
		L298.4,233z M294.7,236.8c0.5-0.5,1-0.9,1.6-1.1l0.1,0.2l0,0l0,0l-0.1-0.2h0.1c0.5-0.2,1-0.2,1.6-0.2c0.5,0.1,1,0.5,1.2,1
		c0.2,0.5,0.4,1,0.4,1.6c0,0.5-0.1,0.9-0.4,1.4l2.7,0.5l-2.1,2l-2.2-0.5l-1,1l1,1.6l-1.9,1.7l-3.8-6.2L294.7,236.8z M276.2,248.4
		l2-0.9v0.1l2-1l2.8,3.7l1.1-5.7l1.7-0.9l0,0l5.2-3.6l0.1,0.2l0,0l0,0l0.2-0.1l0.5,1.5l-3.5,2.5l0.2,0.9l3.1-2.1l0.6,1.7l-3.1,2.1
		l0.4,0.9l3.6-2.5l0.6,1.9l-5.7,4l-2.1-6.2l-1.6,8.2l-2,1l-4.3-5.7l0.6,7.4l-2.1,0.9l-0.6-7.9h0.2L276.2,248.4z M270.3,250.6h0.2
		l-0.1-0.2l2-0.6l-0.1,6.3l3.6-1v2.1l-5.8,1.7L270.3,250.6z M264.3,251l5.7-0.5l-0.4,2.1l-3.6,0.4l-0.2,1.1l3.2-0.2l-0.4,2.1
		l-3.2,0.2l-0.2,1.2l3.8-0.4l-0.4,2.1l-6.1,0.6l1.5-8.4h0.2L264.3,251z M257,250.1l0.2,0.1l0,0l0,0l0,0V250l3,0.6
		c0.7,0.1,1.4,0.5,1.9,1c0.5,0.5,0.7,1.1,0.7,1.9c0,0.7-0.1,1.6-0.4,2.4c-0.2,0.7-0.7,1.5-1.2,2.1c-0.4,0.5-1,0.9-1.5,1.1
		c-0.1,0-0.2,0.1-0.4,0.1c-0.5,0.1-0.9,0.2-1.4,0.2c-0.2,0-0.6,0-0.9-0.1l-3.2-0.6L257,250.1z"/>
	<path class="st0" d="M253.3,186.9c-0.1-0.1-0.4-0.2-0.5-0.2h-0.1c-0.2,0.1-0.6,0.4-0.7,0.6l-0.9,1l1,1.2l0.9-1
		c0.4-0.4,0.5-0.7,0.6-1.1C253.6,187.3,253.4,187,253.3,186.9z"/>
	<path class="st0" d="M288,161.3c-5.8,0-12.1,1.4-18.5,4.3c-0.4,0.1-0.7,0.4-1.1,0.5c-19.7,9.5-35.4,31.7-38.3,54.1l8.3-4
		c1.5-7.6,4.3-14.6,8.5-21.1c0.1-0.2,0.4-0.5,0.6-0.6s0.6-0.1,1,0c0.5,0.5,0.6,1.2,0.1,1.7c-3.7,5.7-6.3,12-7.8,18.7l6.9-3.3
		c3.3-12.1,12.3-23.2,22.8-28.2c0.2-0.1,0.5-0.2,0.7-0.4c10.3-4.7,20.8-3,26.9,4.2l7.3-3.5c-2.8-4.3-7.1-7.6-11.9-9.3
		c-0.2-0.1-0.4-0.2-0.5-0.5c-0.1-0.4-0.1-0.7,0.1-1.1c0.1-0.4,0.4-0.6,0.7-0.7c0.2-0.1,0.5-0.1,0.7-0.1c5.5,1.9,10.2,5.7,13.1,10.5
		l8.3-4.1C310.7,167.3,300.3,161.3,288,161.3z M255.3,188.2c-0.2,0.6-0.7,1.2-1.2,1.7l-0.9,1.1l1.1,1.4l-1.7,2l-4.6-5.5l2.6-3
		c0.5-0.5,1-1,1.6-1.4c0.1,0,0.1-0.1,0.2-0.1c0.4-0.2,0.9-0.2,1.2-0.2c0.5,0,1,0.4,1.4,0.7c0.4,0.4,0.5,0.9,0.6,1.5
		C255.7,187,255.5,187.7,255.3,188.2z M258.3,188.2l-3.6-6.3l1.9-1.7l3.6,6.3L258.3,188.2z M266.9,180c-0.2,0.6-0.5,1.2-0.9,1.9
		c-0.5,0.6-1,1.1-1.5,1.5c-0.2,0.2-0.6,0.4-1,0.6c-0.4,0.1-0.7,0.2-1.1,0.4c-0.2,0-0.4,0-0.6,0c-1.2,0-2.2-0.7-2.6-2
		c-0.2-0.7-0.4-1.5-0.1-2.2c0.1-0.7,0.5-1.6,0.9-2.2c0.5-0.7,1.1-1.4,1.7-1.9c0.4-0.2,0.6-0.4,1-0.6l0.1,0.2l0,0l0,0l-0.1-0.2
		c0.2-0.1,0.5-0.2,0.7-0.2c0.5-0.1,1.1-0.1,1.6,0l0.4,0.1l-0.9,2.2l-0.2-0.1c-0.4-0.1-0.9-0.1-1.2,0.1c-0.1,0.1-0.4,0.1-0.5,0.2
		c-0.4,0.2-0.7,0.6-0.9,1c-0.2,0.4-0.4,0.7-0.5,1.1c0,0.4,0,0.7,0.1,1.1c0.1,0.2,0.2,0.6,0.5,0.7s0.5,0.2,0.9,0.1
		c0.2,0,0.4-0.1,0.6-0.1c0.1-0.1,0.4-0.1,0.5-0.2c0.6-0.5,1.1-1.1,1.2-1.7l0.1-0.2l2,0.2L266.9,180z M272.6,178.7l-2.5-1.7l-0.6,1.1
		l0.2,2l-2.2,1l-1-8.1l2.2-1l0.4,3l2.2-4.1l1.9-0.9l0.1,0.2l0.2,0.1l-2.4,4.5l3.8,2.8L272.6,178.7z M283.5,175.1
		c-0.4,0.5-0.9,0.7-1.4,1c-0.4,0.1-0.9,0.2-1.2,0.4c-0.2,0-0.4,0.1-0.6,0.1c-0.6,0-1.4-0.2-1.9-0.7c-0.6-0.9-0.7-1.9-0.5-2.8
		l0.6-4.5h0.4l0,0v-0.2l2-0.2l-0.6,4.8c-0.1,0.7,0,1.2,0.2,1.5c0.1,0.1,0.4,0.2,0.7,0.1c0.1,0,0.4-0.1,0.5-0.1
		c0.2-0.1,0.4-0.2,0.6-0.5c0.4-0.5,0.5-1,0.5-1.5l0.6-4.7l2.2-0.4l-0.7,4.8C284.7,173.3,284.2,174.3,283.5,175.1z M292.8,171.2
		c-0.1,0.6-0.5,1.1-0.9,1.6c-0.4,0.4-0.7,0.7-1.2,0.9c0,0-0.1,0-0.1,0.1c-0.6,0.2-1.2,0.2-1.9,0.2l-1.1-0.1l-0.7,2.2l-2.1-0.2
		l2.6-8.4l0.2,0.1v-0.4l2.8,0.2c0.6,0,1.1,0.2,1.6,0.6c0.4,0.4,0.7,0.7,0.7,1.2C293.1,170.1,293.1,170.7,292.8,171.2z"/>
	<path class="st0" d="M257.8,256.9c0.4,0.1,0.9,0,1.2-0.1c0.1,0,0.2-0.1,0.4-0.2c0.5-0.4,1-0.9,1.1-1.5c0.2-0.6,0.2-1.1,0.1-1.7
		c-0.1-0.4-0.6-0.7-1-0.7l-1.1-0.2l-1.6,4.3L257.8,256.9z"/>
	<path class="st0" d="M270.9,214.3c0.4-0.5,0.5-1.1,0.4-1.6c0-0.5-0.2-0.9-0.6-1c-0.5-0.1-1,0-1.5,0.2l-2.1,1l0.5,3.6l1.9-0.9
		C269.9,215.4,270.5,214.9,270.9,214.3z"/>
	<path class="st0" d="M211.8,176.4V319l105.6-58.4c10.8-5.9,17.6-17.3,17.6-29.7V106.8l-30.8,17.5L211.8,176.4z M328,199.6
		c0.1-0.1,0.2-0.1,0.4-0.1c0.2,0,0.5,0,0.6,0.1l0.2,1.6c-0.1,0.2-0.4,0.5-0.6,0.6l-6.1,2.8c-2.5,22.3-17.1,44.5-36.2,55.5l-10.5,4.8
		c-4.7,1.6-9.4,2.4-14,2.4c-3.5,0-6.8-0.5-10-1.4c-8.9-2.6-15.9-8.7-20.1-17.3l-5.8,2.8c-0.1,0-0.2,0.1-0.4,0.1c-0.5,0-1-0.4-1-0.9
		c0-0.6,0.2-1.2,0.9-1.6l6.1-3c0.1-0.1,0.1-0.2,0.2-0.2c0.1-0.1,0.1-0.1,0.2-0.1c0.1-0.1,0.4-0.1,0.6-0.1l77.9-37.7
		c0.1-0.1,0.2-0.2,0.4-0.2c0.1,0,0.2-0.1,0.4-0.1h0.1l9.4-4.5c0.1-0.2,0.4-0.4,0.5-0.5c0.1,0,0.1-0.1,0.2-0.1c0.1,0,0.2,0,0.2,0
		L328,199.6l0.1,0.2l0,0l0,0L328,199.6z M256.7,220.6l5.5-2.6l0.4,2.8l-5.5,2.6l0.6,4.5l-3.3,1.6l-1.9-12.9l9-4.3l0.1,0.2h0.2
		l0.4,2.5l-6.1,3L256.7,220.6z M276.2,219l-3.5,1.7l-2.7-2.4l-2.1,1l0.5,3.3l-3.3,1.6l-1.9-12.9l5.5-2.6l0,0
		c0.9-0.4,1.7-0.6,2.7-0.7c0.9,0,1.6,0.2,2.2,0.7c0.6,0.6,1,1.4,1.1,2.2c0.1,0.9,0,1.9-0.4,2.7c-0.4,0.9-0.7,1.6-1.4,2.2L276.2,219z
		 M279.4,209l5.5-2.6l0.4,2.8l-5.5,2.6l0.4,2.2l6.3-3.1l0.4,2.8l-0.2,0.1l-9.4,4.6l-1.9-12.9l9-4.3l0.1,0.2h0.2l0.4,2.5l-6.2,3
		L279.4,209z M290.7,203.5l5.5-2.6l0.4,2.8l-5.5,2.6l0.4,2.2l6.3-3.1l0.4,3l-9.7,4.7l-1.9-12.9l9-4.3l0.1,0.2h0.2l0.4,2.5l-6.2,3
		L290.7,203.5z M318.6,177.6l5.8-2.8c0.1,0,0.2-0.1,0.4-0.1c0.2,0,0.5,0,0.7,0.2c0.2,0.1,0.4,0.4,0.4,0.6c0,0.6-0.2,1.2-0.9,1.6
		l-6.7,3.2c-0.1,0.1-0.2,0.1-0.4,0.1l-19.6,9.4c-0.1,0.1-0.1,0.1-0.2,0.1c-0.1,0-0.2,0.1-0.2,0.1l-48.4,23.4
		c-0.1,0.1-0.2,0.1-0.2,0.2c-0.1,0-0.1,0.1-0.2,0.1l-8.4,4.1c-0.1,0.2-0.4,0.5-0.7,0.7c-0.1,0-0.2,0.1-0.4,0.1c-0.1,0-0.4,0-0.5-0.1
		l-16.5,7.9c-0.1,0.1-0.2,0.1-0.4,0.1c0,0,0,0-0.1,0c-0.2,0-0.4-0.1-0.5-0.1l-0.2-1.6c0.1-0.2,0.4-0.5,0.6-0.6l5.9-2.8
		c2.5-22.3,17.1-44.4,36.1-55.5l5.5-2.5l0,0l0,0l0,0l0,0l5.3-2.4c8.3-2.7,16.5-3.1,23.9-0.9C307.3,162.9,314.4,168.8,318.6,177.6z"
		/>
	<path class="st1" d="M337.4,104.4v-0.1c0-0.1-0.1-0.1-0.1-0.2l0,0c-0.1-0.1-0.2-0.4-0.5-0.5l0,0l0,0L293,78.1l0,0l-37.7-21.8l0,0
		l-26.4-15.2c-11.3-6.6-25.3-6.6-36.5,0l-108,62.4l0,0c-0.2,0.1-0.5,0.5-0.6,0.7v0.1c0,0.1,0,0.1,0,0.2l0,0v22.5H14.1
		c-0.7,0-1.2,0.5-1.2,1.2c0,0.7,0.5,1.2,1.2,1.2h69.6V152H40.1c-0.7,0-1.2,0.5-1.2,1.2c0,0.7,0.5,1.2,1.2,1.2h43.6v19.7H14.1
		c-0.7,0-1.2,0.5-1.2,1.2s0.5,1.2,1.2,1.2h69.6v19.7H40.1c-0.7,0-1.2,0.5-1.2,1.2s0.5,1.2,1.2,1.2h43.6v19.5H14.1
		c-0.7,0-1.2,0.5-1.2,1.2s0.5,1.2,1.2,1.2h69.6v10.2c0,13.3,7.2,25.5,18.8,32l107.4,59.3c0,0,0.1,0,0.2,0.1c0,0,0,0,0.1,0
		c0.1,0,0.2,0,0.4,0c0.1,0,0.1,0,0.2,0l0,0c0.1,0,0.1,0,0.2-0.1h0.1l0,0l0,0l0,0l107.4-59.3c11.6-6.4,18.8-18.6,18.8-32V104.5l0,0
		C337.4,104.5,337.4,104.5,337.4,104.4z M333.7,104.7l-123.1,69.6l-39.8-22.5l121.5-71.1L333.7,104.7z M130.8,131.7l35.6,21.6
		l-1.6,56.9l-33.9-17C130.8,193.1,130.8,131.7,130.8,131.7z M289.9,79.3l-121.5,71.1l-27.5-15.6l-8.2-5l121.9-71L289.9,79.3z
		 M193.6,43.2c10.5-6.1,23.5-6.1,34.1,0l24.5,14.2l-121.9,71l0,0c-0.2-0.2-0.6-0.2-1-0.1l-41.9-23.7L193.6,43.2z M86.2,230.9V106.8
		l42.1,23.8v63.3c0,0.5,0.2,0.9,0.7,1.1l36.4,18.2c0.1,0.1,0.4,0.1,0.5,0.1c0.2,0,0.5,0,0.6-0.1c0.4-0.2,0.6-0.6,0.6-1l1.6-58.6
		l40.5,22.9v142.6l-105.6-58.4C92.9,254.7,86.2,243.3,86.2,230.9z M334.9,230.9c0,12.4-6.7,23.8-17.6,29.7L211.8,319V176.4
		l92.3-52.3l30.8-17.3V230.9z"/>
	<path class="st0" d="M130.3,128.3L130.3,128.3l121.9-71l-24.5-14.1c-10.5-6.1-23.5-6.1-34.1,0L87.4,104.7l41.7,23.7
		C129.5,128.2,129.9,128.2,130.3,128.3z"/>
	<polygon class="st0" points="210.6,174.3 333.7,104.7 292.3,80.6 170.8,151.7 	"/>
	<polygon class="st2" points="132.6,129.8 140.8,134.8 168.3,150.4 289.9,79.3 254.7,58.8 	"/>
	<polygon class="st2" points="166.3,153.2 130.8,131.7 130.8,193.1 164.7,210.1 	"/>
	<polygon class="st1" points="262,212.6 261.7,212.7 261.6,212.3 252.6,216.8 254.4,229.5 257.6,228 257,223.6 262.5,221 262.1,218 
		256.7,220.6 256.3,218 262.4,215.2 	"/>
	<path class="st1" d="M274.6,211.2c-0.1-0.9-0.5-1.6-1.1-2.2c-0.6-0.5-1.4-0.7-2.2-0.7c-1,0-1.9,0.2-2.7,0.7l0,0l-5.5,2.6l1.9,12.9
		l3.3-1.6l-0.5-3.3l2.1-1l2.7,2.4l3.5-1.7l-3.3-2.7c0.6-0.6,1.1-1.4,1.4-2.2C274.7,213.2,274.7,212.2,274.6,211.2z M267.4,216.5
		l-0.5-3.6l2.1-1c0.5-0.2,1-0.4,1.5-0.2c0.4,0.1,0.6,0.6,0.6,1c0.1,0.6,0,1.1-0.4,1.6c-0.4,0.6-1,1.1-1.6,1.4L267.4,216.5z
		 M268.8,209.2L268.8,209.2L268.8,209.2L268.8,209.2z"/>
	<polygon class="st1" points="285,201.5 284.7,201.5 284.5,201.3 275.5,205.6 277.3,218.5 286.8,213.9 287,213.8 286.6,210.9 
		280.2,214 279.9,211.8 285.4,209.2 284.9,206.4 279.4,209 279.2,207 285.4,204 	"/>
	<polygon class="st1" points="296.2,196.1 295.9,196.1 295.8,195.8 286.8,200.2 288.6,213.1 298.3,208.5 297.8,205.5 291.5,208.6 
		291.1,206.4 296.5,203.8 296.2,200.9 290.7,203.5 290.5,201.5 296.5,198.6 	"/>
	<path class="st1" d="M253.8,184.3c-0.5,0-0.9,0-1.2,0.2c-0.1,0-0.1,0.1-0.2,0.1c-0.6,0.4-1.1,0.7-1.6,1.4l-2.6,3l4.6,5.5l1.7-2
		l-1.2-1.5l1-1.1c0.5-0.5,0.9-1.1,1.2-1.7c0.2-0.5,0.4-1.1,0.4-1.7c0-0.5-0.2-1.1-0.6-1.5C254.8,184.6,254.3,184.3,253.8,184.3z
		 M251.9,189.6l-1-1.2l0.9-1c0.2-0.2,0.5-0.5,0.7-0.6h0.1c0.2,0,0.4,0,0.5,0.2c0.1,0.2,0.2,0.5,0.1,0.7c-0.1,0.4-0.4,0.7-0.6,1.1
		L251.9,189.6z"/>
	<polygon class="st1" points="254.7,181.8 258.3,188.2 260.2,186.4 256.7,180.1 	"/>
	<path class="st1" d="M265.1,179.6c-0.2,0.7-0.6,1.4-1.2,1.7c-0.1,0.1-0.4,0.2-0.5,0.2c-0.1,0.1-0.4,0.1-0.6,0.1s-0.6,0-0.9-0.1
		s-0.5-0.5-0.5-0.7c-0.1-0.4-0.1-0.7-0.1-1.1c0.1-0.4,0.2-0.7,0.5-1.1s0.5-0.7,0.9-1c0.1-0.1,0.2-0.2,0.5-0.2
		c0.4-0.2,0.9-0.2,1.2-0.1l0.2,0.1l0.9-2.2l-0.4-0.1c-0.5-0.1-1.1-0.1-1.6,0c-0.2,0.1-0.5,0.1-0.7,0.2l0.1,0.2l0,0l0,0l-0.1-0.2
		c-0.4,0.1-0.7,0.4-1,0.6c-0.7,0.5-1.4,1.1-1.7,1.9c-0.5,0.6-0.7,1.5-0.9,2.2c-0.1,0.7-0.1,1.5,0.1,2.2c0.4,1.2,1.5,2,2.6,2
		c0.1,0,0.4,0,0.6,0c0.4-0.1,0.7-0.1,1.1-0.4c0.4-0.1,0.6-0.4,1-0.6c0.6-0.4,1.1-0.9,1.5-1.5c0.4-0.5,0.7-1.1,0.9-1.9l0.1-0.4
		l-2-0.2L265.1,179.6z"/>
	<polygon class="st1" points="273.6,170.3 273.4,170.2 273.3,169.9 271.4,170.8 269.2,174.9 268.8,172 266.6,173 267.6,181.1 
		269.8,180 269.5,178 270.2,177 272.6,178.7 275.1,177.5 271.3,174.7 	"/>
	<path class="st1" d="M283.2,167.6l-0.6,4.7c0,0.5-0.2,1.1-0.5,1.5c-0.1,0.2-0.4,0.4-0.6,0.5c-0.1,0.1-0.2,0.1-0.5,0.1
		c-0.4,0-0.6,0-0.7-0.1c-0.2-0.2-0.2-0.7-0.2-1.5l0.6-4.8l-2,0.2v0.2l0,0h-0.4l-0.6,4.5c-0.2,1,0,2,0.5,2.8c0.5,0.5,1.1,0.7,1.9,0.7
		c0.2,0,0.4,0,0.6-0.1c0.5,0,0.9-0.1,1.2-0.4c0.5-0.2,1-0.6,1.4-1c0.7-0.9,1.2-1.9,1.2-3l0.7-4.8L283.2,167.6z"/>
	<path class="st1" d="M292.2,168.1c-0.5-0.4-1-0.5-1.6-0.6l-2.8-0.2v0.4l-0.2-0.1l-2.6,8.4l2.1,0.2l0.7-2.2l1.1,0.1
		c0.6,0.1,1.2,0,1.9-0.2c0,0,0.1,0,0.1-0.1c0.5-0.2,0.9-0.5,1.2-0.9c0.4-0.5,0.7-1,0.9-1.6c0.2-0.6,0.2-1.1,0.1-1.7
		C293,169,292.6,168.5,292.2,168.1z M290,171.8L290,171.8c-0.2,0.1-0.5,0.1-0.7,0.1l-0.9-0.1l0.7-2.2l1,0.1l0,0
		c0.2,0,0.5,0.1,0.6,0.2c0.1,0.2,0.1,0.5,0,0.9c-0.1,0.4-0.2,0.6-0.6,0.9C290.1,171.7,290.1,171.8,290,171.8z"/>
	<path class="st1" d="M257.9,259.1c0.5,0,0.9-0.1,1.4-0.2c0.1,0,0.2-0.1,0.4-0.1c0.6-0.2,1.1-0.6,1.5-1.1c0.6-0.6,1-1.4,1.2-2.1
		c0.2-0.7,0.5-1.5,0.4-2.4c0-0.6-0.4-1.4-0.7-1.9c-0.5-0.5-1.1-0.9-1.9-1l-3-0.6v0.2l0,0l0,0l0,0l-0.2-0.1l-3.2,8.3l3.2,0.6
		C257.4,259.1,257.6,259.1,257.9,259.1z M259.5,252.6c0.5,0,0.9,0.4,1,0.7c0.1,0.6,0.1,1.1-0.1,1.7c-0.2,0.6-0.6,1.1-1.1,1.5
		c-0.1,0.1-0.2,0.1-0.4,0.2c-0.4,0.1-0.9,0.2-1.2,0.1l-1-0.2l1.6-4.3L259.5,252.6z"/>
	<polygon class="st1" points="262.6,259.8 268.5,259.1 268.9,257 265.2,257.4 265.3,256.2 268.5,255.8 268.9,253.8 265.7,254.1 
		265.9,252.9 269.5,252.6 269.9,250.5 264.3,251 264.3,251.3 264.1,251.2 	"/>
	<polygon class="st1" points="276,254.9 272.4,256 272.5,249.7 270.4,250.2 270.5,250.6 270.3,250.6 270,258.8 275.9,257 	"/>
	<polygon class="st1" points="276.7,256.7 279,255.7 278.3,248.4 282.7,253.9 284.7,252.9 286.3,244.8 288.4,250.8 294.1,246.9 
		293.4,245 289.9,247.6 289.5,246.6 292.6,244.5 292,242.7 288.9,244.9 288.6,244 292.1,241.7 291.6,240.2 291.3,240.3 291.3,240.3 
		291.3,240.3 291.1,240.1 285.9,243.7 285.9,243.7 284.2,244.6 283,250.3 280.3,246.6 278.3,247.7 278.2,247.6 276.2,248.4 
		276.4,248.7 276.1,248.7 	"/>
	<path class="st1" d="M297.5,243.9l-1-1.6l1-1l2.2,0.5l2.1-2l-2.7-0.5c0.2-0.4,0.2-0.9,0.4-1.4c0-0.6-0.1-1.1-0.4-1.6
		c-0.2-0.5-0.7-0.7-1.2-1c-0.5-0.1-1.1,0-1.6,0.2h-0.1l0.1,0.2l0,0l0,0l-0.1-0.2c-0.6,0.2-1.1,0.6-1.6,1.1l-2.8,2.7l3.8,6.2
		L297.5,243.9z M296.3,238c0.1,0,0.1-0.1,0.2-0.1c0.2,0,0.4,0.1,0.5,0.2c0.1,0.2,0.1,0.5,0.1,0.7c-0.1,0.4-0.4,0.7-0.7,1l-0.9,0.9
		l-0.9-1.5l1-0.9C295.8,238.2,296,238.1,296.3,238z"/>
	<polygon class="st1" points="304.1,237 305.7,234.9 303.9,233.2 302.9,227.9 302.5,228 302.2,227.8 301,229.5 301.6,233 298.4,233 
		296.7,235.2 302.2,235.4 	"/>
	<path class="st1" d="M274.5,161.1l-5.3,2.4l0,0l0,0l0,0l0,0l-5.5,2.5c-19.1,11.1-33.6,33.2-36.1,55.5l-5.9,2.8
		c-0.2,0.1-0.5,0.4-0.6,0.6l0.2,1.6c0.1,0.1,0.4,0.1,0.5,0.1c0,0,0,0,0.1,0c0.1,0,0.2,0,0.4-0.1l16.5-7.9c0.1,0,0.2,0.1,0.5,0.1
		c0.1,0,0.2,0,0.4-0.1c0.2-0.1,0.5-0.4,0.7-0.7l8.4-4.1c0.1,0,0.1,0,0.2-0.1c0.1,0,0.2-0.1,0.2-0.2l48.4-23.4c0.1,0,0.2,0,0.2-0.1
		c0.1,0,0.2-0.1,0.2-0.1l19.6-9.4c0.1,0,0.2,0,0.4-0.1l6.7-3.2c0.6-0.2,0.9-0.9,0.9-1.6c0-0.2-0.1-0.5-0.4-0.6
		c-0.2-0.1-0.4-0.2-0.7-0.2c-0.1,0-0.2,0-0.4,0.1l-5.8,2.8c-4.2-8.8-11.1-14.7-20.1-17.3C291.1,158.1,282.9,158.4,274.5,161.1z
		 M307.9,182.7c-3-5-7.7-8.7-13.1-10.5c-0.2-0.1-0.5,0-0.7,0.1c-0.4,0.1-0.6,0.5-0.7,0.7c-0.1,0.4-0.2,0.7-0.1,1.1
		c0.1,0.2,0.2,0.4,0.5,0.5c4.8,1.7,9,5,11.9,9.3l-7.3,3.5c-6.1-7.3-16.6-8.9-26.9-4.2c-0.2,0.1-0.5,0.2-0.7,0.4
		c-10.5,5.1-19.5,16.2-22.8,28.2l-6.9,3.3c1.5-6.7,4.1-13,7.8-18.7c0.4-0.5,0.4-1.2-0.1-1.7c-0.2-0.1-0.6-0.1-1,0
		c-0.2,0.1-0.5,0.4-0.6,0.6c-4.2,6.4-7.1,13.5-8.5,21.1l-8.3,4c2.8-22.4,18.6-44.6,38.3-54.1c0.4-0.2,0.7-0.4,1.1-0.5
		c6.3-2.8,12.6-4.3,18.5-4.3c12.1,0,22.5,6.1,28.2,17.3L307.9,182.7z M271.3,185.8c0.2-0.1,0.5-0.2,0.6-0.4
		c3.6-1.6,7.2-2.5,10.5-2.5c5.2,0,9.9,1.9,13.4,5.6l-45.2,21.8C253.9,199.7,261.9,190.3,271.3,185.8z"/>
	<path class="st1" d="M328.1,199.8l-0.1-0.2l-6.1,3c-0.1,0-0.2,0-0.2,0c-0.1,0-0.1,0-0.2,0.1c-0.2,0.1-0.4,0.2-0.5,0.5l-9.4,4.5
		h-0.1c-0.1,0-0.2,0-0.4,0.1c-0.1,0.1-0.2,0.1-0.4,0.2l-78,37.5c-0.2,0-0.4,0-0.6,0.1c-0.1,0-0.2,0.1-0.2,0.1
		c-0.1,0.1-0.1,0.1-0.2,0.2l-6.1,3c-0.6,0.2-1,0.9-0.9,1.6c0,0.5,0.5,0.9,1,0.9c0.1,0,0.2,0,0.4-0.1l5.8-2.8
		c4.2,8.8,11.1,14.7,20.1,17.3c3.2,1,6.6,1.4,10,1.4c4.6,0,9.3-0.9,14-2.4l10.5-4.8c19.1-10.9,33.7-33.1,36.2-55.4l5.9-2.8
		c0.2-0.1,0.5-0.4,0.6-0.6l-0.2-1.6c-0.1-0.1-0.4-0.2-0.6-0.1c-0.1,0-0.2,0-0.4,0.1L328.1,199.8L328.1,199.8L328.1,199.8z
		 M279,240.1c-0.2,0.1-0.5,0.2-0.7,0.4l0.1,0.2l0,0l0,0l-0.1-0.2c-9.2,4.1-18,3.1-23.7-2.8l44.8-21.7
		C295.9,226.4,288.1,235.6,279,240.1z M242.2,243.5c2,3.3,4.8,6.3,8.1,8.5c0.2,0.1,0.6,0.1,1,0c0.2-0.1,0.5-0.4,0.6-0.5
		c0.4-0.5,0.4-1.2-0.1-1.7c-2.8-1.9-5.3-4.5-7.2-7.4l7.6-3.6c6.2,7.2,16.4,8.7,26.6,4c0.2-0.1,0.5-0.2,0.7-0.4
		c10.5-5.1,19.2-15.7,22.7-27.9l7.6-3.6c-0.9,4.1-2.1,8.2-3.8,12c-0.1,0.4-0.2,0.7,0,1.1c0.1,0.2,0.2,0.4,0.5,0.5s0.5,0,0.7-0.1l0,0
		c0.4-0.1,0.6-0.5,0.7-0.7c2-4.5,3.5-9,4.3-13.9l7.9-3.8c-2.8,22.4-18.6,44.6-38.3,54.1c-0.4,0.2-0.7,0.4-1.1,0.5
		c-19.6,8.9-38.3,3.6-46.7-13.1L242.2,243.5z"/>
</g>
</svg>
