<?xml version="1.0" encoding="utf-8"?>
<!-- Generator: Adobe Illustrator 22.0.1, SVG Export Plug-In . SVG Version: 6.00 Build 0)  -->
<svg version="1.1" id="Layer_1" xmlns="http://www.w3.org/2000/svg" xmlns:xlink="http://www.w3.org/1999/xlink" x="0px" y="0px"
	 viewBox="0 0 359.5 358.5" style="enable-background:new 0 0 359.5 358.5;" xml:space="preserve">
<style type="text/css">
	.st0{fill:#D9B771;}
	.st1{fill:#EDEDED;}
	.st2{clip-path:url(#SVGID_2_);}
	.st3{fill:#FFFFFF;}
</style>
<g id="Group_113" transform="translate(1074.085 451.556)">
	<g id="Group_58">
		<g id="Group_57">
			<g id="Group_40">
				<g id="Path_137">
					<path class="st0" d="M-738.7-326.9l-72.7,87.9c-1.3,1.7-3.1,2.9-5.2,3.5l-185.4,51.2l24.1-48.4c0.3-0.6,0.6-1.1,1-1.7
						l41.1-52.7c1.3-1.7,3.1-2.8,5.2-3.4l178.1-46.5c4.2-1.1,8.7,0.7,10.8,4.6L-738.7-326.9z"/>
					<path class="st0" d="M-1002-182.9c-0.4,0-0.8-0.1-1.1-0.6c-0.4-0.4-0.4-1-0.1-1.5l24.1-48.4c0.3-0.7,0.7-1.3,1.1-1.8l41.1-52.7
						c1.5-2,3.6-3.2,5.9-3.9l178.1-46.5c4.8-1.3,10,0.8,12.3,5.2l3.1,5.5c0.3,0.6,0.3,1.1-0.1,1.5l-72.7,87.9
						c-1.4,2-3.5,3.4-5.9,4.1l-185.4,51.2C-1001.8-182.9-1001.9-182.9-1002-182.9z M-750.2-335.8c-0.7,0-1.4,0.1-2.1,0.3L-930.4-289
						c-1.7,0.4-3.4,1.5-4.5,2.9l-41.1,52.7c-0.3,0.4-0.7,0.8-0.8,1.4l-22.7,45.6l182.3-50.3c1.8-0.4,3.4-1.5,4.5-3.1l72.2-87.2
						l-2.7-4.6C-744.6-334.3-747.2-335.8-750.2-335.8z"/>
				</g>
				<g id="Group_39">
					<g id="Path_138">
						<path class="st1" d="M-1002-184.3l67.7-82.4c0,0,4.8-9.4,23-13.3l172.7-47l-6.7-26.1l-148.3,10.9l-107.2,67.1l-20.2,30.8
							l5,33.4l11.8,17L-1002-184.3z"/>
					</g>
					<g>
						<g>
							<defs>
								<path id="SVGID_1_" d="M-1002-184.3l67.7-82.4c0,0,4.8-9.4,23-13.3l172.7-47l-6.7-26.1l-148.3,10.9l-107.2,67.1l-20.2,30.8
									l5,33.4l11.8,17L-1002-184.3z"/>
							</defs>
							<clipPath id="SVGID_2_">
								<use xlink:href="#SVGID_1_"  style="overflow:visible;"/>
							</clipPath>
							<g id="Group_38" class="st2">
								<g id="Group_37">
									<g id="Line_14">
										<path class="st0" d="M-880-217.5c-0.6,0-1.1-0.4-1.4-1l-28.3-108.3c-0.1-0.7,0.3-1.5,1-1.7c0.7-0.1,1.5,0.3,1.7,1
											l28.3,108.3c0.1,0.7-0.3,1.5-1,1.7C-879.7-217.5-879.8-217.5-880-217.5z"/>
									</g>
									<g id="Line_15">
										<path class="st0" d="M-874.8-218.9c-0.6,0-1.1-0.4-1.4-1l-28.3-108.3c-0.1-0.7,0.3-1.5,1-1.7c0.7-0.1,1.5,0.3,1.7,1
											l28.3,108.3c0.1,0.7-0.3,1.5-1,1.7C-874.6-218.9-874.6-218.9-874.8-218.9z"/>
									</g>
									<g id="Line_16">
										<path class="st0" d="M-869.7-220.2c-0.6,0-1.1-0.4-1.4-1l-28.3-108.3c-0.1-0.7,0.3-1.5,1-1.7c0.7-0.1,1.5,0.3,1.7,1
											l28.3,108.3c0.1,0.7-0.3,1.5-1,1.7C-869.5-220.2-869.6-220.2-869.7-220.2z"/>
									</g>
									<g id="Line_17">
										<path class="st0" d="M-864.5-221.6c-0.6,0-1.1-0.4-1.4-1l-28.3-108.3c-0.1-0.7,0.3-1.5,1-1.7c0.7-0.1,1.5,0.3,1.7,1
											l28.3,108.3c0.1,0.7-0.3,1.5-1,1.7C-864.4-221.6-864.4-221.6-864.5-221.6z"/>
									</g>
									<g id="Line_18">
										<path class="st0" d="M-859.5-222.9c-0.6,0-1.1-0.4-1.4-1l-28.3-108.3c-0.1-0.7,0.3-1.5,1-1.7c0.7-0.1,1.5,0.3,1.7,1
											l28.3,108.3c0.1,0.7-0.3,1.5-1,1.7C-859.2-222.9-859.4-222.9-859.5-222.9z"/>
									</g>
									<g id="Line_19">
										<path class="st0" d="M-854.3-224.3c-0.6,0-1.1-0.4-1.4-1L-884-333.6c-0.1-0.7,0.3-1.5,1-1.7s1.5,0.3,1.7,1l28.3,108.3
											c0.1,0.7-0.3,1.5-1,1.7C-854.2-224.3-854.2-224.3-854.3-224.3z"/>
									</g>
									<g id="Line_20">
										<path class="st0" d="M-849.3-225.5c-0.6,0-1.1-0.4-1.4-1L-879-334.9c-0.1-0.7,0.3-1.5,1-1.7c0.7-0.1,1.5,0.3,1.7,1
											l28.3,108.3c0.1,0.7-0.3,1.5-1,1.7C-849-225.7-849.1-225.5-849.3-225.5z"/>
									</g>
									<g id="Line_21">
										<path class="st0" d="M-844.1-226.9c-0.6,0-1.1-0.4-1.4-1l-28.3-108.3c-0.1-0.7,0.3-1.5,1-1.7c0.7-0.1,1.5,0.3,1.7,1
											l28.3,108.3c0.1,0.7-0.3,1.5-1,1.7C-843.9-226.9-843.9-226.9-844.1-226.9z"/>
									</g>
									<g id="Line_22">
										<path class="st0" d="M-839-228.2c-0.6,0-1.1-0.4-1.4-1l-28.3-108.3c-0.1-0.7,0.3-1.5,1-1.7c0.7-0.1,1.5,0.3,1.7,1
											l28.3,108.3c0.1,0.7-0.3,1.5-1,1.7C-838.8-228.3-838.9-228.2-839-228.2z"/>
									</g>
									<g id="Line_23">
										<path class="st0" d="M-833.9-229.6c-0.6,0-1.1-0.4-1.4-1l-28.3-108.3c-0.1-0.7,0.3-1.5,1-1.7c0.7-0.1,1.5,0.3,1.7,1
											l28.3,108.3c0.1,0.7-0.3,1.5-1,1.7C-833.7-229.6-833.7-229.6-833.9-229.6z"/>
									</g>
									<g id="Line_24">
										<path class="st0" d="M-828.8-231c-0.6,0-1.1-0.4-1.4-1l-28.3-108.3c-0.1-0.7,0.3-1.5,1-1.7c0.7-0.1,1.5,0.3,1.7,1
											l28.3,108.3c0.1,0.7-0.3,1.5-1,1.7C-828.5-231-828.7-231-828.8-231z"/>
									</g>
									<g id="Line_25">
										<path class="st0" d="M-823.6-232.3c-0.6,0-1.1-0.4-1.4-1l-28.3-108.3c-0.1-0.7,0.3-1.5,1-1.7c0.7-0.1,1.5,0.3,1.7,1
											l28.3,108.3c0.1,0.7-0.3,1.5-1,1.7C-823.5-232.3-823.5-232.3-823.6-232.3z"/>
									</g>
									<g id="Line_26">
										<path class="st0" d="M-818.6-233.7c-0.6,0-1.1-0.4-1.4-1L-848.3-343c-0.1-0.7,0.3-1.5,1-1.7c0.7-0.1,1.5,0.3,1.7,1
											l28.3,108.3c0.1,0.7-0.3,1.5-1,1.7C-818.3-233.7-818.4-233.7-818.6-233.7z"/>
									</g>
									<g id="Line_27">
										<path class="st0" d="M-813.4-234.9c-0.6,0-1.1-0.4-1.4-1l-28.3-108.3c-0.1-0.7,0.3-1.5,1-1.7c0.7-0.1,1.5,0.3,1.7,1
											l28.3,108.3c0.1,0.7-0.3,1.5-1,1.7C-813.3-234.9-813.3-234.9-813.4-234.9z"/>
									</g>
									<g id="Line_28">
										<path class="st0" d="M-808.3-236.3c-0.6,0-1.1-0.4-1.4-1l-28.3-108.3c-0.1-0.7,0.3-1.5,1-1.7c0.7-0.1,1.5,0.3,1.7,1
											l28.3,108.3c0.1,0.7-0.3,1.5-1,1.7C-808.1-236.3-808.2-236.3-808.3-236.3z"/>
									</g>
									<g id="Line_29">
										<path class="st0" d="M-803.2-237.6c-0.6,0-1.1-0.4-1.4-1l-28.3-108.3c-0.1-0.7,0.3-1.5,1-1.7s1.5,0.3,1.7,1l28.3,108.3
											c0.1,0.7-0.3,1.5-1,1.7C-803-237.6-803-237.6-803.2-237.6z"/>
									</g>
									<g id="Line_30">
										<path class="st0" d="M-798.1-239c-0.6,0-1.1-0.4-1.4-1l-28.3-108.3c-0.1-0.7,0.3-1.5,1-1.7c0.7-0.1,1.5,0.3,1.7,1
											l28.3,108.3c0.1,0.7-0.3,1.5-1,1.7C-797.8-239-798-239-798.1-239z"/>
									</g>
									<g id="Line_31">
										<path class="st0" d="M-792.9-240.2c-0.6,0-1.1-0.4-1.4-1l-28.3-108.3c-0.1-0.7,0.3-1.5,1-1.7c0.7-0.1,1.5,0.3,1.7,1
											l28.3,108.3c0.1,0.7-0.3,1.5-1,1.7C-792.8-240.2-792.8-240.2-792.9-240.2z"/>
									</g>
									<g id="Line_32">
										<path class="st0" d="M-787.9-241.6c-0.6,0-1.1-0.4-1.4-1L-817.6-351c-0.1-0.7,0.3-1.5,1-1.7c0.7-0.1,1.5,0.3,1.7,1
											l28.3,108.3c0.1,0.7-0.3,1.5-1,1.7C-787.6-241.6-787.7-241.6-787.9-241.6z"/>
									</g>
									<g id="Line_33">
										<path class="st0" d="M-782.7-242.9c-0.6,0-1.1-0.4-1.4-1l-28.3-108.3c-0.1-0.7,0.3-1.5,1-1.7c0.7-0.1,1.5,0.3,1.7,1
											l28.3,108.3c0.1,0.7-0.3,1.5-1,1.7C-782.6-243.1-782.6-242.9-782.7-242.9z"/>
									</g>
									<g id="Line_34">
										<path class="st0" d="M-777.7-244.3c-0.6,0-1.1-0.4-1.4-1l-28.3-108.3c-0.1-0.7,0.3-1.5,1-1.7c0.7-0.1,1.5,0.3,1.7,1
											l28.3,108.3c0.1,0.7-0.3,1.5-1,1.7C-777.4-244.3-777.5-244.3-777.7-244.3z"/>
									</g>
									<g id="Line_35">
										<path class="st0" d="M-772.5-245.6c-0.6,0-1.1-0.4-1.4-1l-28.3-108.3c-0.1-0.7,0.3-1.5,1-1.7c0.7-0.1,1.5,0.3,1.7,1
											l28.3,108.3c0.1,0.7-0.3,1.5-1,1.7C-772.3-245.7-772.3-245.6-772.5-245.6z"/>
									</g>
									<g id="Line_36">
										<path class="st0" d="M-767.4-247c-0.6,0-1.1-0.4-1.4-1l-28.3-108.3c-0.1-0.7,0.3-1.5,1-1.7c0.7-0.1,1.5,0.3,1.7,1
											l28.3,108.3c0.1,0.7-0.3,1.5-1,1.7C-767.1-247-767.3-247-767.4-247z"/>
									</g>
									<g id="Line_37">
										<path class="st0" d="M-762.2-248.4c-0.6,0-1.1-0.4-1.4-1l-28.3-108.3c-0.1-0.7,0.3-1.5,1-1.7c0.7-0.1,1.5,0.3,1.7,1
											l28.3,108.3c0.1,0.7-0.3,1.5-1,1.7C-762.1-248.4-762.1-248.4-762.2-248.4z"/>
									</g>
									<g id="Line_38">
										<path class="st0" d="M-757.2-249.6c-0.6,0-1.1-0.4-1.4-1L-786.9-359c-0.1-0.7,0.3-1.5,1-1.7c0.7-0.1,1.5,0.3,1.7,1
											l28.3,108.3c0.1,0.7-0.3,1.5-1,1.7C-756.9-249.6-757-249.6-757.2-249.6z"/>
									</g>
									<g id="Line_39">
										<path class="st0" d="M-752-251c-0.6,0-1.1-0.4-1.4-1l-28.3-108.3c-0.1-0.7,0.3-1.5,1-1.7s1.5,0.3,1.7,1l28.3,108.3
											c0.1,0.7-0.3,1.5-1,1.7C-751.9-251-751.9-251-752-251z"/>
									</g>
									<g id="Line_40">
										<path class="st0" d="M-747-252.3c-0.6,0-1.1-0.4-1.4-1l-28.3-108.3c-0.1-0.7,0.3-1.5,1-1.7c0.7-0.1,1.5,0.3,1.7,1
											l28.3,108.3c0.1,0.7-0.3,1.5-1,1.7C-746.7-252.3-746.8-252.3-747-252.3z"/>
									</g>
									<g id="Line_41">
										<path class="st0" d="M-741.8-253.7c-0.6,0-1.1-0.4-1.4-1L-771.5-363c-0.1-0.7,0.3-1.5,1-1.7c0.7-0.1,1.5,0.3,1.7,1
											l28.3,108.3c0.1,0.7-0.3,1.5-1,1.7C-741.6-253.7-741.6-253.7-741.8-253.7z"/>
									</g>
									<g id="Line_42">
										<path class="st0" d="M-736.7-255c-0.6,0-1.1-0.4-1.4-1l-28.3-108.3c-0.1-0.7,0.3-1.5,1-1.7c0.7-0.1,1.5,0.3,1.7,1
											l28.3,108.3c0.1,0.7-0.3,1.5-1,1.7C-736.4-255-736.6-255-736.7-255z"/>
									</g>
									<g id="Line_43">
										<path class="st0" d="M-731.5-256.4c-0.6,0-1.1-0.4-1.4-1l-28.3-108.3c-0.1-0.7,0.3-1.5,1-1.7c0.7-0.1,1.5,0.3,1.7,1
											l28.3,108.3c0.1,0.7-0.3,1.5-1,1.7C-731.4-256.4-731.4-256.4-731.5-256.4z"/>
									</g>
									<g id="Line_44">
										<path class="st0" d="M-726.5-257.6c-0.6,0-1.1-0.4-1.4-1l-28.3-108.3c-0.1-0.7,0.3-1.5,1-1.7c0.7-0.1,1.5,0.3,1.7,1
											l28.3,108.3c0.1,0.7-0.3,1.5-1,1.7C-726.2-257.6-726.4-257.6-726.5-257.6z"/>
									</g>
									<g id="Line_45">
										<path class="st0" d="M-1002.7-185.4c-0.6,0-1.1-0.4-1.4-1l-28.3-108.3c-0.1-0.7,0.3-1.5,1-1.7c0.7-0.1,1.5,0.3,1.7,1
											l28.3,108.3c0.1,0.7-0.3,1.5-1,1.7C-1002.5-185.4-1002.6-185.4-1002.7-185.4z"/>
									</g>
									<g id="Line_46">
										<path class="st0" d="M-997.6-186.8c-0.6,0-1.1-0.4-1.4-1l-28.3-108.3c-0.1-0.7,0.3-1.5,1-1.7c0.7-0.1,1.5,0.3,1.7,1
											l28.3,108.3c0.1,0.7-0.3,1.5-1,1.7C-997.4-186.8-997.6-186.8-997.6-186.8z"/>
									</g>
									<g id="Line_47">
										<path class="st0" d="M-992.5-188.1c-0.6,0-1.1-0.4-1.4-1l-28.3-108.3c-0.1-0.7,0.3-1.5,1-1.7c0.7-0.1,1.5,0.3,1.7,1
											l28.3,108.3c0.1,0.7-0.3,1.5-1,1.7C-992.2-188.1-992.4-188.1-992.5-188.1z"/>
									</g>
									<g id="Line_48">
										<path class="st0" d="M-987.3-189.5c-0.6,0-1.1-0.4-1.4-1l-28.3-108.3c-0.1-0.7,0.3-1.5,1-1.7c0.7-0.1,1.5,0.3,1.7,1
											l28.3,108.3c0.1,0.7-0.3,1.5-1,1.7C-987.2-189.5-987.3-189.5-987.3-189.5z"/>
									</g>
									<g id="Line_49">
										<path class="st0" d="M-982.3-190.8c-0.6,0-1.1-0.4-1.4-1l-28.3-108.3c-0.1-0.7,0.3-1.5,1-1.7c0.7-0.1,1.5,0.3,1.7,1
											l28.3,108.3c0.1,0.7-0.3,1.5-1,1.7C-982-190.8-982.1-190.8-982.3-190.8z"/>
									</g>
									<g id="Line_50">
										<path class="st0" d="M-977.1-192.2c-0.6,0-1.1-0.4-1.4-1l-28.3-108.3c-0.1-0.7,0.3-1.5,1-1.7c0.7-0.1,1.5,0.3,1.7,1
											l28.3,108.3c0.1,0.7-0.3,1.5-1,1.7C-977-192.2-977.1-192.2-977.1-192.2z"/>
									</g>
									<g id="Line_51">
										<path class="st0" d="M-972-193.4c-0.6,0-1.1-0.4-1.4-1l-28.3-108.3c-0.1-0.7,0.3-1.5,1-1.7c0.7-0.1,1.5,0.3,1.7,1
											l28.3,108.3c0.1,0.7-0.3,1.5-1,1.7C-971.8-193.6-971.9-193.4-972-193.4z"/>
									</g>
									<g id="Line_52">
										<path class="st0" d="M-966.9-194.8c-0.6,0-1.1-0.4-1.4-1l-28.3-108.3c-0.1-0.7,0.3-1.5,1-1.7c0.7-0.1,1.5,0.3,1.7,1
											l28.3,108.3c0.1,0.7-0.3,1.5-1,1.7C-966.7-194.8-966.9-194.8-966.9-194.8z"/>
									</g>
									<g id="Line_53">
										<path class="st0" d="M-961.8-196.2c-0.6,0-1.1-0.4-1.4-1l-28.3-108.3c-0.1-0.7,0.3-1.5,1-1.7c0.7-0.1,1.5,0.3,1.7,1
											l28.3,108.3c0.1,0.7-0.3,1.5-1,1.7C-961.5-196.2-961.7-196.2-961.8-196.2z"/>
									</g>
									<g id="Line_54">
										<path class="st0" d="M-956.6-197.5c-0.6,0-1.1-0.4-1.4-1l-28.3-108.3c-0.1-0.7,0.3-1.5,1-1.7s1.5,0.3,1.7,1l28.3,108.3
											c0.1,0.7-0.3,1.5-1,1.7C-956.5-197.5-956.6-197.5-956.6-197.5z"/>
									</g>
									<g id="Line_55">
										<path class="st0" d="M-951.6-198.9c-0.6,0-1.1-0.4-1.4-1l-28.3-108.3c-0.1-0.7,0.3-1.5,1-1.7c0.7-0.1,1.5,0.3,1.7,1
											l28.3,108.3c0.1,0.7-0.3,1.5-1,1.7C-951.3-198.9-951.4-198.9-951.6-198.9z"/>
									</g>
									<g id="Line_56">
										<path class="st0" d="M-946.4-200.2c-0.6,0-1.1-0.4-1.4-1l-28.3-108.3c-0.1-0.7,0.3-1.5,1-1.7c0.7-0.1,1.5,0.3,1.7,1
											l28.3,108.3c0.1,0.7-0.3,1.5-1,1.7C-946.3-200.2-946.4-200.2-946.4-200.2z"/>
									</g>
									<g id="Line_57">
										<path class="st0" d="M-941.4-201.6c-0.6,0-1.1-0.4-1.4-1l-28.3-108.3c-0.1-0.7,0.3-1.5,1-1.7c0.7-0.1,1.5,0.3,1.7,1
											l28.3,108.3c0.1,0.7-0.3,1.5-1,1.7C-941.1-201.6-941.2-201.6-941.4-201.6z"/>
									</g>
									<g id="Line_58">
										<path class="st0" d="M-936.2-202.8c-0.6,0-1.1-0.4-1.4-1l-28.3-108.3c-0.1-0.7,0.3-1.5,1-1.7c0.7-0.1,1.5,0.3,1.7,1
											l28.3,108.3c0.1,0.7-0.3,1.5-1,1.7C-936-202.8-936.2-202.8-936.2-202.8z"/>
									</g>
									<g id="Line_59">
										<path class="st0" d="M-931.1-204.2c-0.6,0-1.1-0.4-1.4-1l-28.3-108.3c-0.1-0.7,0.3-1.5,1-1.7c0.7-0.1,1.5,0.3,1.7,1
											l28.3,108.3c0.1,0.7-0.3,1.5-1,1.7C-930.8-204.2-931-204.2-931.1-204.2z"/>
									</g>
									<g id="Line_60">
										<path class="st0" d="M-925.9-205.5c-0.6,0-1.1-0.4-1.4-1l-28.3-108.3c-0.1-0.7,0.3-1.5,1-1.7c0.7-0.1,1.5,0.3,1.7,1
											l28.3,108.3c0.1,0.7-0.3,1.5-1,1.7C-925.8-205.5-925.8-205.5-925.9-205.5z"/>
									</g>
									<g id="Line_61">
										<path class="st0" d="M-920.9-206.9c-0.6,0-1.1-0.4-1.4-1l-28.3-108.3c-0.1-0.7,0.3-1.5,1-1.7c0.7-0.1,1.5,0.3,1.7,1
											l28.3,108.3c0.1,0.7-0.3,1.5-1,1.7C-920.6-206.9-920.8-206.9-920.9-206.9z"/>
									</g>
									<g id="Line_62">
										<path class="st0" d="M-915.7-208.2c-0.6,0-1.1-0.4-1.4-1l-28.3-108.3c-0.1-0.7,0.3-1.5,1-1.7c0.7-0.1,1.5,0.3,1.7,1
											l28.3,108.3c0.1,0.7-0.3,1.5-1,1.7C-915.6-208.2-915.6-208.2-915.7-208.2z"/>
									</g>
									<g id="Line_63">
										<path class="st0" d="M-910.7-209.6c-0.6,0-1.1-0.4-1.4-1l-28.3-108.3c-0.1-0.7,0.3-1.5,1-1.7s1.5,0.3,1.7,1l28.3,108.3
											c0.1,0.7-0.3,1.5-1,1.7C-910.4-209.6-910.5-209.6-910.7-209.6z"/>
									</g>
									<g id="Line_64">
										<path class="st0" d="M-905.5-210.8c-0.6,0-1.1-0.4-1.4-1l-28.3-108.3c-0.1-0.7,0.3-1.5,1-1.7s1.5,0.3,1.7,1l28.3,108.3
											c0.1,0.7-0.3,1.5-1,1.7C-905.3-211-905.3-210.8-905.5-210.8z"/>
									</g>
									<g id="Line_65">
										<path class="st0" d="M-900.4-212.2c-0.6,0-1.1-0.4-1.4-1l-28.3-108.3c-0.1-0.7,0.3-1.5,1-1.7c0.7-0.1,1.5,0.3,1.7,1
											l28.3,108.3c0.1,0.7-0.3,1.5-1,1.7C-900.1-212.2-900.3-212.2-900.4-212.2z"/>
									</g>
									<g id="Line_66">
										<path class="st0" d="M-895.2-213.6c-0.6,0-1.1-0.4-1.4-1L-925-322.9c-0.1-0.7,0.3-1.5,1-1.7c0.7-0.1,1.5,0.3,1.7,1
											l28.3,108.3c0.1,0.7-0.3,1.5-1,1.7C-895.1-213.6-895.1-213.6-895.2-213.6z"/>
									</g>
									<g id="Line_67">
										<path class="st0" d="M-890.2-214.9c-0.6,0-1.1-0.4-1.4-1l-28.3-108.3c-0.1-0.7,0.3-1.5,1-1.7c0.7-0.1,1.5,0.3,1.7,1
											l28.3,108.3c0.1,0.7-0.3,1.5-1,1.7C-889.9-214.9-890.1-214.9-890.2-214.9z"/>
									</g>
									<g id="Line_68">
										<path class="st0" d="M-885-216.3c-0.6,0-1.1-0.4-1.4-1l-28.3-108.3c-0.1-0.7,0.3-1.5,1-1.7c0.7-0.1,1.5,0.3,1.7,1
											l28.3,108.3c0.1,0.7-0.3,1.5-1,1.7C-884.9-216.3-884.9-216.3-885-216.3z"/>
									</g>
								</g>
							</g>
						</g>
					</g>
					<g id="Path_140">
						<path class="st0" d="M-1002-182.9c-0.1,0-0.1,0-0.3,0c-0.6-0.1-1-0.6-1.1-1l-2.4-9.1l-11.6-16.8c-0.1-0.1-0.1-0.4-0.3-0.6
							l-5-33.4c0-0.3,0-0.7,0.3-1l20.2-30.8c0.1-0.1,0.3-0.3,0.4-0.4l107.2-67.1c0.1-0.1,0.4-0.1,0.7-0.1l148.3-10.9
							c0.7,0,1.3,0.4,1.4,1l6.7,26.1c0.1,0.7-0.3,1.5-1,1.7l-172.4,46.8c-17.2,3.6-22,12.5-22,12.6s-0.1,0.1-0.1,0.3l-67.7,82.4
							C-1001.2-183.1-1001.6-182.9-1002-182.9z M-1014.9-211.2l11.5,16.7c0.1,0.1,0.1,0.3,0.1,0.4l1.8,6.7l65.9-80.2
							c0.7-1.3,6.3-10.2,23.8-13.9l171.3-46.5l-6.2-23.5l-146.9,10.9l-106.7,66.9l-19.8,30.1L-1014.9-211.2z"/>
					</g>
				</g>
				<g id="Path_141">
					<path class="st1" d="M-908.7-372.6l78.5-20.6l-22.7-29.6c0,0-12.2-18.6-35-11.8l-23.8,6.2c0,0-15.1,4.9-17.7,12.8l-66.6,90.3
						c0,0-10.8,14-5,27.5l105.3-27.5L-908.7-372.6z"/>
					<path class="st0" d="M-1001.1-296.5c-0.6,0-1.1-0.3-1.3-0.8c-5.9-14,4.8-28.3,5.2-28.9l66.4-90.1c2.8-8.4,17.8-13.3,18.5-13.5
						l24-6.3c23.5-7,36.4,12.2,36.4,12.5l22.7,29.4c0.3,0.4,0.4,0.8,0.3,1.3c-0.1,0.4-0.6,0.8-1,0.8l-77.1,20.2l12.5,46
						c0.1,0.4,0,0.7-0.1,1.1c-0.1,0.4-0.6,0.6-0.8,0.7l-105.3,27.5C-1000.9-296.5-1001.1-296.5-1001.1-296.5z M-878.1-434.6
						c-2.9,0-6,0.4-9.5,1.4l-24,6.3c0,0-14.4,4.8-16.7,11.9c0,0.1-0.1,0.3-0.1,0.4l-66.6,90.3c-0.1,0.1-9.5,12.8-5.3,24.9
						l102.6-26.8l-12.5-46c-0.1-0.4,0-0.7,0.1-1.1c0.1-0.3,0.6-0.6,0.8-0.7l76.4-20l-21.4-27.9
						C-854.6-422.6-862.7-434.6-878.1-434.6z"/>
				</g>
				<g id="Path_142">
					<path class="st0" d="M-955.2-360.6l31.8-38.4l7.3,28L-955.2-360.6z"/>
					<path class="st0" d="M-955.2-359.2c-0.4,0-1-0.3-1.1-0.7c-0.3-0.6-0.3-1.1,0.1-1.7l31.8-38.4c0.3-0.4,0.8-0.6,1.4-0.4
						c0.6,0.1,1,0.6,1.1,1l7.3,28c0.1,0.7-0.3,1.5-1,1.7l-39.2,10.2C-954.9-359.2-955.1-359.2-955.2-359.2z M-924-396l-27.3,32.9
						l33.6-8.8L-924-396z"/>
				</g>
				<g id="Path_143">
					<path class="st1" d="M-1014-191.2c0,0-7,1-9.3-11.2l-9.1-34.9c0,0-2.5-13,5.7-23.4l62.8-91.1c3.5-5,8.7-8.7,14.6-10.2
						l178.3-46.5c0,0,11.5-4.8,16.8,12.1l11.2,42.6l-177.3,46.4c-10.7,2.2-20,8.3-26.5,17l-58.9,78.2c0,0-2.5,8,1.3,18.8
						L-1014-191.2z"/>
					<path class="st0" d="M-1014.2-189.8c-2,0-8.1-0.8-10.4-12.3l-9.1-34.9c-0.1-0.7-2.5-13.9,6-24.5l62.6-91
						c3.6-5.3,9.1-9.3,15.4-10.8l178.1-46.5c0.7-0.3,4.8-1.7,9.3,0.4c4.2,2,7.3,6.2,9.3,12.5l11.2,42.7c0.1,0.7-0.3,1.5-1,1.7
						L-920-306.1c-10.4,2.1-19.5,8-25.8,16.4l-58.7,78.1c-0.3,1.3-2,8.4,1.3,17.7c0.1,0.4,0.1,0.8-0.1,1.1c-0.1,0.3-0.6,0.6-0.8,0.7
						l-9.4,2.5h-0.1C-1013.8-189.8-1014-189.8-1014.2-189.8z M-1014-191.2L-1014-191.2L-1014-191.2z M-767.3-407.9
						c-1.8,0-3.2,0.6-3.2,0.6h-0.1l-178.3,46.5c-5.6,1.4-10.5,4.8-13.9,9.7l-62.8,91.1c-7.8,9.8-5.6,22.1-5.5,22.3l9.1,34.9
						c2,10.1,7,10.2,7.7,10.2l7.8-2.1c-3.2-10.4-1-17.9-0.8-18.2c0-0.1,0.1-0.3,0.3-0.4l58.9-78.2c6.6-9,16.4-15.3,27.3-17.5
						l175.9-46l-10.8-41.3c-1.7-5.5-4.3-9.1-7.7-10.7C-764.8-407.7-766.2-407.9-767.3-407.9z"/>
				</g>
			</g>
			<g id="Group_41">
				<g id="Ellipse_14">
					<circle class="st3" cx="-741.5" cy="-323.9" r="16.3"/>
					<path class="st0" d="M-741.5-306.3c-9.8,0-17.7-8-17.7-17.7s8-17.7,17.7-17.7s17.7,8,17.7,17.7S-731.8-306.3-741.5-306.3z
						 M-741.5-338.8c-8.3,0-14.9,6.7-14.9,14.9c0,8.3,6.7,14.9,14.9,14.9s14.9-6.7,14.9-14.9C-726.6-332.2-733.4-338.8-741.5-338.8z
						"/>
				</g>
				<g id="Ellipse_15">
					<circle class="st0" cx="-732" cy="-329.5" r="2.4"/>
				</g>
				<g id="Path_144">
					<path class="st0" d="M-733.6-324.6c1.8,0.8,4.1,0.3,5.3-1.4c0,0,0.7,7.8-3.9,12.3C-732.2-313.8-730.4-321-733.6-324.6z"/>
				</g>
			</g>
			<g id="Group_42">
				<g id="Ellipse_16">
					<circle class="st3" cx="-966.9" cy="-188.8" r="9.7"/>
					<path class="st0" d="M-966.9-177.7c-6.2,0-11.1-4.9-11.1-11.1s4.9-11.1,11.1-11.1c6.2,0,11.1,4.9,11.1,11.1
						S-960.7-177.7-966.9-177.7z M-966.9-197.1c-4.6,0-8.3,3.8-8.3,8.3c0,4.5,3.8,8.3,8.3,8.3c4.5,0,8.3-3.8,8.3-8.3
						C-958.6-193.3-962.2-197.1-966.9-197.1z"/>
				</g>
				<g id="Ellipse_17">
					<circle class="st0" cx="-961.1" cy="-192.2" r="1.4"/>
				</g>
				<g id="Path_145">
					<path class="st0" d="M-962.1-189.2c1.1,0.6,2.4,0.1,3.1-0.8c0,0,0.4,4.8-2.4,7.3C-961.3-182.8-960.1-187.1-962.1-189.2z"/>
				</g>
			</g>
			<g id="Group_43">
				<g id="Ellipse_18">
					<circle class="st3" cx="-937" cy="-255.5" r="9.7"/>
					<path class="st0" d="M-937-244.5c-6.2,0-11.1-4.9-11.1-11.1c0-6.2,4.9-11.1,11.1-11.1c6.2,0,11.1,4.9,11.1,11.1
						C-925.9-249.4-930.8-244.5-937-244.5z M-937-263.8c-4.6,0-8.3,3.8-8.3,8.3s3.8,8.3,8.3,8.3c4.5,0,8.3-3.8,8.3-8.3
						S-932.4-263.8-937-263.8z"/>
				</g>
				<g id="Ellipse_19">
					<circle class="st0" cx="-931.3" cy="-258.9" r="1.4"/>
				</g>
				<g id="Path_146">
					<path class="st0" d="M-932.2-255.9c1.1,0.6,2.4,0.1,3.1-0.8c0,0,0.4,4.8-2.4,7.3C-931.4-249.5-930.3-253.8-932.2-255.9z"/>
				</g>
			</g>
			<g id="Group_44">
				<g id="Ellipse_20">
					<circle class="st3" cx="-977.4" cy="-204.9" r="9.7"/>
					<path class="st0" d="M-977.4-193.9c-6.2,0-11.1-4.9-11.1-11.1s4.9-11.1,11.1-11.1c6.2,0,11.1,4.9,11.1,11.1
						S-971.2-193.9-977.4-193.9z M-977.4-213.3c-4.6,0-8.3,3.8-8.3,8.3c0,4.5,3.8,8.3,8.3,8.3s8.3-3.8,8.3-8.3
						C-969.1-209.6-972.7-213.3-977.4-213.3z"/>
				</g>
				<g id="Ellipse_21">
					<circle class="st0" cx="-971.8" cy="-208.3" r="1.4"/>
				</g>
				<g id="Path_147">
					<path class="st0" d="M-972.6-205.5c1.1,0.6,2.4,0.1,3.1-0.8c0,0,0.4,4.8-2.4,7.3C-971.9-198.9-970.8-203.2-972.6-205.5z"/>
				</g>
			</g>
			<g id="Group_45">
				<g id="Ellipse_22">
					<circle class="st3" cx="-903.7" cy="-276.8" r="9.7"/>
					<path class="st0" d="M-903.7-265.8c-6.2,0-11.1-4.9-11.1-11.1c0-6.2,4.9-11.1,11.1-11.1c6.2,0,11.1,4.9,11.1,11.1
						C-892.6-270.8-897.5-265.8-903.7-265.8z M-903.7-285.1c-4.6,0-8.3,3.8-8.3,8.3s3.8,8.3,8.3,8.3c4.5,0,8.3-3.8,8.3-8.3
						S-899-285.1-903.7-285.1z"/>
				</g>
				<g id="Ellipse_23">
					<circle class="st0" cx="-897.9" cy="-280.2" r="1.4"/>
				</g>
				<g id="Path_148">
					<path class="st0" d="M-898.9-277.2c1.1,0.6,2.4,0.1,3.1-0.8c0,0,0.4,4.8-2.4,7.3C-898-270.8-896.9-275.1-898.9-277.2z"/>
				</g>
			</g>
			<g id="Group_46">
				<g id="Ellipse_24">
					<circle class="st3" cx="-995.5" cy="-188.7" r="16.3"/>
					<path class="st0" d="M-995.5-171c-9.8,0-17.7-8-17.7-17.7c0-9.8,8-17.7,17.7-17.7c9.7,0,17.7,8,17.7,17.7
						C-977.8-179-985.6-171-995.5-171z M-995.5-203.7c-8.3,0-14.9,6.7-14.9,14.9s6.7,14.9,14.9,14.9c8.3,0,14.9-6.7,14.9-14.9
						S-987.2-203.7-995.5-203.7z"/>
				</g>
				<g id="Ellipse_25">
					<circle class="st0" cx="-989.8" cy="-198.2" r="2.4"/>
				</g>
				<g id="Path_149">
					<path class="st0" d="M-988.9-193.3c2.1-0.1,3.6-1.8,3.9-3.8c0,0,4.5,6.6,2.7,12.6C-982.4-184.5-984.2-191.6-988.9-193.3z"/>
				</g>
			</g>
			<g id="Group_47">
				<g id="Ellipse_26">
					<circle class="st3" cx="-810.2" cy="-246.4" r="10.5"/>
					<path class="st0" d="M-810.2-234.5c-6.6,0-11.9-5.3-11.9-11.9c0-6.6,5.3-11.9,11.9-11.9s11.9,5.3,11.9,11.9
						C-798.1-239.8-803.6-234.5-810.2-234.5z M-810.2-255.5c-5,0-9.1,4.1-9.1,9.1s4.1,9.1,9.1,9.1s9.1-4.1,9.1-9.1
						C-800.9-251.5-805.1-255.5-810.2-255.5z"/>
				</g>
				<g id="Ellipse_27">
					<circle class="st0" cx="-804" cy="-250.1" r="1.5"/>
				</g>
				<g id="Path_150">
					<path class="st0" d="M-805-246.8c1.3,0.6,2.7,0.1,3.4-1c0,0,0.4,5.2-2.5,8C-804.1-239.8-802.9-244.6-805-246.8z"/>
				</g>
			</g>
			<g id="Group_48">
				<g id="Ellipse_28">
					<circle class="st3" cx="-793.8" cy="-255.1" r="9.7"/>
					<path class="st0" d="M-793.8-244c-6.2,0-11.1-4.9-11.1-11.1s4.9-11.1,11.1-11.1c6.2,0,11.1,4.9,11.1,11.1S-787.7-244-793.8-244
						z M-793.8-263.4c-4.6,0-8.3,3.8-8.3,8.3s3.8,8.3,8.3,8.3c4.5,0,8.3-3.8,8.3-8.3S-789.3-263.4-793.8-263.4z"/>
				</g>
				<g id="Ellipse_29">
					<circle class="st0" cx="-788.2" cy="-258.3" r="1.4"/>
				</g>
				<g id="Path_151">
					<path class="st0" d="M-789.1-255.5c1.1,0.6,2.4,0.1,3.1-0.8c0,0,0.4,4.8-2.4,7.3C-788.3-249.1-787.2-253.3-789.1-255.5z"/>
				</g>
			</g>
			<g id="Group_49">
				<g id="Ellipse_30">
					<circle class="st3" cx="-760.8" cy="-318.3" r="9.7"/>
					<path class="st0" d="M-760.8-307.2c-6.2,0-11.1-4.9-11.1-11.1c0-6.2,4.9-11.1,11.1-11.1c6.2,0,11.1,4.9,11.1,11.1
						C-749.8-312.1-754.8-307.2-760.8-307.2z M-760.8-326.6c-4.6,0-8.3,3.8-8.3,8.3s3.8,8.3,8.3,8.3c4.5,0,8.3-3.8,8.3-8.3
						S-756.3-326.6-760.8-326.6z"/>
				</g>
				<g id="Ellipse_31">
					<circle class="st0" cx="-755.2" cy="-321.7" r="1.4"/>
				</g>
				<g id="Path_152">
					<path class="st0" d="M-756.2-318.7c1.1,0.6,2.4,0.1,3.1-0.8c0,0,0.4,4.8-2.4,7.3C-755.4-312.3-754.2-316.6-756.2-318.7z"/>
				</g>
			</g>
			<g id="Group_50">
				<g id="Ellipse_32">
					<circle class="st3" cx="-825.7" cy="-231.4" r="16.3"/>
					<path class="st0" d="M-825.7-213.8c-9.8,0-17.7-8-17.7-17.7c0-9.8,8-17.7,17.7-17.7s17.7,8,17.7,17.7
						C-807.9-221.7-815.9-213.8-825.7-213.8z M-825.7-246.4c-8.3,0-14.9,6.7-14.9,14.9s6.7,14.9,14.9,14.9s14.9-6.7,14.9-14.9
						S-817.5-246.4-825.7-246.4z"/>
				</g>
				<g id="Ellipse_33">
					<circle class="st0" cx="-820.1" cy="-240.9" r="2.4"/>
				</g>
				<g id="Path_153">
					<path class="st0" d="M-819.1-236c2.1-0.1,3.6-1.8,3.9-3.8c0,0,4.5,6.6,2.7,12.6C-812.7-227.2-814.5-234.4-819.1-236z"/>
				</g>
			</g>
			<g id="Group_51">
				<g id="Ellipse_34">
					<circle class="st3" cx="-869" cy="-252.7" r="16.3"/>
					<path class="st0" d="M-869-235.1c-9.8,0-17.7-8-17.7-17.7c0-9.8,8-17.7,17.7-17.7c9.8,0,17.7,8,17.7,17.7
						C-851.4-242.9-859.4-235.1-869-235.1z M-869-267.6c-8.3,0-14.9,6.7-14.9,14.9c0,8.1,6.7,14.9,14.9,14.9s14.9-6.7,14.9-14.9
						C-854.2-260.9-860.9-267.6-869-267.6z"/>
				</g>
				<g id="Ellipse_35">
					<circle class="st0" cx="-862" cy="-261.3" r="2.4"/>
				</g>
				<g id="Path_154">
					<path class="st0" d="M-861.9-256.1c2.1,0.1,3.9-1.1,4.5-3.2c0,0,3.4,7.1,0.6,12.9C-856.8-246.4-857.7-253.8-861.9-256.1z"/>
				</g>
			</g>
			<g id="Group_52">
				<g id="Ellipse_36">
					<circle class="st3" cx="-799.9" cy="-239.5" r="10.5"/>
					<path class="st0" d="M-799.9-227.6c-6.6,0-11.9-5.3-11.9-11.9c0-6.6,5.3-11.9,11.9-11.9c6.6,0,11.9,5.3,11.9,11.9
						C-788-233-793.3-227.6-799.9-227.6z M-799.9-248.8c-5,0-9.1,4.1-9.1,9.1s4.1,9.1,9.1,9.1c5,0,9.1-4.1,9.1-9.1
						S-794.9-248.8-799.9-248.8z"/>
				</g>
				<g id="Ellipse_37">
					<circle class="st0" cx="-793.8" cy="-243.2" r="1.5"/>
				</g>
				<g id="Path_155">
					<path class="st0" d="M-794.8-240.1c1.3,0.6,2.7,0.1,3.4-1c0,0,0.4,5.2-2.5,8C-793.9-233.1-792.6-237.7-794.8-240.1z"/>
				</g>
			</g>
			<g id="Group_53">
				<g id="Ellipse_38">
					<circle class="st3" cx="-862.7" cy="-270.5" r="10.5"/>
					<path class="st0" d="M-862.7-258.6c-6.6,0-11.9-5.3-11.9-11.9s5.3-11.9,11.9-11.9s11.9,5.3,11.9,11.9
						C-850.7-263.9-856.1-258.6-862.7-258.6z M-862.7-279.6c-5,0-9.1,4.1-9.1,9.1s4.1,9.1,9.1,9.1c5,0,9.1-4.1,9.1-9.1
						S-857.7-279.6-862.7-279.6z"/>
				</g>
				<g id="Ellipse_39">
					<circle class="st0" cx="-856.6" cy="-274.2" r="1.5"/>
				</g>
				<g id="Path_156">
					<path class="st0" d="M-857.5-271.1c1.3,0.6,2.7,0.1,3.4-1c0,0,0.4,5.2-2.5,8C-856.7-263.9-855.4-268.7-857.5-271.1z"/>
				</g>
			</g>
			<g id="Group_54">
				<g id="Ellipse_40">
					<circle class="st3" cx="-887.5" cy="-240.9" r="10.5"/>
					<path class="st0" d="M-887.5-228.9c-6.6,0-11.9-5.3-11.9-11.9s5.3-11.9,11.9-11.9s11.9,5.3,11.9,11.9S-880.9-228.9-887.5-228.9
						z M-887.5-250.1c-5,0-9.1,4.1-9.1,9.1s4.1,9.1,9.1,9.1c5,0,9.1-4.1,9.1-9.1S-882.5-250.1-887.5-250.1z"/>
				</g>
				<g id="Ellipse_41">
					<circle class="st0" cx="-881.4" cy="-244.5" r="1.5"/>
				</g>
				<g id="Path_157">
					<path class="st0" d="M-882.5-241.4c1.3,0.6,2.7,0.1,3.4-1c0,0,0.4,5.2-2.5,8C-881.5-234.4-880.2-239-882.5-241.4z"/>
				</g>
			</g>
			<g id="Group_55">
				<g id="Ellipse_42">
					<circle class="st3" cx="-748.1" cy="-306.8" r="10.5"/>
					<path class="st0" d="M-748.1-294.8c-6.6,0-11.9-5.3-11.9-11.9s5.3-11.9,11.9-11.9s11.9,5.3,11.9,11.9S-741.5-294.8-748.1-294.8
						z M-748.1-315.9c-5,0-9.1,4.1-9.1,9.1s4.1,9.1,9.1,9.1s9.1-4.1,9.1-9.1S-743-315.9-748.1-315.9z"/>
				</g>
				<g id="Ellipse_43">
					<circle class="st0" cx="-741.9" cy="-310.5" r="1.5"/>
				</g>
				<g id="Path_158">
					<path class="st0" d="M-742.9-307.2c1.3,0.6,2.7,0.1,3.4-1c0,0,0.4,5.2-2.5,8C-742.1-300.2-740.8-304.9-742.9-307.2z"/>
				</g>
			</g>
			<g id="Group_56">
				<g id="Ellipse_44">
					<circle class="st3" cx="-929.6" cy="-274.7" r="16.3"/>
					<path class="st0" d="M-929.6-257.1c-9.8,0-17.7-8-17.7-17.7c0-9.7,8-17.7,17.7-17.7s17.7,8,17.7,17.7
						C-911.9-265.1-919.8-257.1-929.6-257.1z M-929.6-289.7c-8.3,0-14.9,6.7-14.9,14.9c0,8.3,6.7,14.9,14.9,14.9
						c8.3,0,14.9-6.7,14.9-14.9C-914.7-283-921.3-289.7-929.6-289.7z"/>
				</g>
				<g id="Ellipse_45">
					<circle class="st0" cx="-920" cy="-280.3" r="2.4"/>
				</g>
				<g id="Path_159">
					<path class="st0" d="M-921.6-275.6c1.8,0.8,4.1,0.3,5.3-1.4c0,0,0.7,7.8-3.9,12.3C-920.3-264.6-918.4-271.9-921.6-275.6z"/>
				</g>
			</g>
		</g>
		<g id="Path_160">
			<path class="st0" d="M-964.1-118.6c-0.7,0-1.3-0.6-1.4-1.3c-0.1-0.7,0.4-1.4,1.3-1.5c27.9-2.9,65.9-12.6,88.3-42.6
				c13.3-17.9,14.9-34.9,14.9-35c0-0.7,0.7-1.4,1.5-1.3c0.8,0,1.4,0.7,1.3,1.5c0,0.7-1.5,17.8-15.3,36.3
				c-12.6,17.1-38.7,38.5-90.4,43.9C-964.1-118.6-964.1-118.6-964.1-118.6z"/>
		</g>
		<g id="Path_161">
			<path class="st0" d="M-924.7-100.7c-0.6,0-1.1-0.4-1.3-1c-0.3-0.7,0.1-1.5,0.8-1.8c26.5-9.4,61.1-27.8,75.8-62.1
				c8.8-20.6,6.3-37.3,6.2-37.6c-0.1-0.7,0.4-1.5,1.1-1.5c0.7-0.1,1.5,0.4,1.5,1.1c0.1,0.7,2.7,17.7-6.3,39
				c-8.3,19.5-28.6,46.5-77.6,63.8C-924.4-100.7-924.5-100.7-924.7-100.7z"/>
		</g>
		<g id="Path_162">
			<path class="st0" d="M-980.2-135.1c-8.8,0-17.4-0.7-24.9-1.7c-0.7-0.1-1.3-0.8-1.3-1.5c0.1-0.7,0.8-1.3,1.5-1.3
				c27.9,3.8,67.1,3.1,95.9-20.9c17.1-14.3,22.4-30.3,22.4-30.4c0.3-0.7,1-1.1,1.8-0.8c0.7,0.3,1.1,1,0.8,1.8
				c-0.3,0.7-5.6,17-23.4,31.8C-928.6-140.3-955.9-135.1-980.2-135.1z"/>
		</g>
		<g id="Path_163">
			<path class="st0" d="M-982-155.9c-19.8,0-38.8-4.8-54-10.1c-0.7-0.3-1.1-1.1-0.8-1.8c0.3-0.7,1.1-1.1,1.8-0.8
				c26.5,9.4,64.9,17,98-0.6c19.8-10.4,28.3-25.1,28.5-25.2c0.4-0.7,1.3-0.8,2-0.6c0.7,0.4,0.8,1.3,0.6,2c-0.4,0.6-9,15.4-29.4,26.2
				C-950.5-158.8-966.4-155.9-982-155.9z"/>
		</g>
	</g>
</g>
</svg>
