<?xml version="1.0" encoding="utf-8"?>
<!-- Generator: Adobe Illustrator 22.1.0, SVG Export Plug-In . SVG Version: 6.00 Build 0)  -->
<svg version="1.1" id="Layer_1" xmlns="http://www.w3.org/2000/svg" xmlns:xlink="http://www.w3.org/1999/xlink" x="0px" y="0px"
	 viewBox="0 0 154.9 154.9" style="enable-background:new 0 0 154.9 154.9;" xml:space="preserve">
<style type="text/css">
	.st0{fill:#D9B771;}
	.st1{fill:#7DBB7F;}
</style>
<g id="Group_410" transform="matrix(0.966, -0.259, 0.259, 0.966, 0, 32.732)">
	<g id="Group_402" transform="translate(13.475 11.636)">
		<path id="Path_691" class="st0" d="M0,32.9l1.9-3.7c0.4-0.8,1-1.5,1.7-2.1c0.7-0.5,1.4-0.8,2.2-0.8c1.7-0.1,3.3,0.8,4.3,2.2
			c0.4,0.7,0.6,1.5,0.6,2.3c0,0.9-0.3,1.8-0.7,2.6l-1.9,3.7L0,32.9z M8.4,32.7C8.8,32,9,31.2,8.8,30.4c-0.5-1.5-2.1-2.3-3.7-1.9
			c-0.7,0.3-1.4,0.9-1.7,1.6l-0.9,1.7l5,2.6L8.4,32.7z"/>
		<path id="Path_692" class="st0" d="M13.9,26.3c-0.8,0.3-1.6,0.4-2.4,0.2c-1.7-0.3-3.1-1.5-3.7-3.2c-0.3-0.8-0.3-1.6-0.1-2.5
			c0.4-1.8,1.7-3.2,3.4-3.9c2.4-0.9,5.1,0.3,6,2.7c0.3,0.9,0.4,1.8,0.2,2.7C16.8,24.2,15.6,25.7,13.9,26.3L13.9,26.3z M15.4,22.3
			c0.1-0.5,0.1-1-0.1-1.5c-0.4-1-1.2-1.7-2.3-2c-0.5-0.1-1-0.1-1.5,0.1c-1,0.4-1.7,1.2-1.9,2.2c-0.1,0.5-0.1,1,0.1,1.5
			c0.4,1,1.2,1.7,2.3,2c0.5,0.1,1,0.1,1.5-0.1C14.4,24.1,15.1,23.3,15.4,22.3L15.4,22.3z"/>
		<path id="Path_693" class="st0" d="M21.5,7.9l5.4,7.4l-1.4,1l-6.9-1.8l3.3,4.5l-1.7,1.2l-5.4-7.4l1.4-1l6.9,1.8l-3.3-4.5L21.5,7.9
			z"/>
		<path id="Path_694" class="st0" d="M25.6,5.5c0.3,0.1,0.6,0.3,0.7,0.6c0.1,0.2,0.1,0.3,0.2,0.5c0.1,0.3,0.1,0.5,0.1,0.8l0.2,2
			l-1.1,0.6L25.2,8c-0.2,0-0.5,0-0.6-0.1c-0.2-0.1-0.4-0.3-0.5-0.5c-0.2-0.3-0.2-0.6-0.1-1c0.1-0.3,0.3-0.6,0.6-0.7
			C24.9,5.4,25.3,5.4,25.6,5.5z"/>
		<path id="Path_695" class="st0" d="M30.9,5.4l-2.7,1l-0.6-1.6L35,2l0.6,1.6l-2.7,1l2.6,7l-2,0.7L30.9,5.4z"/>
		<path id="Path_696" class="st0" d="M49.9,5.1c0.3,0.4,0.5,0.9,0.6,1.4c0.1,0.7-0.2,1.5-0.8,1.9C48.9,9,48,9.3,47,9.3l-4.7,0.4
			l-0.7-9.1L46,0.2c0.9-0.1,1.8,0,2.6,0.4c0.6,0.3,1,1,1,1.7c0.1,0.8-0.3,1.7-1,2.1C49.1,4.5,49.6,4.7,49.9,5.1z M43.8,2L44,4.1
			L46.1,4c0.4,0,0.8-0.1,1.2-0.4c0.3-0.2,0.4-0.5,0.3-0.8c0-0.3-0.2-0.6-0.5-0.8c-0.4-0.2-0.8-0.2-1.2-0.2L43.8,2z M48,7.3
			c0.3-0.2,0.4-0.5,0.4-0.9c-0.1-0.8-0.7-1.1-1.8-1l-2.5,0.2l0.2,2.2l2.5-0.2C47.2,7.7,47.6,7.6,48,7.3L48,7.3z"/>
		<path id="Path_697" class="st0" d="M53,8.3c-0.7-0.9-0.9-2.1-0.7-3.2L53,0l2.1,0.3l-0.7,5c-0.2,1.6,0.3,2.5,1.7,2.7
			c0.6,0.1,1.1,0,1.6-0.4c0.5-0.5,0.7-1.1,0.8-1.8l0.7-5l2.1,0.3l-0.7,5.1c-0.1,1.1-0.6,2.2-1.5,2.9C57,10.3,54.5,9.9,53,8.3L53,8.3
			z"/>
		<path id="Path_698" class="st0" d="M66.6,9L65.6,12l-2-0.7l1.1-3.1l-1.4-6.7l2.1,0.7l1,4.6l3.6-3l2,0.7L66.6,9z"/>
		<path id="Path_699" class="st0" d="M84.6,12.5l-5.3,7.4l-1.4-1l-0.5-7.2l-3.2,4.5l-1.7-1.2l5.3-7.4l1.4,1l0.5,7.1l3.2-4.5
			L84.6,12.5z"/>
		<path id="Path_700" class="st0" d="M86.6,25.2l-1.2,1.2l-4.8-5.2l6.7-6.2l4.7,5.1l-1.2,1.2l-3.3-3.5L86,19l2.9,3.1l-1.2,1.1
			l-2.9-3.1l-1.5,1.4L86.6,25.2z"/>
		<path id="Path_701" class="st0" d="M100.9,34.8l-9.5,1.7l-1.1-2l4.5-4.7l-6.4,1.1l-1.1-2l6.6-7l1,1.9l-4.7,4.9l6.7-1.2l0.9,1.7
			l-4.7,4.9l6.7-1.2L100.9,34.8z"/>
	</g>
	<g id="Group_403" transform="translate(30.712 98.472)">
		<path id="Path_702" class="st0" d="M5,10.8L4.8,7.7L4.7,7.7l-1.6-1L1.8,8.9L0,7.8L4.8,0l3.4,2.1c0.6,0.4,1.2,0.9,1.6,1.4
			c0.4,0.5,0.6,1.1,0.6,1.7c0,0.6-0.2,1.2-0.5,1.8C9.2,8.1,7.9,8.7,6.7,8.4L6.9,12L5,10.8z M8.2,4.6C8,4.1,7.6,3.7,7.1,3.5L5.7,2.6
			L4,5.3l1.5,0.9c0.4,0.3,0.9,0.4,1.5,0.4C7.8,6.4,8.4,5.5,8.2,4.6C8.2,4.6,8.2,4.6,8.2,4.6L8.2,4.6z"/>
		<path id="Path_703" class="st0" d="M16.7,13.7l-0.5,1.6l-6.7-2.3l2.9-8.6l6.5,2.2l-0.5,1.6l-4.5-1.5l-0.6,1.9l4,1.4l-0.5,1.6
			l-4-1.4l-0.7,2L16.7,13.7z"/>
		<path id="Path_704" class="st0" d="M19.7,15.9c-0.6-0.2-1.1-0.6-1.5-1l0.9-1.5c0.4,0.4,0.8,0.7,1.3,0.9c0.5,0.2,1,0.4,1.6,0.5
			c0.4,0.1,0.9,0.1,1.4-0.1c0.3-0.1,0.5-0.3,0.5-0.6c0-0.2,0-0.4-0.2-0.6c-0.2-0.2-0.4-0.3-0.6-0.4c-0.2-0.1-0.6-0.3-1-0.4
			c-0.6-0.2-1.1-0.5-1.6-0.7c-0.4-0.2-0.8-0.6-1-1c-0.3-0.5-0.4-1-0.3-1.5c0.1-0.5,0.3-1,0.6-1.4c0.4-0.4,0.9-0.7,1.4-0.8
			c0.7-0.2,1.4-0.2,2.2-0.1c0.6,0.1,1.1,0.2,1.7,0.5c0.5,0.2,0.9,0.5,1.4,0.8L25.6,10C24.9,9.4,24,9,23.2,8.9
			c-0.4-0.1-0.9-0.1-1.3,0.1c-0.3,0.1-0.5,0.4-0.5,0.7c0,0.3,0.1,0.6,0.4,0.8c0.4,0.3,0.9,0.5,1.4,0.7c0.6,0.2,1.1,0.5,1.6,0.7
			c0.4,0.2,0.8,0.6,1,0.9c0.3,0.5,0.4,1,0.3,1.5c-0.1,0.5-0.3,1-0.6,1.3c-0.4,0.4-0.9,0.7-1.4,0.8c-0.7,0.2-1.4,0.2-2.2,0.1
			C21,16.4,20.3,16.2,19.7,15.9z"/>
		<path id="Path_705" class="st0" d="M29.6,9.6l-2.9-0.1l0-1.7l8,0.2l0,1.7l-2.9-0.1l-0.2,7.4l-2.1,0L29.6,9.6z"/>
		<path id="Path_706" class="st0" d="M38.1,16.4c-0.8-0.3-1.5-0.8-2-1.5c-1-1.4-1.3-3.2-0.6-4.8c0.3-0.8,0.9-1.4,1.6-1.9
			c1.5-1,3.4-1.2,5.1-0.6c2.4,0.9,3.6,3.6,2.7,6c-0.3,0.9-0.9,1.6-1.7,2.1C41.7,16.8,39.8,17,38.1,16.4L38.1,16.4z M41.9,14.3
			c0.4-0.3,0.7-0.7,0.9-1.2c0.4-1,0.2-2.1-0.4-3c-0.3-0.4-0.7-0.7-1.1-0.9c-1-0.4-2.1-0.2-2.9,0.4c-0.4,0.3-0.7,0.7-0.9,1.2
			c-0.4,1-0.2,2.1,0.4,3c0.3,0.4,0.7,0.7,1.1,0.9C40,15.1,41.1,14.9,41.9,14.3L41.9,14.3z"/>
		<path id="Path_707" class="st0" d="M53.8,13.4l-2.5-1.9l-0.1,0l-1.7,0.6l0.8,2.4l-2,0.7l-2.8-8.7l3.8-1.2c0.7-0.2,1.4-0.3,2.1-0.3
			c0.6,0.1,1.2,0.3,1.7,0.7c0.5,0.4,0.8,0.9,1,1.5c0.4,1.2,0.1,2.5-0.9,3.3l2.9,2.2L53.8,13.4z M51.1,7c-0.5-0.2-1-0.1-1.5,0.1
			L48,7.5l1,3l1.6-0.5c0.5-0.1,0.9-0.4,1.2-0.8C52.3,8.4,52,7.4,51.1,7C51.2,7,51.1,7,51.1,7L51.1,7z"/>
		<path id="Path_708" class="st0" d="M63.6,6.5l0.9,1.5l-6.1,3.6l-4.6-7.9l5.9-3.5l0.9,1.5l-4.1,2.4l1,1.7l3.6-2.2L61.9,5l-3.6,2.2
			L59.4,9L63.6,6.5z"/>
	</g>
	<g id="Group_406" transform="translate(46.181 43.361)">
		<g>
			<g>
				<path class="st1" d="M27.9,9.4c-0.3-2.4-1.5-4.7-3.3-6.4c-2-1.9-4.6-2.9-7.3-3c-2.7,0-5.4,1-7.4,2.8c-1.8,1.7-3,3.9-3.4,6.3
					C2.6,10.9,0,14.7,0,19c-0.1,6,4.7,10.8,10.7,10.9c1.8,0,3.6-0.4,5.2-1.3l-0.1,11l2.3,0l0.1-11c1.6,0.9,3.4,1.4,5.2,1.4
					c6,0.1,10.8-4.7,10.9-10.7C34.3,15,31.8,11.1,27.9,9.4z M23.4,27.7c-1.9,0-3.7-0.7-5.2-1.8l0.1-7.1l5.2-2.7L22.5,14l-4.1,2.1
					l0-4.6l-2.3,0L16,21.3l-4.1-2.2l-1.1,2l5.2,2.8l0,2c-1.5,1.1-3.3,1.8-5.2,1.7c-4.7,0-8.4-3.9-8.4-8.6c0-3.6,2.3-6.8,5.7-7.9
					l0.7-0.2l0.1-0.8C8.9,8,9.9,6,11.5,4.6c1.6-1.5,3.6-2.2,5.8-2.2s4.2,0.8,5.8,2.3c1.6,1.5,2.5,3.5,2.6,5.6l0,0.8l0.7,0.3
					c3.4,1.2,5.6,4.5,5.6,8C31.9,24,28.1,27.8,23.4,27.7z"/>
			</g>
		</g>
	</g>
	<path id="Path_710" class="st0" d="M123.3,45l-0.2-1c0.1-0.1,0.2-0.1,0.3-0.2c-0.8-2.4-1.6-4.7-2.7-6.9c-0.1,0.1-0.2,0.2-0.3,0.3
		l-0.2-0.2l0.3-0.6c-0.2-0.5-0.5-1-0.7-1.4c-0.1,0.1-0.2,0.3-0.2,0.5c-0.1,0.4-0.2,0.5-0.5,0.5c-0.1,0-0.2-0.3-0.4-0.5
		c0.1-0.1,0.2-0.3,0.3-0.4c0.2-0.2,0.4-0.4,0.6-0.6c-2.2-4.4-5-8.5-8.1-12.2c-0.1,0.1-0.2,0.2-0.3,0.3c-0.2,0.1-0.4,0.2-0.6,0.2
		c-0.1,0-0.2,0-0.3,0c-0.1,0-0.1-0.2-0.1-0.3c0.1-0.4,0.1-0.7,0.2-1.2c0.1,0,0.1,0,0.2,0c-0.8-0.9-1.6-1.8-2.5-2.6
		c0,0.1-0.1,0.1-0.2,0.1c-0.2,0-0.4-0.1-0.6-0.2c-0.1-0.3-0.2-0.6-0.3-0.9c-5.5-5.3-12-9.6-19-12.6c0,0,0,0,0,0
		c-0.1,0.1-0.4,0-0.5-0.2c0,0,0-0.1,0-0.1c-11.1-4.6-23.2-5.9-35-3.9c0,0.6-0.1,1.2-0.1,1.8c-0.2-0.1-0.2-0.1-0.3-0.1
		C52.1,2,52,1.5,52,1c-0.7,0.1-1.4,0.3-2.2,0.4c0,0,0,0,0.1,0.1C50,1.6,50,1.7,50,1.9c0.1,0.5,0.3,0.5,0.7,0.3c0.2,0,0.4,0,0.6,0
		c0,0,0.1,0.3,0,0.4c-0.2,0.1-0.4,0.2-0.6,0.3c-0.7-0.1-1.2-0.6-1.4-1.3l0,0c-4,0.9-7.9,2.2-11.7,3.8c0,0,0,0,0,0.1
		c-0.1,0-0.1,0-0.2,0c-0.2,0.1-0.4,0.2-0.5,0.2c-0.1,0.2-0.2,0.4-0.1,0.6c0,0.1-0.1,0.2-0.2,0.2c-0.1,0-0.2-0.1-0.3-0.2
		c0-0.1-0.1-0.2-0.1-0.3c-2,0.9-3.9,2-5.8,3.1c0,0.1-0.1,0.1-0.1,0.2c-0.1,0-0.1,0-0.2,0c-1.9,1.2-3.8,2.4-5.6,3.8
		c0.3,0.2,0.4,0.6,0.2,0.9c-0.1,0.2-0.1,0.5,0,0.7c0.2,0.8,0.6,1.5,1.1,2.1c0.7,0.6,1,1.6,1.8,2.1c4-3.2,8.5-5.9,13.3-7.9
		c-0.2-0.4-0.2-0.8-0.1-1.2c0.1-0.1,0.2-0.2,0.3-0.3c1-0.4,1-0.5,0.7-1.5c0-0.1,0-0.1,0-0.2c0.1,0,0.2,0,0.3,0
		c0.4,0.1,0.6,0,0.6-0.5c0-0.3,0.1-0.7,0.2-1C43,6,43,5.5,43,5c0-0.3,0-0.5,0-0.8c0-0.1,0.3-0.1,0.4-0.2c0.1,0.2,0.2,0.4,0.1,0.4
		c-0.4,0.6-0.2,1.1,0.2,1.7c0.1,0.3,0.1,0.6,0,0.9c-0.4,0.9-0.6,1.8-0.6,2.8c0,0.1,0,0.2,0,0.2c17.9-6.7,38-4,53.5,7.3
		c0.1-0.1,0.3-0.2,0.4-0.3c0.1,0.2,0.3,0.4,0.4,0.6c0.1,0.2,0.1,0.3,0.2,0.5c2,1.5,3.9,3.2,5.7,5c1.3,1.3,2.6,2.7,3.8,4.2
		c0.2,0,0.3-0.1,0.5-0.1c0.1,0,0.3,0.1,0.4,0.1c-0.1,0.1-0.1,0.4-0.2,0.4c-0.1,0-0.2,0-0.3,0c1.3,1.6,2.4,3.2,3.5,4.9l0.4-0.4
		l0.5,0.6c-0.1,0.1-0.3,0.3-0.4,0.3c-0.1,0-0.2-0.1-0.2-0.1c0.3,0.5,0.7,1.1,1,1.7c0.4,0,0.8,0,1.2-0.1l0-0.2l-0.5-0.5
		c0.5-0.4,0.9,0,1.4,0.1c0-0.1,0.1-0.2,0.1-0.3c0.1-0.1,0.1-0.3,0.2-0.4c0.1,0,0.3,0.1,0.4,0.2c0.2,0.1,0.4,0.1,0.6,0
		c0.3-0.1,0.5-0.3,0.8-0.5c0.5,0.5,0.6,1.2,0.2,1.8c-0.3,0.4-0.5,0-0.7-0.1c-0.5,0-0.9,0.1-1.4,0.2c-0.5,0.1-0.9,0.3-1.4,0.4
		c0.1,0.4-0.1,0.6-0.4,0.7c2.8,5.1,4.8,10.5,5.9,16.2l0,0c0.1,0.2,0.2,0.4,0.3,0.6c0,0-0.1,0.1-0.2,0.1c0.6,3.2,0.9,6.5,0.9,9.7
		c0.1,0.1,0.3,0.2,0.4,0.3c0.1,0.1,0.3,0.4,0.2,0.4c-0.1,0.2-0.3,0.3-0.5,0.4c0,0,0,0,0,0c0,6.5-1.2,13-3.5,19.1
		c0.1-0.1,0.3-0.1,0.5-0.1c0.5,0,0.7,0.3,0.7,0.8c0,0.3-0.2,0.5-0.5,0.4c-0.4,0-0.7-0.2-0.9-0.5c-2.3,6.1-5.7,11.8-9.9,16.7
		c0.1,0.1,0.2,0.4,0.1,0.5c-0.2,0.2-0.4,0.3-0.7,0.5l-0.1-0.1c0,0-0.1,0-0.1,0c-0.7,0.8-1.5,1.6-2.3,2.4
		c-4.8,4.8-10.4,8.7-16.6,11.5c0.1,0,0.2,0,0.3,0c0.4,0,0.7,0.4,0.6,0.8c0,0,0,0,0,0c0,0.1-0.2,0.2-0.2,0.2c-0.4-0.2-1,0-1-0.6
		c0-0.1,0-0.3,0.2-0.3c-6.2,2.8-12.8,4.4-19.6,4.9c-0.1,0.2-0.3,0.3-0.4,0.3c-0.2,0-0.3-0.1-0.4-0.2c-3.1,0.2-6.1,0.1-9.2-0.3v0
		c-0.6,0.3-0.5,0.8-0.4,1.3c0,0.5,0,0.9-0.1,1.4l-0.2,0c-0.1-0.2-0.2-0.4-0.2-0.6c0-0.4,0-0.9-0.1-1.3c-0.1-0.2-0.2-0.3-0.3-0.5
		c-0.2-0.2-0.2-0.4,0-0.4c-2.1-0.3-4.3-0.7-6.4-1.2c0,0.2,0,0.4,0,0.6c-0.3-0.1-0.5-0.4-0.5-0.7c-9.7-2.5-18.5-7.5-25.6-14.6
		c0,0-0.1-0.1-0.1-0.1c0,0,0,0,0-0.1l0,0c-2.8-2.8-5.4-6-7.5-9.3c-0.1,0.5-0.1,1.1-0.2,1.6c0,0.1-0.3,0.3-0.4,0.3
		c-0.2-0.1-0.4-0.3-0.6-0.5l0.2-0.1c0.1-0.6,0.1-1.2,0.2-1.8c0.1-0.1,0.2-0.2,0.3-0.2l0.1,0c-2.9-4.6-5.1-9.6-6.5-14.8
		c-0.4,0-0.2-0.5-0.3-0.7c0-0.2,0-0.3,0-0.5C7,72.1,6.4,66.7,6.6,61.3c-0.1,0-0.3,0-0.4,0c0-0.2,0.1-0.3,0.1-0.5
		c0.1-0.1,0.2-0.2,0.3-0.3C6.7,58,7,55.6,7.4,53.2c-0.1,0.1-0.2,0.1-0.3,0.1c-0.5-0.1-0.4,0.2-0.4,0.6c0,0.7-0.4,1-0.9,0.8
		c-0.3-0.1-0.4-0.3-0.4-0.6c0,0,0,0,0-0.1c0.2-0.5,0.3-1,0.5-1.5c0.1-0.4,0.5-0.6,0.8-0.5c0.3,0.1,0.6,0.2,0.8,0.4
		c1.3-6.9,4-13.5,7.7-19.5c-0.2,0.2-0.4,0.4-0.6,0.5c-0.4,0.1-0.4-0.3-0.5-0.6c0-0.3,0.1-0.6,0.5-0.6c0.2,0,0.3,0.3,0.6,0.5
		c2.2-3.5,4.8-6.7,7.7-9.6c1.3-1.3,2.6-2.5,4-3.7c0,0,0-0.1,0-0.1c0-0.2-0.2-0.4-0.4-0.5c-0.4-0.1-0.7-0.4-0.8-0.8
		c-0.1-0.2-0.2-0.3-0.4-0.4c-0.1,0.2-0.4,0.3-0.4,0.5c-0.1,0.4-0.4,0.8-0.9,0.8c-0.2,0-0.3-0.1-0.4-0.2c-0.1-0.1,0.1-0.3,0.1-0.4
		c0.2-0.4,0.4-0.9,0.5-1.3c0.1-0.6-0.2-1.1-0.8-1.2c-0.1,0-0.2,0-0.2,0c-0.6,0-0.7-0.1-0.5-0.7c0.1-0.2,0.1-0.5,0.1-0.7
		c-1.1,0.9-2.2,1.9-3.3,2.9l0.1,0c-0.1,0.1-0.2,0.1-0.3,0.1c-0.3,0.3-0.6,0.6-0.9,0.9c0,0.1,0,0.1,0,0.2c-0.1,0-0.1,0-0.2,0l0,0
		c-0.2,0.2-0.4,0.5-0.7,0.7c0.4,0.2,0.8,0.1,1.1-0.2c0.1-0.1,0.2-0.1,0.4,0c0.1,0.3,0.2,0.6,0.3,0.9c0,0.1-0.2,0.2-0.4,0.2
		c-0.3,0-0.5-0.1-0.8-0.2c-0.1,0-0.3,0-0.4,0.1c-0.1,0.1,0,0.2,0,0.4c0,0.1,0.2,0.2,0.1,0.3c-0.1,0.2-0.1,0.3-0.2,0.5
		c-0.1-0.1-0.4-0.2-0.4-0.3c0-0.3,0-0.6,0.1-0.9c0-0.2,0.1-0.4,0.2-0.6C2.5,35.1-3.5,57.7,2,79c0,0,0.1,0,0.1,0
		c0.1,0,0.1,0.2,0.2,0.2c0,0.1-0.1,0.2-0.1,0.3C3.3,83.8,4.9,88,6.9,92c0.4-0.4,0.4-0.4,0.5-1.1c0,0.1,0.2,0.3,0.1,0.4
		c-0.1,0.4-0.2,0.8-0.3,1.2c0,0,0,0.1-0.1,0.1c2.5,4.8,5.6,9.2,9.2,13.2c0.1,0,0.2,0.1,0.3,0.1c0,0,0.1,0.2,0,0.2c0,0,0,0,0,0
		c0.6,0.6,1.2,1.2,1.8,1.9c0.6,0.6,1.2,1.1,1.8,1.7c0-0.1,0-0.2-0.1-0.4c0.5,0,0.6,0.1,0.6,0.8c9.4,8.6,21.2,14.1,33.8,15.8
		c-0.1-0.2-0.2-0.4-0.3-0.6c0-0.1,0.2-0.2,0.2-0.3c0.1,0.1,0.2,0.3,0.3,0.5c0,0.1-0.1,0.2-0.2,0.4c0.5,0.1,1,0.1,1.6,0.2
		c0,0,0,0,0-0.1c0-0.5,0.3-0.5,0.7-0.5s0.5,0.1,0.5,0.5c0,0.1,0,0.2,0,0.2c2,0.2,4,0.3,6,0.3c15.8,0,31-5.9,42.6-16.5
		c0.2-0.8,0.8-1.4,0.9-2.2l0.2,0c0,0.1,0.1,0.2,0.1,0.2c-0.1,0.4-0.2,0.8-0.2,1.1c0.4-0.4,0.8-0.8,1.2-1.2c0.2-0.2,0.4-0.4,0.6-0.6
		c0-0.3,0.1-0.6,0.1-0.9c0-0.9,0-1.8,0-2.8c0.5-0.1,0.7-0.7,0.7-1.3c0-0.4,0.2-0.8,0.6-0.9c0.5-0.2,0.7-0.1,0.9,0.4
		c0.2,0.3,0.4,0.6,0.6,1c0.1,0.5,0.1,0.9,0.1,1.4c1-1.1,1.9-2.3,2.7-3.5c0,0-0.1-0.1-0.1-0.1c0-0.2,0.1-0.4,0.2-0.6h0.2
		c0,0.1,0.1,0.1,0.1,0.2c4.2-5.8,7.4-12.4,9.3-19.3l0,0c0.1-0.3,0.1-0.6,0.2-0.9c0,0,0,0,0.1-0.1c3.1-11.5,2.9-23.7-0.6-35.1
		L123.3,45z M28,18.4c-0.2-0.1-0.3-0.3-0.4-0.4c0,0,0.2-0.3,0.3-0.3c0.2,0.1,0.4,0.2,0.6,0.3L28,18.4z M27.9,16.2
		c-0.7,0-1-0.2-1-0.6c0-0.4,0.5-0.8,1.1-0.8c0.5,0,0.5,0.3,0.4,0.7C28.5,16,28.3,16.2,27.9,16.2L27.9,16.2z M28.3,14
		c-0.1-0.1-0.2-0.3-0.2-0.4c0-0.1,0.2-0.3,0.3-0.4l0.3,0.4L28.3,14z M29.5,14.5c0,0-0.1,0-0.1,0.1l-0.2,0.2
		c-0.1-0.1-0.1-0.3-0.2-0.5c0-0.2,0-0.3,0-0.5c0.1-0.2,0.2-0.4,0.4-0.6c0.1-0.1,0.2-0.2,0.3-0.2c0.1,0,0.3,0.2,0.2,0.3
		C29.8,13.7,29.6,14.1,29.5,14.5L29.5,14.5z M31.4,12.8c-0.1,0.2-0.3,0.4-0.3,0.6c0,0.3,0.1,0.5,0.2,0.8l-0.4,0.4
		c-0.1-0.2-0.2-0.3-0.3-0.5c-0.1-0.2,0-0.5-0.1-0.8c-0.1-0.4,0.1-0.7,0.5-0.8c0.1,0,0.3-0.1,0.3,0C31.4,12.5,31.5,12.7,31.4,12.8
		L31.4,12.8z M44.6,7.4L44.2,7l0.4-0.4c0.1,0.1,0.2,0.2,0.2,0.3C44.8,7.1,44.7,7.3,44.6,7.4L44.6,7.4z M51.1,6.6
		c0,0-0.3-0.2-0.2-0.3c0-0.3,0-0.7,0.5-0.7c0.4,0,0.5,0.2,0.5,0.5C51.8,6.4,51.6,6.6,51.1,6.6L51.1,6.6z M55.8,3.2
		c0.1,0.1,0.2,0.2,0.4,0.4l-0.3,0.4c-0.1-0.2-0.2-0.3-0.3-0.5C55.6,3.4,55.7,3.3,55.8,3.2L55.8,3.2z M56.8,5.5
		c-0.2,0.1-0.4,0.3-0.6,0.5c-0.2,0.1-0.3,0.3-0.6,0.5c-0.1-0.6-0.1-1,0.4-1.3c0.2-0.2,0.3-0.4,0.2-0.6c0-0.4,0.2-0.5,0.5-0.4
		c0.2,0.1,0.4,0.4,0.4,0.6C57.2,5.1,57.1,5.3,56.8,5.5C56.8,5.4,56.8,5.5,56.8,5.5L56.8,5.5z M95.9,9.8l0.2,0.7l-0.3,0.1
		c0-0.2-0.1-0.5-0.1-0.7C95.7,9.8,95.8,9.8,95.9,9.8L95.9,9.8z M67.4,4.4c-0.1,0.2-0.2,0.5-0.3,0.7c-0.3-0.2-0.4-0.6-0.2-0.9
		c0-0.1,0.3-0.1,0.5-0.2C67.3,4.1,67.4,4.3,67.4,4.4L67.4,4.4z M67.8,1.3c-0.1-0.1-0.2-0.3-0.3-0.4c0-0.1,0.1-0.2,0.1-0.3h0.2
		C67.9,0.7,68,0.8,68,0.9C68,1.1,67.8,1.2,67.8,1.3L67.8,1.3z M74.5,1.5c0.5,0.2,0.4,0.6,0.4,1C74.3,2.6,74.3,2.5,74.5,1.5L74.5,1.5
		z M77.6,4.1c-0.5,0-0.7-0.2-0.7-0.6c0-0.5,0.3-0.8,0.7-0.9c0.5,0,0.5,0.4,0.5,0.7C78.1,3.7,78.1,4.1,77.6,4.1L77.6,4.1z M78,5.4
		c0.2-0.3-0.1-0.8,0.4-0.9c0.1,0,0.4,0.3,0.4,0.5C78.7,5.4,78.4,5.5,78,5.4L78,5.4z M79.2,6.5l-0.4-0.4l0.5-0.5
		c0.1,0.1,0.3,0.3,0.3,0.3C79.4,6.1,79.3,6.3,79.2,6.5L79.2,6.5z M83.8,5.2c-0.1-0.1-0.2-0.2-0.2-0.3c0-0.2,0.1-0.4,0.2-0.5
		c0.1-0.1,0.3,0.1,0.5,0.1l0,0.2L83.8,5.2z M86.3,7.1c-0.1-0.1-0.1-0.2-0.1-0.4c0.2-0.3,0.4-0.6,0.6-1c0.6,0.6,0.5,1.2-0.1,1.4
		C86.6,7.2,86.4,7.2,86.3,7.1L86.3,7.1z M87,8.3c0.1-0.2,0.3-0.4,0.5-0.6c0.1-0.1,0.4,0,0.6-0.1c0,0.1,0,0.1,0.1,0.2l-0.9,0.6
		L87,8.3z M88,10.5l-0.4-0.4l0.5-0.6c0.1,0.2,0.2,0.4,0.3,0.6C88.4,10.2,88.2,10.3,88,10.5L88,10.5z M88.2,6.5
		c-0.1-0.1-0.3-0.3-0.4-0.4c0-0.1,0.2-0.3,0.3-0.4l0.4,0.5L88.2,6.5z M91.4,12c-0.5,0.1-0.6-0.2-0.6-0.6c0-0.3,0-0.6,0.5-0.7
		c0.4,0,0.8,0.3,0.8,0.7c0,0,0,0,0,0C92.1,12,91.8,12.1,91.4,12L91.4,12z M93.5,13.5c-0.3,0-0.6-0.1-0.6-0.5c0-0.2,0.3-0.4,0.5-0.5
		l0.7,0.7C93.8,13.3,93.7,13.5,93.5,13.5L93.5,13.5z M95.4,13.3l0.5-0.4l-0.4-0.3c0.5-0.2,0.9,0,0.9,0.4c-0.1,0.5,0.2,0.8,0.6,1
		c0.1,0.1,0.2,0.3,0.4,0.6C96.4,14.5,96,13.8,95.4,13.3L95.4,13.3z M101.7,19.7l-0.6,0c0-0.1,0-0.2,0.1-0.4c0.2,0,0.4,0,0.6,0.1
		L101.7,19.7z M101.8,15.8c-0.1,0.3-0.3,0.4-0.5,0.1c-0.3-0.5-1-0.6-1.4-0.3c0,0,0,0,0,0c-0.3,0.2-0.6-0.1-0.5-0.4
		c0.1-0.3,0.2-0.6,0.4-0.9c0.1,0,0.1,0,0.2,0c0.1,0.1,0.1,0.1,0.1,0.2c-0.1,0.2-0.3,0.6,0.1,0.7c0.2,0.1,0.5-0.1,0.8-0.2
		c0.3,0,0.7,0,1,0c0,0,0.1,0.2,0.1,0.3C101.8,15.5,101.8,15.6,101.8,15.8L101.8,15.8z M103.2,17.5c-0.2-0.1-0.5-0.3-0.5-0.4
		c0-0.2,0.2-0.4,0.4-0.7c0.1,0.3,0.3,0.5,0.4,0.8L103.2,17.5z M105.8,23.1l0.7,0.8C105.9,23.9,105.6,23.6,105.8,23.1L105.8,23.1z
		 M107.6,21.3c-0.1-0.2-0.3-0.3-0.3-0.3c0.1-0.2,0.2-0.3,0.3-0.4c0.1,0.1,0.2,0.2,0.2,0.3S107.8,21.1,107.6,21.3L107.6,21.3z
		 M110.2,24.9c0,0.1-0.2,0.2-0.2,0.2c-0.1,0-0.2-0.1-0.3-0.2c-0.1-0.4-0.2-0.8-0.3-1.2C110.3,23.9,110.5,24.3,110.2,24.9L110.2,24.9
		z M111,29.2c-0.6,0.3-1.4,0.3-2,0c-0.1-0.1-0.2-0.2-0.2-0.4c0-0.1,0.2-0.2,0.4-0.2c0.2,0,0.4,0.1,0.6,0.1c0.2,0,0.3-0.1,0.4-0.2
		c0.1-0.1,0.2-0.3,0.3-0.3c0.1,0,0.3,0.1,0.4,0.2c0,0.1-0.1,0.3-0.1,0.5c0,0,0,0.1-0.1,0.1l0.3,0.2C111.1,29.2,111.1,29.2,111,29.2
		L111,29.2z M112.2,27.4c-0.1,0.1-0.2,0.3-0.4,0.3c-0.1,0-0.3-0.1-0.3-0.2c-0.2-0.3-0.4-0.7,0.1-0.9c0.1,0,0.1-0.2,0.2-0.5
		c0.2,0.3,0.4,0.4,0.4,0.6C112.3,26.9,112.3,27.2,112.2,27.4L112.2,27.4z M113.8,26.5c-0.2-0.1-0.4-0.3-0.4-0.4
		c0-0.2,0.2-0.3,0.4-0.5l0.5,0.5C114.1,26.3,113.9,26.5,113.8,26.5L113.8,26.5z M116.4,39.8c-0.1-0.1-0.2-0.3-0.2-0.4
		c0-0.2,0.1-0.3,0.2-0.5l0.5,0.4L116.4,39.8z M117.6,41.3c-0.1-0.1-0.2-0.3-0.3-0.5c0-0.1,0.1-0.2,0.3-0.5c0.1,0.2,0.2,0.5,0.3,0.7
		C117.8,41.2,117.6,41.2,117.6,41.3L117.6,41.3z M119.2,45.4c-0.5-0.5-0.5-0.8,0.1-1C119.3,44.7,119.3,45,119.2,45.4L119.2,45.4z
		 M23.1,19.1c0.1-0.1,0.3-0.1,0.5,0c0.3,0.3,0.5,0.6,0.7,0.9c-0.1,0.2-0.7,0.2-1-0.1C23.1,19.8,22.9,19.3,23.1,19.1L23.1,19.1z
		 M19.7,21.6c0.3-0.3,0.6-0.5,1-0.7c0.1-0.1,0.3-0.2,0.3-0.4c0.2-0.4,0.4-0.9,0.6-1.3c0.1-0.1,0.2-0.1,0.3-0.1
		c0.1,0,0.2,0.1,0.2,0.2c0.1,0.3,0.2,0.6,0.4,1c0.2,0.4,0.1,0.8-0.2,1c-0.2,0.1-0.4,0.1-0.5,0.1c-0.7,0-0.7,0-0.8,0.6
		c-0.1,0.3-0.2,0.6-0.4,0.7c-0.4,0.2-0.9,0.3-1.3,0C19.2,22.4,19.4,22,19.7,21.6L19.7,21.6z M16.7,23.1c0.1,0.2,0.3,0.3,0.3,0.5
		c0,0.1-0.2,0.3-0.4,0.4c0,0-0.2-0.2-0.3-0.4L16.7,23.1z M15.8,24.2c0,0.2,0.1,0.3,0.1,0.5c0,0,0,0.1,0,0.1c0,0.2,0.1,0.6-0.3,0.5
		c-0.2,0-0.3-0.4-0.5-0.7L15.8,24.2z M15.3,30.7l0.4,0.7L15.3,32c-0.1-0.3-0.3-0.6-0.3-0.8C14.9,31,15.1,30.9,15.3,30.7L15.3,30.7z
		 M10.9,29.3c0.1-0.3,0.3-0.7,0.5-1c0.2-0.2,0.5-0.2,0.7,0c0,0,0.1,0.1,0.1,0.1c0.1,0.4,0.4,0.7,0.8,0.7c0.6,0.1,1.1,0.6,1.1,1.2
		c0,0.1,0,0.1,0,0.2c0,0.4-0.1,0.7-0.2,1.1l-0.1,0c-0.2-0.5-0.4-1-0.6-1.5c-0.3-0.5-0.9-0.8-1.5-0.5c-0.1,0-0.1,0.1-0.2,0.1
		c-0.1,0.1-0.3,0.2-0.4,0.3C11,29.8,10.9,29.5,10.9,29.3L10.9,29.3z M6.9,43.2c0-0.2,0.3-0.3,0.4-0.5c0.3,0.4,0.5,0.7,0.8,1.1
		c0,0-0.2,0.2-0.2,0.2C7.2,44,6.8,43.7,6.9,43.2L6.9,43.2z M6.7,46.1c0.2-0.7,0.2-0.7,0.9-0.6c0.4,0,0.8-0.1,1.2-0.2
		c0.1,0.3-0.1,0.6-0.3,0.7c-0.2,0.1-0.3,0.3-0.4,0.5c-0.2,0.3-0.4,0.5-0.8,0.4C6.9,46.8,6.6,46.7,6.7,46.1L6.7,46.1z M0.9,56.1
		C0.9,56,1,56,1.1,56c0.2,0,0.4,0.1,0.6,0.2c0.2,0.1,0.4,0.2,0.4,0.4c0,0.3-0.1,0.5-0.3,0.7c-0.2,0.1-0.4,0-0.5-0.1
		C1.2,56.8,0.5,56.7,0.9,56.1L0.9,56.1z M1.2,68.3l0.4,0.5l-0.3,0.5c-0.1-0.2-0.3-0.4-0.3-0.5C0.9,68.6,1.1,68.5,1.2,68.3L1.2,68.3z
		 M1.5,70.2c0.2,0,0.4,0,0.6,0.1c0,0,0.1,0.2,0,0.3C2,70.6,2,70.7,1.8,70.7c-0.2,0-0.4,0-0.8-0.1C1.2,70.4,1.3,70.3,1.5,70.2
		L1.5,70.2z M2.3,75.9c-0.2-0.1-0.5-0.3-0.5-0.3C1.9,75.3,2,75,2.2,74.8l0.1,0.1V75.9z M2.1,61c-0.1-0.1-0.2-0.3-0.3-0.5
		c0,0,0.1-0.2,0.2-0.2l0.3,0.5L2.1,61z M2.9,58.9c-0.2-0.1-0.4-0.3-0.6-0.5c-0.1-0.1,0.1-0.4,0.1-0.5h0.2L3,58.7L2.9,58.9z
		 M4.9,73.3c0,0.1-0.2,0.2-0.2,0.1c-0.1,0-0.2-0.1-0.2-0.2c0-0.3,0-0.7,0-1l0.2,0C4.9,72.6,5,73,4.9,73.3L4.9,73.3z M5.7,88
		c-0.1,0-0.2-0.2-0.3-0.3c0.1-0.1,0.2-0.3,0.3-0.3s0.2,0.2,0.4,0.3C5.9,87.9,5.8,88,5.7,88L5.7,88z M5.9,75.8
		c-0.1-0.3-0.2-0.5-0.2-0.6c0-0.1,0.2-0.2,0.3-0.3C6,75,6.2,75.1,6.2,75.2S6,75.5,5.9,75.8L5.9,75.8z M5.9,70.1
		C5.8,70,5.9,69.8,6,69.6c0.1,0.1,0.3,0.2,0.4,0.4c0.1,0.2,0.1,0.4,0.1,0.5l-0.2,0.1C6.1,70.5,6,70.3,5.9,70.1L5.9,70.1z M6.6,89.1
		c0-0.1-0.3-0.2-0.3-0.3c0-0.3,0-0.7,0.4-0.7c0.2,0,0.4,0.3,0.4,0.5C7.3,88.9,7.1,89.1,6.6,89.1L6.6,89.1z M7.5,90.4l-0.3,0l0.1-0.7
		c0.1,0,0.2,0,0.3,0C7.5,89.9,7.5,90.1,7.5,90.4L7.5,90.4z M8,89.4c-0.5,0-0.5-0.4-0.5-0.6c-0.1-0.6,0.2-0.7,0.6-0.7
		c0.2,0,0.5,0.3,0.4,0.3C8.4,88.8,8.7,89.4,8,89.4L8,89.4z M8.8,92c0-0.2,0-0.4,0-0.7c-0.1-0.4,0.1-0.5,0.4-0.5
		c0.4,0,0.4,0.2,0.4,0.5C9.6,92.1,9.6,92.1,8.8,92L8.8,92z M10.9,97.1c-0.2-0.2-0.3-0.3-0.4-0.5c0-0.1,0.2-0.2,0.3-0.3
		c0.1,0.1,0.2,0.3,0.3,0.4C11.2,96.8,11,96.9,10.9,97.1L10.9,97.1z M13.3,93.7l-0.1,0c0-0.2,0-0.5,0-0.7c0-0.1,0.2-0.1,0.3-0.2
		c0,0.1,0.1,0.2,0.1,0.3C13.6,93.3,13.5,93.5,13.3,93.7L13.3,93.7z M19.6,103.9l-0.5-0.3c0.2-0.1,0.4-0.2,0.6-0.2
		c0.1,0,0.2,0.1,0.4,0.2L19.6,103.9z M23.3,104.6c-0.5,0.3-1,0.5-1.6,0.8c0-0.4-0.1-0.6-0.1-0.9c-0.3-0.1-0.8,0.1-0.7-0.5l0.9,0.3
		c0.4-0.1,0.8-0.2,1.2-0.2c0.1,0,0.2,0.1,0.3,0.2C23.5,104.4,23.4,104.5,23.3,104.6L23.3,104.6z M26,110.5c-0.1,0-0.3-0.2-0.5-0.3
		l0.5-0.5c0.1,0.2,0.3,0.3,0.4,0.5C26.4,110.2,26.2,110.4,26,110.5L26,110.5z M30.1,110.5l-0.5-0.5c0.2-0.2,0.4-0.4,0.5-0.4
		c0.2,0,0.4,0.3,0.4,0.4C30.4,110.1,30.3,110.3,30.1,110.5L30.1,110.5z M32.6,118.2c-0.2-0.2-0.4-0.4-0.6-0.6
		c-0.1-0.1-0.1-0.2-0.1-0.2c0.1,0,0.1-0.1,0.2-0.1c0.7,0.2,1.2,0.8,1.2,1.5C33.1,118.5,32.8,118.4,32.6,118.2L32.6,118.2z
		 M33.1,117.2l-0.4-0.5l0.4-0.5c0.1,0.2,0.3,0.4,0.3,0.6C33.4,116.9,33.2,117.1,33.1,117.2L33.1,117.2z M35.4,115.2
		c0-0.1,0.2-0.3,0.3-0.3s0.3,0.2,0.5,0.3l-0.4,0.4C35.6,115.5,35.5,115.4,35.4,115.2L35.4,115.2z M36.4,119.4
		c-0.1-0.1-0.3-0.3-0.3-0.4s0.2-0.3,0.4-0.6c0.2,0.3,0.4,0.5,0.4,0.6C36.7,119.2,36.5,119.3,36.4,119.4L36.4,119.4z M38,115.6
		c-0.1,0-0.2-0.2-0.2-0.3c0-0.1,0.1-0.2,0.3-0.3c0.1,0,0.2,0.1,0.4,0.3C38.4,115.4,38.2,115.5,38,115.6L38,115.6z M47.1,121l-0.2,0
		c0-0.2-0.1-0.5-0.1-0.7C47.3,120.3,47.3,120.4,47.1,121L47.1,121z M50.8,119.3l0.3,0.4c-0.1,0.1-0.3,0.3-0.4,0.3
		c-0.1,0-0.2-0.2-0.3-0.3L50.8,119.3z M51.4,125.3c-0.1,0-0.2-0.3-0.3-0.6l0.5-0.7c0.1,0.2,0.2,0.5,0.2,0.8
		C51.8,125.1,51.7,125.4,51.4,125.3L51.4,125.3z M51.9,122.2c-0.5,0.2-0.9,0.6-0.9,1.2c0,0.1-0.5,0.2-0.7,0.2
		c-0.2-0.1-0.4-0.3-0.4-0.5c0-0.2,0.3-0.5,0.4-0.7c0.1-0.3,0.2-0.6,0.2-0.9c0.5,0.4,0.8,0.4,1.2,0c0,0,0.3,0.1,0.3,0.1
		C52,121.8,52,122.2,51.9,122.2L51.9,122.2z M53,123.7c-0.1-0.1-0.3-0.2-0.4-0.4c0-0.1,0.1-0.3,0.2-0.5l0.2,0
		c0.1,0.2,0.2,0.4,0.2,0.6C53.3,123.5,53.1,123.6,53,123.7L53,123.7z M54.5,122c0.1-0.4,0.2-0.6,0.3-0.8l0.2,0.1
		C55.1,121.6,55.2,121.9,54.5,122L54.5,122z M59.7,125.9L59,125c0,0-0.1-0.1-0.1-0.1c0-0.3,0-0.6,0-0.9c0,0,0.2-0.1,0.2-0.1
		c0.2,0.2,0.4,0.4,0.5,0.6C59.7,125,59.7,125.5,59.7,125.9L59.7,125.9z M60.8,124.8c0.2-0.1,0.5-0.2,0.7-0.3c0.2,0,0.3,0,0.4,0.1
		c0.1,0.2,0.2,0.3,0.3,0.5C61.6,125.4,61,125.2,60.8,124.8L60.8,124.8z M70.1,124c-0.6,0-1.2-0.3-1.5-1c-0.1-0.1-0.2-0.3-0.3-0.3
		c-0.4-0.3-0.8-0.6-1.3-0.8c0.6-0.6,1.4-0.7,2.1-0.3c0.1,0,0.2,0.5,0.2,0.7c0.3,0.4,0.7,0.9,1,1.4C70.4,123.7,70.3,124,70.1,124
		L70.1,124z M73.1,120.5c-0.1-0.1-0.3-0.3-0.4-0.5l0.3-0.2l0.5,0.5C73.3,120.3,73.1,120.5,73.1,120.5L73.1,120.5z M89,120
		c-0.1,0.1-0.3,0.1-0.4,0.1c-0.2-0.1-0.4-0.3-0.5-0.4c0,0,0-0.1,0-0.1c0.2,0,0.5,0,0.7,0c0.1,0,0.3,0.1,0.4,0.2
		C89.1,119.7,89.1,119.9,89,120L89,120z M98.9,111.8c-0.1-0.3-0.1-0.6-0.1-0.8l0.2,0c0.1,0.3,0.1,0.6,0.2,0.9
		C99.1,111.8,98.9,111.8,98.9,111.8L98.9,111.8z M105.8,102.9c0.5,0,0.4,0.5,0.6,0.8c-0.4,0.1-0.7,0.1-0.8-0.3
		C105.6,103.2,105.7,102.9,105.8,102.9L105.8,102.9z M107.3,107.1c-0.2,0.3-0.7,0.4-1,0.2c-0.1-0.1-0.2-0.2-0.2-0.3
		c-0.3-0.6-0.7-1.2-1-1.7c-0.2-0.3,0-0.5,0.2-0.7c0.2-0.2,0.4-0.1,0.5,0.1c0.3,0.7,0.6,1.4,1,2.2c0.2-0.2,0.5-0.7,1-0.3
		C107.7,106.6,107.5,106.9,107.3,107.1L107.3,107.1z M108.3,101.8c-0.1,0-0.2,0-0.2,0c-0.5-0.5-0.6-0.1-0.7,0.3
		c-0.1,0.2-0.1,0.3-0.2,0.5l-0.3-0.1c0.2-0.4,0.3-0.8,0.5-1.2c0-0.1,0.2-0.1,0.3,0c0.2,0.1,0.4,0.3,0.6,0.4
		C108.4,101.7,108.4,101.8,108.3,101.8L108.3,101.8z M112.7,92.5c0.1,0.2,0.3,0.4,0.2,0.4c-0.2,0.2-0.3,0.3-0.5,0.5
		c-0.1-0.1-0.3-0.3-0.2-0.3C112.3,92.9,112.5,92.7,112.7,92.5L112.7,92.5z M113,99.6c-0.1,0.5-0.5,0.5-1,0.5
		c-0.6,0.1-1.2-0.3-1.5-0.8c-0.1-0.2-0.1-0.4,0.1-0.6c0,0,0.1,0,0.1,0c0.1-0.1,0.3-0.1,0.4-0.2c0.9-0.4,1-0.5,1.7,0.3
		C113,99.1,113.1,99.4,113,99.6L113,99.6z M115.6,94.4c-0.1,0-0.3-0.2-0.3-0.3s0.2-0.2,0.3-0.3l0.4,0.4
		C115.8,94.3,115.7,94.4,115.6,94.4L115.6,94.4z M117,88.9l-0.4-0.5c0.1-0.1,0.2-0.3,0.3-0.3c0.2,0.1,0.3,0.2,0.5,0.4L117,88.9z
		 M118.2,94.4l-0.2-0.1v-0.7l0.2-0.1c0.1,0.1,0.2,0.3,0.2,0.4S118.3,94.2,118.2,94.4L118.2,94.4z M118.4,92.8
		c-0.1,0-0.2-0.2-0.3-0.3c0.1-0.1,0.2-0.2,0.3-0.3s0.2,0.1,0.5,0.2C118.6,92.6,118.5,92.8,118.4,92.8L118.4,92.8z M123.4,59.6
		c0,0-0.1,0.3-0.3,0.3c-0.3,0.1-0.9-0.4-0.8-0.7c0-0.1,0.3-0.3,0.4-0.3C123.4,58.9,123.4,58.9,123.4,59.6L123.4,59.6z M122.1,42.9
		c0.1,0,0.3,0.2,0.5,0.3c-0.2,0.2-0.4,0.4-0.5,0.4c-0.2-0.1-0.3-0.2-0.3-0.4C121.8,43.1,122,42.9,122.1,42.9L122.1,42.9z
		 M119.5,50.5c0.3-0.3,0-0.9,0.6-0.8c0.2,0,0.4,0.3,0.4,0.4C120.5,50.6,120.1,50.6,119.5,50.5L119.5,50.5z M120.9,68l-0.4-1.3
		l0.1-0.1c0.2,0.1,0.4,0.2,0.5,0.3C121.4,67.3,121.3,67.6,120.9,68L120.9,68z M121.3,62.3c0-0.1,0.1-0.3,0.2-0.4
		c0.1,0.1,0.3,0.2,0.3,0.3c0,0.4,0.4,0.8,0.8,0.9c0.1,0,0.3,0.3,0.3,0.4c-0.1,0.2-0.3,0.4-0.4,0.6c-0.2-0.2-0.5-0.4-0.7-0.7
		C121.6,63,121.5,62.7,121.3,62.3L121.3,62.3z M122.3,73.4c-0.1,0-0.3-0.1-0.3-0.2c0-0.3,0-0.5,0-0.8l0.2,0c0.1,0.3,0.2,0.5,0.3,0.8
		C122.5,73.3,122.4,73.5,122.3,73.4L122.3,73.4z M122.8,66.7c-0.1-0.2-0.4-0.3-0.4-0.5c0-0.3,0.2-0.6,0.5-0.6c0,0,0,0,0.1,0
		c0.1,0,0.3,0.2,0.4,0.3L122.8,66.7z M125.7,64.7l-0.4,0.4c-0.1-0.1-0.4-0.3-0.3-0.4c0-0.2,0.2-0.3,0.4-0.5L125.7,64.7z M124.5,60.5
		c0.2,0,0.4,0.1,0.6,0.2c0.2,0.2,0.3,0.4,0,0.8l-0.7-0.8L124.5,60.5z"/>
	<g id="Group_407" transform="translate(24.841 24.535)">
		<path id="Path_711" class="st0" d="M18.6,10.5c0,0.1,0.1,0.2,0.2,0.3l0.5-0.6l-0.4-0.3C18.8,10.1,18.7,10.3,18.6,10.5z"/>
		<path id="Path_712" class="st0" d="M11.5,66.2c0.1-0.1,0.2-0.2,0.4-0.2c0.6,0,0.8,0.3,0.8,1c0,0.1,0,0.3-0.1,0.4
			c2.3,2.1,4.8,3.9,7.5,5.3c-0.1-0.3-0.1-0.7,0.5-0.6c0,0.3,0,0.6,0,0.9c0.7,0.3,1.3,0.7,2,1c0-0.1,0.1-0.2,0.1-0.3
			c0.1-0.2,0.4-0.3,0.6-0.5c0.1-0.1,0.3-0.2,0.4-0.2c-0.1-0.1-0.3-0.2-0.4-0.2c-0.1,0-0.1-0.1-0.3-0.1c0.4-0.5,1.1-0.2,1.5,0.6
			c0,0,0,0.1,0,0.1c-0.7,0.1-0.8,0.5-0.8,1.1c1.9,0.8,3.8,1.4,5.8,1.9c-0.1-0.1-0.2-0.2-0.2-0.3c-0.1-0.2-0.1-0.4-0.2-0.7
			c0.1-0.1,0.2-0.3,0.4-0.4c0.1,0,0.3,0.1,0.4,0.2c0.1,0.1,0.2,0.3,0.3,0.4c0.2,0.2,0.2,0.5-0.1,0.6c-0.1,0-0.2,0.1-0.3,0.1
			c2.9,0.7,5.8,1,8.8,1c5.8,0,11.6-1.3,16.8-3.8c-0.3-0.1-0.6-0.2-0.8-0.3c-0.2-0.1-0.3-0.1-0.5-0.2c0.1-0.2,0.2-0.4,0.4-0.6
			c0.1-0.1,0.3-0.1,0.3-0.1c0.8,0,1.2,0.3,1.3,0.8c0,0,0,0,0,0c1.8-0.9,3.6-2,5.3-3.2l0-0.1l0.3-0.5c0,0.1,0.1,0.2,0.1,0.3
			c0.7-0.5,1.3-1,2-1.6c-0.4-0.1-0.7-0.5-0.6-1c0.1-0.1,0.2-0.3,0.4-0.4c0.3-0.1,0.7,0.5,0.7,0.9c0.6-0.5,1.2-1.1,1.7-1.6
			c0.3-0.3,0.6-0.6,0.9-1c0-0.1,0-0.1-0.1-0.2c0,0,0.1-0.1,0.2-0.1c0,0,0,0.1,0,0.1c12-13.1,13.6-32.7,3.8-47.5h0
			c-0.2,0-0.3-0.2-0.5-0.3c0-0.1,0-0.2,0-0.2c0,0,0,0,0.1,0c-1.3-1.9-2.8-3.7-4.5-5.4C55.3,0.6,39.2-2.9,24.9,2.5l-0.1,0.1
			c-0.2,0.3-0.3,0.6-0.4,0.9c-0.1,0.1-0.1,0.2-0.2,0.3c-0.1-0.1-0.1-0.2-0.2-0.3l0.1-0.1c0-0.2-0.1-0.4-0.1-0.5
			c-0.6,0.3-1.3,0.5-1.9,0.8c0.3,0,0.4,0.2,0.3,0.5c0,0.3,0,0.7,0.1,1c0,0.2,0.1,0.4,0,0.5c-0.1,0.1-0.3,0.1-0.5,0.1
			c-0.2,0-0.4,0-0.6-0.1c-0.2,0.5-0.1,1,0.1,1.4c0.4,0.5,0.2,0.9-0.4,1.1c-0.7,0.2-1.2,0.7-1.3,1.4c-0.1,0.6-0.1,1.2-0.7,1.6
			c-0.1,0.1-0.1,0.2,0,0.3c0.2,0.3,0,0.5-0.3,0.6c-0.2,0-0.4,0-0.6-0.1c-0.4-0.2-0.8-0.4-0.5-0.9c-0.9-0.3-1-0.3-1.5,0.4
			c-0.1,0.1-0.2,0.1-0.4,0.2c0-0.1-0.1-0.2-0.1-0.4c0.1-0.6,0.3-1.2,0.5-2.1c0.1,0.3,0.2,0.5,0.3,0.7c0.1,0.2,0.2,0.3,0.3,0.5
			c0.2-0.1,0.5-0.2,0.5-0.3c0.3-0.9,0.8-1.7,1.6-2.4c0.4-0.4,0.4-0.7-0.2-0.9c-0.1,0-0.3-0.1-0.4-0.2c-0.1-0.1-0.3-0.3-0.3-0.4
			c0.1-0.2,0.2-0.4,0.4-0.5c0.1,0,0.3,0.2,0.5,0.3c0.1,0.1,0.2,0.2,0.2,0.3c0.1-0.1,0.1-0.2,0.2-0.3c0.2-0.2,0.3-0.5,0.5-0.6
			c0.3-0.1,0.4-0.2,0.4-0.6c0-0.1,0.2-0.4,0.3-0.4c0.2,0,0.3,0.2,0.5,0.3c0.1,0.1,0.2,0.2,0.3,0.2c0,0,0.2-0.1,0.2-0.1
			c0-0.1-0.1-0.2-0.1-0.4c-0.1-0.2-0.1-0.4-0.2-0.5c0,0,0,0,0,0c-3.8,1.9-7.3,4.4-10.4,7.4c-0.8,0.8-1.5,1.6-2.2,2.4l0.5,0.7
			l-0.8,0.2c0-0.2,0-0.4,0.1-0.6C-3.8,29.4-2.8,51.9,11.4,66.1C11.4,66.1,11.5,66.2,11.5,66.2z M72.5,41.2c-0.5,0-0.6-0.3-0.7-0.7
			c0.4-0.1,0.8-0.1,0.9,0.3C72.7,40.9,72.6,41.2,72.5,41.2z M73.2,54.6c-0.1,0-0.3-0.2-0.5-0.4l0.5-0.5c0.1,0.2,0.3,0.3,0.4,0.5
			C73.6,54.4,73.4,54.6,73.2,54.6L73.2,54.6z M73.4,28.4c0,0-0.2-0.2-0.2-0.2c0.1-0.2,0.2-0.3,0.3-0.5c0.1,0.2,0.3,0.4,0.3,0.4
			C73.7,28.2,73.6,28.3,73.4,28.4L73.4,28.4z M75.1,27c0.2,0.2,0.4,0.3,0.5,0.4c0.1,0.2,0.1,0.4,0.2,0.6c0,0-0.2,0.1-0.3,0.1
			c-0.2-0.1-0.3-0.3-0.4-0.5C75,27.5,75.1,27.3,75.1,27L75.1,27z M74.7,39.3c0.1,0,0.2,0.2,0.4,0.2l-0.7,0.6
			c-0.1-0.2-0.3-0.3-0.3-0.4C74.1,39.3,74.4,39.2,74.7,39.3L74.7,39.3z M74.6,46.2l-0.4,0.3c-0.1-0.1-0.2-0.3-0.3-0.4
			c0-0.1,0.1-0.2,0.2-0.3L74.6,46.2z M73.9,26.9l-0.5,0.4l-0.2-0.2c0.1-0.1,0.3-0.3,0.4-0.4C73.7,26.7,73.8,26.9,73.9,26.9
			L73.9,26.9z M73.2,22.7c0.1,0.2,0.4,0.3,0.4,0.5c0.1,0.3,0,0.6-0.3,0.7c0,0-0.1,0-0.1,0c-0.1-0.4-0.1-0.8-0.1-1.1L73.2,22.7z
			 M71.5,23.2c0.1-0.1,0.2-0.1,0.3-0.1c0.1,0.1,0.2,0.2,0.3,0.3c0.1,0.2,0,0.4,0.1,0.6c0.1,0.3,0.3,0.5,0.7,0.3
			c0.2-0.1,0.5-0.2,0.5,0.1c0.1,0.3,0,0.5-0.1,0.8c-0.4,0.2-0.9,0.1-1.2-0.3c-0.2-0.5-0.4-0.9-1.1-0.8
			C71.2,23.8,71.4,23.5,71.5,23.2L71.5,23.2z M19.1,66.5c-0.3,0.5-0.6,0.9-0.9,1.3c-0.3,0.3-0.7,0.5-1.1,0.8l-0.1-0.1
			c-0.2,0-0.4-0.1-0.6-0.2c-0.2-0.1-0.3-0.3-0.1-0.6c0.2-0.3,0.3-0.5,0.3-0.8c0.1-0.7,0.2-1.4,0.4-2.1c0.1-0.3,0.4-0.5,0.7-0.4
			c0.1,0,0.1,0,0.2,0.1c0.3,0.3,0.7,0.5,1,0.8C19.4,65.6,19.5,65.9,19.1,66.5L19.1,66.5z M23.6,69.3c-0.1-0.1-0.3-0.1-0.3-0.3
			c0-0.2-0.1-0.4,0-0.6c0,0,0.1-0.1,0.2-0.1c0.1,0,0.1,0.1,0.1,0.2c0.1,0.2,0.1,0.4,0.1,0.7L23.6,69.3z M29.6,74.6
			c-0.4,0-0.5-0.3-0.5-0.7c0.1-0.3,0.4-0.6,0.8-0.6c0.2,0,0.3,0.2,0.4,0.3C30.1,74.1,30.2,74.6,29.6,74.6L29.6,74.6z M32.7,74.3
			c-0.2-0.2-0.4-0.4-0.5-0.6c-0.1-0.1-0.1-0.3,0-0.4c0.1-0.2,0.2-0.3,0.4-0.5c0.2,0.1,0.3,0.3,0.4,0.4c0.1,0.1,0,0.2,0,0.4l0.1,0.1
			L32.7,74.3z M32.2,71.4c0.1-0.1,0.2-0.3,0.3-0.4c0,0.2,0.1,0.3,0.1,0.5c0,0.1,0,0.1,0,0.2c-0.1,0.1-0.2,0.3-0.2,0.4l-0.2-0.3
			C32.2,71.6,32.2,71.5,32.2,71.4L32.2,71.4z M34.8,71.8c-0.1,0-0.2-0.2-0.4-0.2c0.1-0.1,0.2-0.4,0.4-0.4c0.1,0,0.3,0.1,0.6,0.3
			C35.1,71.6,34.9,71.8,34.8,71.8L34.8,71.8z M36.6,75.9c-0.1,0-0.3-0.2-0.3-0.3c0.1-0.2,0.2-0.3,0.3-0.4l0.5,0.4
			C36.9,75.7,36.8,75.9,36.6,75.9L36.6,75.9z M43.9,73.2c-0.2,0-0.5,0.1-0.7,0.1l0-0.3l0.7-0.1C43.9,73,43.9,73.1,43.9,73.2
			L43.9,73.2z M44.6,72.9c-0.1-0.1-0.2-0.2-0.3-0.3c0,0,0.2-0.2,0.2-0.2c0.2,0.1,0.3,0.2,0.5,0.3C44.8,72.7,44.7,72.9,44.6,72.9
			L44.6,72.9z M47.9,76c-0.2,0-0.3-0.2-0.4-0.3c-0.2-0.3-0.4-0.5-0.6-0.7c-0.4-0.2-0.5-0.7-0.3-1c0,0,0,0,0,0
			c0.2-0.2,0.8-0.1,0.9,0.3c0.1,0.4,0.3,0.6,0.7,0.8c0.2,0.1,0.2,0.3,0.3,0.5C48.5,75.9,48.2,76,47.9,76L47.9,76z M52.5,69.9
			c0.1,0.3,0.2,0.5,0.4,0.9C52.2,70.6,52.3,70.3,52.5,69.9L52.5,69.9z M53.9,70.8L53.6,71c0-0.1-0.1-0.3-0.1-0.4
			c0.1-0.1,0.2-0.2,0.3-0.3c0.1,0,0.2,0.2,0.3,0.3C54.1,70.6,54,70.7,53.9,70.8L53.9,70.8z M54.4,71.8l-0.3-0.4l0.3-0.3
			c0.1,0.1,0.2,0.3,0.2,0.4C54.7,71.5,54.5,71.7,54.4,71.8L54.4,71.8z M59.1,68.2c-0.1,0-0.3-0.2-0.3-0.3c0.1-0.1,0.2-0.3,0.3-0.3
			c0.3,0,0.6,0.1,0.7,0.6C59.6,68.3,59.4,68.3,59.1,68.2L59.1,68.2z M69.6,55.8c-0.1,0.1-0.3,0.3-0.4,0.3c-0.5-0.2-0.4-0.7-0.5-1
			c0-0.3,0.1-0.4,0.4-0.4c0.4,0,0.6,0.3,0.6,0.7C69.7,55.5,69.7,55.7,69.6,55.8L69.6,55.8z M70.6,50.6c-0.3,0-0.7-0.1-1-0.2
			c-0.1,0,0-0.4,0-0.6l1.1,0.7L70.6,50.6z M70.7,27.5L70.4,28c-0.1-0.1-0.3-0.3-0.3-0.4c0-0.2,0.2-0.3,0.3-0.5L70.7,27.5z
			 M70.3,19.3l0.2,0.1c0,0.4-0.2,0.5-0.7,0.6L70.3,19.3z M67.1,16.5c0.2-0.2,0.5-0.2,0.7,0.2l-0.7,0.1C67.1,16.7,67,16.5,67.1,16.5
			L67.1,16.5z M68.1,21.2c-0.4,0.2-0.7,0.2-0.7-0.2c0-0.2,0.1-0.4,0.2-0.6L68.1,21.2z M60.2,8.3c0.6-0.3,1.1-0.3,1.4,0.1
			c0.5,0.6,0.7,1.3,0.7,2.1c0,0.4-0.3,0.6-0.7,0.6c-0.4,0-0.9-0.1-1.3-0.1c-0.3,0-0.3-0.2-0.1-0.4c0.3-0.4,0.6-0.9,1-1.3
			c-0.5-0.5-0.5-0.5-1.4,0.1C59.6,8.9,59.8,8.4,60.2,8.3L60.2,8.3z M56.8,7.2l0.4,0.5C57,7.8,56.9,8,56.7,8c-0.1,0-0.3-0.2-0.3-0.2
			C56.5,7.5,56.6,7.4,56.8,7.2L56.8,7.2z M55.1,5.8c0.1,0.2,0.2,0.4,0.3,0.5c0,0.1-0.2,0.2-0.2,0.4l-0.4-0.5L55.1,5.8z M53.1,4.5
			l0.1,0.9L53,5.4c-0.1-0.2-0.1-0.5-0.2-0.7C52.8,4.6,53,4.5,53.1,4.5L53.1,4.5z M48,3.4c0.2,0.2,0.4,0.4,0.6,0.7
			c-0.3,0.2-0.5,0.4-0.6-0.1c-0.1-0.1-0.1-0.2-0.2-0.4c0-0.1-0.1-0.2-0.1-0.3C47.8,3.3,47.9,3.3,48,3.4L48,3.4z M43.7,5.8
			C43.8,5.9,44,6.1,44,6.2c-0.1,0.2-0.3,0.5-0.5,0.7c-0.1-0.3-0.3-0.4-0.3-0.5C43.4,6.2,43.5,6,43.7,5.8L43.7,5.8z M35.8,2l0.4,0.3
			l-0.4,0.4c-0.1-0.1-0.3-0.2-0.3-0.3C35.5,2.3,35.7,2.2,35.8,2L35.8,2z M29.5,1.9c0,0.2-0.2,0.5-0.3,0.5c-0.6,0-0.5-0.5-0.6-0.9
			C29.1,1.4,29.5,1.5,29.5,1.9L29.5,1.9z M25.6,4.6c0-0.1,0.4-0.2,0.6-0.2c0.2,0.1,0.5,0.2,0.6,0.5c0.1,0.3,0,0.7-0.4,0.9
			c-0.1,0-0.1,0-0.2,0c-0.2,0-0.4,0.1-0.7,0.2C25.5,5.5,25.6,5,25.6,4.6L25.6,4.6z M26.1,8.3c0.1,0.1,0.2,0.3,0.2,0.4
			c-0.2,0.2-0.5,0.4-0.7,0.6c0,0-0.2-0.2-0.3-0.3L26.1,8.3z M24.3,4.5c0,0.3,0,0.6,0,0.8c0,0.1-0.1,0.1-0.2,0.2c0,0-0.1,0-0.2-0.1
			C23.8,5.3,24.1,4.7,24.3,4.5L24.3,4.5z M22.5,9c0.1,0,0.3,0,0.4,0.1c0.2,0.2,0.4,0.4,0.6,0.1c0.1-0.2,0-0.4-0.1-0.7
			c-0.1-0.3-0.3-0.5-0.4-0.8c-0.1-0.4,0.1-0.6,0.5-0.5c0.3,0.1,0.7-0.1,0.8-0.4c0.1-0.1,0.4-0.1,0.6-0.2c0,0,0.1,0.2,0.1,0.2
			C25.1,7,25,7,24.9,7.1c-0.3,0.1-0.5,0.2-0.3,0.6c0.3,0.7,0.1,1.5-0.6,1.8c-0.1,0-0.1,0.1-0.2,0.1c-0.4,0.1-0.8,0.4-0.9,0.8
			c-0.1,0.2-0.4,0.3-0.6,0.5l-0.1-0.1c0.2-0.3,0-0.9,0.5-1.2C22.8,9.6,22.6,9.2,22.5,9L22.5,9z M18.1,12.4c0.1,0.2,0.2,0.4,0.2,0.5
			c0,0.1-0.2,0.2-0.3,0.2c-0.1,0-0.3-0.2-0.2-0.3C17.8,12.7,17.9,12.6,18.1,12.4L18.1,12.4z M13.1,12.2c0.2,0.1,0.4-0.1,0.7-0.1
			c0.2,0,0.5,0.1,0.5,0.2c0.1,0.3,0.1,0.5,0,0.8c0,0-0.1,0.1-0.2,0.1c-0.1,0-0.2-0.1-0.2-0.2c-0.1-0.2-0.2-0.3-0.3-0.5
			c-0.1,0.2-0.2,0.3-0.3,0.4c-0.1,0.1-0.3,0.2-0.3,0.2c-0.1-0.1-0.2-0.2-0.3-0.4C12.6,12.3,12.6,12,13.1,12.2L13.1,12.2z M7.8,24.4
			c0.1,0,0.2,0.1,0.2,0.2c0,0.3-0.1,0.7-0.2,1l-0.2,0c-0.1-0.3-0.1-0.6-0.1-0.9C7.6,24.6,7.7,24.4,7.8,24.4L7.8,24.4z M3.4,45.9
			l0.3,0.3l-0.4,0.4c-0.1-0.1-0.2-0.2-0.2-0.3C3.2,46.1,3.3,46,3.4,45.9L3.4,45.9z M4.6,48.2c-0.2,0.1-0.5,0.2-0.5,0.3
			c0,0.7-0.4,0.7-1,0.6c0-0.4,0-0.6,0.4-0.7c0.3-0.1,0.4-0.3,0.5-0.7c0.1-0.3,0.1-0.7,0.3-1c0.1-0.2,0.1-0.5,0.2-0.7
			c0.1-0.1,0.1-0.2,0.2-0.3c0.1,0.1,0.2,0.2,0.1,0.3c0,0.5-0.2,1-0.2,1.4c0,0.2,0.2,0.4,0.4,0.7C4.9,48.2,4.7,48.2,4.6,48.2
			L4.6,48.2z M3.8,34.1c0.1-0.2,0.3-0.4,0.4-0.6l0.6,0.6c-0.3,0.2-0.4,0.5-0.6,0.5C3.8,34.7,3.7,34.4,3.8,34.1L3.8,34.1z M5.2,39.5
			l-1,0.5c0-0.3,0-0.8,0.1-0.8c0.3,0,0.6,0,0.9,0.1C5.2,39.4,5.2,39.4,5.2,39.5L5.2,39.5z M4.8,25.5c0,0.1,0.3,0.2,0.4,0.4
			c0.1,0.1,0.2,0.3,0.2,0.5c0,0.1-0.2,0.2-0.3,0.2c-0.1-0.1-0.3-0.2-0.4-0.3c-0.2-0.2-0.4-0.3-0.5-0.5s-0.4-0.3-0.5-0.4
			c0.1-0.8,0.1-1.7,0.4-2.1c0.3-0.4,0.5-0.9,0.5-1.4c0-0.1,0.3-0.3,0.4-0.3c0.2,0,0.5,0.2,0.5,0.2c0.1,0.3,0,0.7-0.2,1
			C4.9,23.6,4.7,24.5,4.8,25.5L4.8,25.5z M5.1,19.4c0.5-0.4,1-0.2,1.5,0.5C6,20.1,5.7,19.5,5.1,19.4L5.1,19.4z M15.9,16
			C26.4,5.5,42.7,3.5,55.4,11.2l0.2,0l0,0.2c1.4,0.9,2.8,1.9,4,3c0.1,0,0.2,0,0.3,0c0.1,0,0.1,0.2,0.2,0.4h0
			c0.4,0.4,0.9,0.8,1.3,1.2c1.8,1.8,3.4,3.8,4.7,6c0-0.1,0.1-0.3,0.2-0.5c0.2,0.3,0.4,0.4,0.5,0.5c0,0.4,0.3,0.6,0.7,0.7
			c0.5,0.1,1,0.2,1.5,0.2c0.1,0,0.2,0,0.3,0.1s0,0.2-0.1,0.3c-0.1,0.2-0.2,0.3-0.3,0.5c-0.1,0.1-0.3,0.2-0.4,0.2
			c-0.2,0-0.3-0.2-0.3-0.3c0-0.5-0.3-0.6-0.8-0.6c-0.2,0-0.4,0-0.6-0.1c0.3,0.6,0.6,1.1,0.9,1.7c0,0,0.1,0.1,0.1,0.2c0,0,0,0,0,0
			c1,2,1.7,4.1,2.2,6.3c0.1,0,0.2,0.1,0.3,0.2c0.1,0,0.1,0.2,0.1,0.3c-0.1,0-0.2,0.1-0.3,0.1c0.5,2.4,0.8,4.8,0.8,7.2
			c0,17.8-14.4,32.2-32.2,32.2c-1.5,0-3-0.1-4.5-0.3l-0.2,0l0-0.1c-17.6-2.6-29.7-19-27.1-36.6C7.9,27.1,11.1,20.8,15.9,16L15.9,16z
			 M9.2,54.7C9,54.5,8.8,54.2,8.7,54l0.1,0l1,0.6C9.6,54.6,9.3,54.8,9.2,54.7L9.2,54.7z"/>
	</g>
</g>
</svg>
