<svg xmlns="http://www.w3.org/2000/svg" width="151.327" height="153.997" viewBox="0 0 151.327 153.997">
  <g id="Group_409" data-name="Group 409" transform="matrix(0.966, -0.259, 0.259, 0.966, -0.007, 31.775)">
    <g id="Group_401" data-name="Group 401">
      <g id="Group_395" data-name="Group 395" transform="translate(28.877 54.31)">
        <path id="Path_667" data-name="Path 667" d="M2805.1,1970.646v4.022h7.044v2.826H2805.1v5.544h-3.522V1967.82h11.5v2.826Z" transform="translate(-2801.573 -1966.907)"/>
        <path id="Path_668" data-name="Path 668" d="M2843.219,1983.039l-2.935-4.24h-3.239v4.24h-3.522V1967.82h6.588a8.461,8.461,0,0,1,3.511.674,5.218,5.218,0,0,1,2.293,1.913,5.271,5.271,0,0,1,.8,2.935,4.956,4.956,0,0,1-3.131,4.8l3.414,4.892Zm-.891-11.664a3.694,3.694,0,0,0-2.413-.686h-2.87V1976h2.87a3.657,3.657,0,0,0,2.413-.7,2.742,2.742,0,0,0,0-3.924Z" transform="translate(-2819.63 -1966.907)"/>
        <path id="Path_669" data-name="Path 669" d="M2882.056,1980.212v2.826h-11.784V1967.82h11.5v2.826h-8v3.3h7.066v2.74h-7.066v3.522Z" transform="translate(-2840.4 -1966.907)"/>
        <path id="Path_670" data-name="Path 670" d="M2915.6,1980.212v2.826h-11.784V1967.82h11.5v2.826h-8v3.3h7.066v2.74h-7.066v3.522Z" transform="translate(-2859.361 -1966.907)"/>
        <path id="Path_671" data-name="Path 671" d="M2940.371,1970.026l2.37,1.282-1.066,1.783-2.391-1.413.044,2.631h-2.044l.022-2.652-2.391,1.434-1.044-1.783,2.37-1.282-2.37-1.3,1.044-1.783,2.391,1.435-.022-2.652h2.044l-.044,2.652,2.391-1.435,1.066,1.783Z" transform="translate(-2876.344 -1965.721)"/>
      </g>
      <g id="Group_396" data-name="Group 396" transform="translate(33.007 12.153)">
        <path id="Path_672" data-name="Path 672" d="M2816.629,1881.338a3.021,3.021,0,0,1,2.995,1.717,3.171,3.171,0,0,1,.385,1.779,3.068,3.068,0,0,1-.687,1.655,5.142,5.142,0,0,1-1.683,1.329l-1.63.852,1.166,2.231-1.873.979-4.23-8.092,3.5-1.831A5.067,5.067,0,0,1,2816.629,1881.338Zm1.2,3.972a1.432,1.432,0,0,0-.1-1.264,1.45,1.45,0,0,0-.987-.817,2.224,2.224,0,0,0-1.473.307l-1.526.8,1.469,2.809,1.525-.8A2.214,2.214,0,0,0,2817.83,1885.309Z" transform="translate(-2811.072 -1875.869)" fill="#d9b771"/>
        <path id="Path_673" data-name="Path 673" d="M2832.7,1875.812l1.994-.7,3.031,8.614-1.993.7Z" transform="translate(-2823.293 -1872.354)" fill="#d9b771"/>
        <path id="Path_674" data-name="Path 674" d="M2847.987,1879.5a4.513,4.513,0,0,1-2.062-1.315,4.9,4.9,0,0,1-.926-4.776,4.526,4.526,0,0,1,1.422-1.99,5.268,5.268,0,0,1,2.374-1.078,5.333,5.333,0,0,1,2.186,0,4.311,4.311,0,0,1,1.812.872l-1.094,1.488a2.918,2.918,0,0,0-2.458-.613,3.045,3.045,0,0,0-1.415.653,2.641,2.641,0,0,0-.821,1.215,3.262,3.262,0,0,0,.576,2.971,2.651,2.651,0,0,0,1.215.82,3.052,3.052,0,0,0,1.557.077,2.9,2.9,0,0,0,2.047-1.5l1.57.971a4.235,4.235,0,0,1-1.357,1.5,5.369,5.369,0,0,1-2.033.819A5.244,5.244,0,0,1,2847.987,1879.5Z" transform="translate(-2830.095 -1869.593)" fill="#d9b771"/>
        <path id="Path_675" data-name="Path 675" d="M2872.319,1874.359l-1.243,1.262-.032,2.308-2.1-.029.126-9.13,2.1.029-.059,4.265,4.1-4.209,2.349.033-3.839,4.017,3.934,5.116-2.464-.034Z" transform="translate(-2843.779 -1868.77)" fill="#d9b771"/>
        <path id="Path_676" data-name="Path 676" d="M2900.454,1879.857a4.167,4.167,0,0,1-.1-3.277l1.554-4.872,2.013.642-1.53,4.8q-.744,2.338,1.194,2.956a1.908,1.908,0,0,0,1.622-.106,2.767,2.767,0,0,0,1.061-1.612l1.531-4.8,1.988.635-1.553,4.871a4.319,4.319,0,0,1-7.781.764Z" transform="translate(-2861.374 -1870.431)" fill="#d9b771"/>
        <path id="Path_677" data-name="Path 677" d="M2929.1,1884.076a3.019,3.019,0,0,1,.193,3.447,3.17,3.17,0,0,1-1.281,1.293,3.072,3.072,0,0,1-1.762.325,5.145,5.145,0,0,1-2.031-.687l-1.6-.9-1.235,2.194-1.842-1.037,4.48-7.957,3.443,1.939A5.057,5.057,0,0,1,2929.1,1884.076Zm-2.676,3.171a1.426,1.426,0,0,0,1-.774,1.443,1.443,0,0,0,.148-1.271,2.222,2.222,0,0,0-1.061-1.068l-1.5-.845-1.554,2.762,1.5.844A2.213,2.213,0,0,0,2926.424,1887.248Z" transform="translate(-2872.375 -1875.542)" fill="#d9b771"/>
      </g>
      <g id="Group_397" data-name="Group 397" transform="translate(27.958 96.117)">
        <path id="Path_678" data-name="Path 678" d="M2804.551,2062.742l3.444,2.313a5.831,5.831,0,0,1,1.866,1.937,4.248,4.248,0,0,1,.582,2.316,4.871,4.871,0,0,1-2.676,3.985,4.258,4.258,0,0,1-2.364.338,5.828,5.828,0,0,1-2.5-.995l-3.444-2.312Zm-.766,8.395a3.069,3.069,0,0,0,2.239.585,3.028,3.028,0,0,0,2.3-3.433,3.064,3.064,0,0,0-1.388-1.852l-1.6-1.077-3.156,4.7Z" transform="translate(-2799.46 -2062.362)" fill="#d9b771"/>
        <path id="Path_679" data-name="Path 679" d="M2830.488,2084.305l-.583,1.592-6.639-2.431,3.139-8.575,6.481,2.373-.583,1.593-4.508-1.651-.681,1.862,3.981,1.458-.566,1.543-3.981-1.457-.726,1.984Z" transform="translate(-2812.915 -2069.229)" fill="#d9b771"/>
        <path id="Path_680" data-name="Path 680" d="M2846.114,2080.881l2.081.364-1.277,7.3,4.51.789-.3,1.7-6.592-1.154Z" transform="translate(-2824.938 -2072.614)" fill="#d9b771"/>
        <path id="Path_681" data-name="Path 681" d="M2864.418,2083.382l2.108.135-.585,9.113-2.109-.135Z" transform="translate(-2835.841 -2074.027)" fill="#d9b771"/>
        <path id="Path_682" data-name="Path 682" d="M2881.253,2083.278l-3.61,9.272-2.085.077-4.278-8.978,2.281-.085,3.021,6.414,2.572-6.623Z" transform="translate(-2840.051 -2073.969)" fill="#d9b771"/>
        <path id="Path_683" data-name="Path 683" d="M2903.06,2087.446l.3,1.668-6.956,1.266-1.635-8.984,6.79-1.235.3,1.668-4.723.86.354,1.951,4.171-.759.294,1.617-4.171.759.378,2.079Z" transform="translate(-2853.328 -2072.207)" fill="#d9b771"/>
        <path id="Path_684" data-name="Path 684" d="M2921.787,2083.608l-2.556-1.743-.1.037-1.717.659.911,2.375-1.973.757-3.273-8.524,3.69-1.417a5.08,5.08,0,0,1,2.112-.377,3.125,3.125,0,0,1,1.7.578,3.161,3.161,0,0,1,1.082,1.471,2.972,2.972,0,0,1-.72,3.365l2.965,2.006Zm-3.008-6.342a2.222,2.222,0,0,0-1.5.135l-1.607.618,1.14,2.971,1.608-.617a2.194,2.194,0,0,0,1.2-.909,1.646,1.646,0,0,0-.844-2.2Z" transform="translate(-2863.676 -2069.498)" fill="#d9b771"/>
        <path id="Path_685" data-name="Path 685" d="M2937.127,2068.741l1.8,2.688-1.756,1.176-1.815-2.71-6.2-2.911,1.865-1.248,4.284,2.014-.23-4.729,1.724-1.154Z" transform="translate(-2872.759 -2061.868)" fill="#d9b771"/>
      </g>
      <g id="Group_398" data-name="Group 398" transform="translate(61.315 116.099)">
        <path id="Path_686" data-name="Path 686" d="M2876.172,2107.821" transform="translate(-2876.172 -2107.821)" fill="#d9b771" stroke="#d9b771" stroke-linecap="round" stroke-linejoin="round" stroke-width="2"/>
      </g>
      <g id="Group_400" data-name="Group 400">
        <g id="Group_399" data-name="Group 399" transform="translate(0.007)">
          <path id="Path_687" data-name="Path 687" d="M2787.179,1891.807c.05-.212.242-.5.42-.546.344-.082.414.22.479.6-.015.014-.03.032-.045.049h1.594c-.024-.04-.041-.078-.03-.1a2.025,2.025,0,0,1,.406-.482l.385.394-.222.192h6.661c.038-.3.187-.494.574-.361a.766.766,0,0,1-.058.246c-.027.04-.056.077-.084.115h10.773a.179.179,0,0,1-.018-.059,8.58,8.58,0,0,1,.021-1.3c.017-.155.2-.291.31-.435l.245.252c-.05.618-.073,1.072-.134,1.52a.177.177,0,0,1-.01.022h1.045a1.733,1.733,0,0,1-.024-.359.438.438,0,0,1,.339-.269c.256.027.579.143.45.484a.765.765,0,0,1-.077.144h1.745a4.27,4.27,0,0,1-.309-.88.637.637,0,0,1,.009-.425.368.368,0,0,1,.355-.042c.1.067.137.235.185.365a.99.99,0,0,1,0,.263c.367.093.509.027.435-.368-.067-.361-.113-.8.449-.781.194.007.389.219.565.361a4.826,4.826,0,0,1,.417.44c-.186.288-.372.7-.925.724-.08,0-.131.244-.229.343h10.376l.009-.005,0,.005h4.514a2.934,2.934,0,0,0,1.143,0h24.995a3.2,3.2,0,0,0,.582.057,3.257,3.257,0,0,0,.836-.109c.076-.02.149-.046.223-.071a3.238,3.238,0,0,0,.45-.167.277.277,0,0,1-.011-.173c.247-.585.519-1.159.782-1.737.029-.064.057-.128.13-.292a2.741,2.741,0,0,1,.01,1.6,3.254,3.254,0,0,0,.437-4.219,62.937,62.937,0,0,0-7.7-17.012l-.253.589a1.291,1.291,0,0,1-.373-1.539,63.443,63.443,0,0,0-35.524-25.679c.276.293.192.629-.256,1.107l-.162-1.225a63.33,63.33,0,0,0-28.477-1.095c-.04.029-.082.058-.132.087l.007-.062a63.265,63.265,0,0,0-23.723,9.909,2.294,2.294,0,0,0,.3.163,1.075,1.075,0,0,1,.333,1.6.486.486,0,0,1-.408-.055c-.139-.612-.614-.74-1.123-.847a.7.7,0,0,1-.207-.089,63.493,63.493,0,0,0-5.161,4.113c.006.1.012.2.021.3a2.466,2.466,0,0,1-.049.445,1.43,1.43,0,0,0,.338-.091c.268-.16.535-.3.8-.007.246.277.469.55.285.982a.967.967,0,0,0-.019.692,6.036,6.036,0,0,0,1.132,2.143,5.717,5.717,0,0,1,.937,1.223A56.971,56.971,0,0,1,2773,1852.436a1.05,1.05,0,0,1,0-.176,2.119,2.119,0,0,1,.293.049c.178-.08.36-.156.539-.234a1.265,1.265,0,0,0,.021-.226c0-.335.135-.668.159-1.006.031-.459.013-.922.019-1.383a2.855,2.855,0,0,1,.031-.75c.029-.1.274-.147.42-.217.055.15.2.361.15.44-.412.627-.157,1.119.19,1.672a1.075,1.075,0,0,1-.009.932c-.028.048-.05.1-.075.144.174-.072.349-.14.523-.211l-.016-.017.4-.433c.054.074.142.155.188.228a56.581,56.581,0,0,1,10.937-3.059,1.709,1.709,0,0,1-.162-.332c-.019-.056.109-.158.17-.24l.371.383-.11.14a56.526,56.526,0,0,1,30.206,3.144.252.252,0,0,1,0-.154c.163-.323.373-.623.584-.96.57.607.524,1.115-.018,1.336a56.918,56.918,0,0,1,12.825,7.274c.01-.021.022-.041.032-.062a.189.189,0,0,1,.178-.025.286.286,0,0,1,.088.216c-.006.024-.014.05-.022.075.212.161.421.326.63.49a1.123,1.123,0,0,1,.256-.064,5.548,5.548,0,0,1,.988.026c.038,0,.06.182.086.27-.033.172-.059.327-.094.481a.516.516,0,0,1-.09.206c.354.293.7.6,1.048.9.079-.138.192-.273.277-.411l.412.823-.107.093a56.765,56.765,0,0,1,6.18,6.458c-.008-.037-.016-.071-.023-.108.771.148,1.014.517.8,1.1q.686.878,1.335,1.784c.008,0,.013-.008.021-.011.088-.036.106-.238.226-.536.177.256.354.407.386.585a1.787,1.787,0,0,1-.048.778l0,0a56.374,56.374,0,0,1,3.62,6.012,5.545,5.545,0,0,0,.7-.443,1.361,1.361,0,0,1,.224,1.776.454.454,0,0,1-.177.133,56.431,56.431,0,0,1,2.517,6.064h-1.3a1.012,1.012,0,0,1,.031.114c.011.057-.161.149-.249.226-.083-.115-.189-.222-.26-.34h-5.381c-.049.065-.1.13-.145.2l-.2-.2h-2.606c-.052.085-.137.171-.192.256l-.221.02c-.066-.093-.147-.183-.217-.276h-9.031c-.519-.948-1.079-1.865-1.671-2.758a.606.606,0,0,1-.4.2.474.474,0,0,1-.332-.311c-.042-.517-.324-.589-.778-.584-.776.008-1.221-.337-1.244-.911-.007-.176.129-.357.257-.684.245.262.447.377.465.516a.792.792,0,0,0,.7.683c.221.053.446.088.672.12a38.868,38.868,0,0,0-12.551-11.338l.025.131-.755.2-.08-.411.513-.085a38.218,38.218,0,0,0-30.613-2.958,1.332,1.332,0,0,1-.88,1.337,1.533,1.533,0,0,0-.943.828c-.092.208-.38.332-.579.493l-.121-.145c.236-.35-.041-.927.521-1.153a5.5,5.5,0,0,0-.175-.577q-1.33.526-2.616,1.15a1.387,1.387,0,0,1-.6,1.122.3.3,0,0,0-.03.283c.2.337-.041.526-.262.624a.8.8,0,0,1-.565-.1c-.36-.175-.731-.371-.557-.889a38.882,38.882,0,0,0-12.448,10.972,1.116,1.116,0,0,1-.164.647,3.83,3.83,0,0,0-.524,2.606c0,.126.253.242.364.384a1.279,1.279,0,0,1,.249.453c.012.051-.209.237-.274.215a1.417,1.417,0,0,1-.4-.3c-.182-.152-.354-.314-.538-.463s-.39-.3-.485-.368c.037-.22.057-.437.074-.648-.347.564-.687,1.134-1.006,1.718h-19.655a56.517,56.517,0,0,1,14.429-22.358,1.375,1.375,0,0,1-.333-.539c-.063-.169-.243-.294-.371-.439-.139.155-.355.289-.4.468a.965.965,0,0,1-.877.83.62.62,0,0,1-.449-.194c-.052-.057.052-.268.1-.4a8.066,8.066,0,0,0,.521-1.346,1.051,1.051,0,0,0-1.055-1.262c-.634-.044-.67-.068-.478-.676a2.548,2.548,0,0,0-.165-1.784c-.03-.074-.064-.147-.095-.221q-1.99,1.822-3.824,3.812c.3.129.6.281.96.452-.54.339-.906.057-1.278-.105q-.272.3-.542.606c.214.128.427.257.634.4.049.033.024.175.033.267a.892.892,0,0,1-.275,0c-.251-.08-.5-.171-.747-.262a62.945,62.945,0,0,0-13.209,24.662,3.252,3.252,0,0,0,2.8,4.6l.066,0c.034,0,.068,0,.1,0h25.488a3.225,3.225,0,0,0,1.161,0h22.078A.494.494,0,0,1,2787.179,1891.807Zm68.364-8.865c.013.372-.056.647-.46.607-.1-.009-.27-.2-.253-.27C2854.913,1882.932,2855.176,1882.864,2855.543,1882.942Zm.357,2.558c-.265.135-.439.3-.573.27s-.349-.27-.325-.373a2.7,2.7,0,0,1,.357-.671Zm.045,2.816-1.64,1.123c-.061-.354-.113-.654-.168-.979A1.707,1.707,0,0,1,2855.945,1888.316Zm-97.063-27.669c-.709,0-1.049-.206-1.035-.589.015-.44.541-.782,1.136-.776.523.006.477.337.428.712C2759.515,1860.41,2759.321,1860.647,2758.882,1860.648Zm.389-2.2c-.077-.131-.231-.274-.214-.391.021-.141.187-.261.292-.389l.276.44Zm1.19.471c-.015.034-.087.044-.133.065l-.2.193a2.527,2.527,0,0,1-.151-.46,1.014,1.014,0,0,1,.028-.517,2.593,2.593,0,0,1,.411-.583c.077-.09.217-.212.3-.192.1.026.27.209.25.27C2760.817,1858.112,2760.636,1858.515,2760.461,1858.919Zm1.973-1.718c-.076.2-.287.369-.32.57a2.372,2.372,0,0,0,.153.755l-.361.428a2.253,2.253,0,0,1-.274-.512c-.061-.249-.031-.519-.078-.772a.711.711,0,0,1,.47-.83c.094-.046.284-.066.324-.015A.459.459,0,0,1,2762.434,1857.2Zm4.312-7.644c-.107-.131-.261-.249-.3-.4-.025-.091.127-.23.2-.346l.438.356Zm1.169,1.086a.316.316,0,0,1-.2.237.388.388,0,0,1-.318-.159.777.777,0,0,1-.047-.545c.241-.472.539-.914.84-1.408.426.179.437.624.6,1.026C2768.226,1849.825,2767.829,1849.993,2767.915,1850.643Zm14.458-3.652a1.02,1.02,0,0,1-.6.26,1.658,1.658,0,0,1-1.354-1.312l.164-.262a1.2,1.2,0,0,1,.311.215.973.973,0,0,1,.155.385c.094.452.325.491.719.318a1.031,1.031,0,0,1,.6.042C2782.4,1846.644,2782.429,1846.951,2782.372,1846.99Zm.994.092c-.166-.077-.248-.094-.251-.12a16.11,16.11,0,0,1-.133-1.7c0-.305.077-.681.593-.668C2783.506,1845.423,2783.438,1846.226,2783.366,1847.083Zm11.631-4.429c-.072-.01-.122-.167-.182-.257l.779-.2C2795.557,1842.736,2795.26,1842.69,2795,1842.654Zm3.775,3.053a2.023,2.023,0,0,1-.255-.449c-.023-.082.091-.2.142-.3h.154c.063.135.177.272.173.4S2798.849,1845.59,2798.773,1845.706Zm6.749.239c.457.227.382.632.425,1C2805.335,1847,2805.316,1846.956,2805.521,1845.945Zm3.046,2.533c-.5,0-.712-.179-.712-.619,0-.51.283-.849.722-.853.545,0,.539.38.524.675C2809.109,1848.148,2809.076,1848.483,2808.567,1848.478Zm6.221,1.148c-.083-.093-.236-.187-.235-.278,0-.167.053-.423.163-.475.129-.062.343.052.52.091l.044.17Zm4.471,1.27c-.125-.134-.322-.255-.35-.407-.021-.115.173-.271.271-.408l.378.486Zm.5-1.38c-.267-.185-.439-.289-.716-.02-.064.063-.423-.038-.485-.152a.524.524,0,0,1,.124-.5,11.15,11.15,0,0,1,1.179-.619,5.4,5.4,0,0,1,.463.718,1.917,1.917,0,0,1,.073.574C2820.176,1849.521,2819.9,1849.615,2819.755,1849.516Zm3.341.265c-.649-.081-.229-.632-.465-.992.586-.009.759.291.771.686C2823.405,1849.579,2823.189,1849.793,2823.1,1849.781Zm2.164,2.475c-.087-.125-.271-.281-.242-.367a1.083,1.083,0,0,1,.365-.427,2.75,2.75,0,0,1,.363.305Zm1.514,2.716c-.03-.232-.069-.463-.079-.7,0-.029.154-.064.236-.1l.163.724Zm2.235-3.23c-.484.212-.842.109-1.037-.261a.936.936,0,0,1-.022-.75c.129-.259.814-.208,1.154.065l-.586.333Zm1.146.9a4.5,4.5,0,0,1-.884-.289,4.723,4.723,0,0,1,.683-.241,2.6,2.6,0,0,1,.583.012l.031.2C2830.429,1852.438,2830.277,1852.658,2830.155,1852.642Zm4.413,3.886a.73.73,0,0,0-.938.4,2.5,2.5,0,0,1,.011-.745,2.825,2.825,0,0,0,.209-1.969c.411-.157.761-.121.9.355a10.819,10.819,0,0,1,.327,1.563C2835.115,1856.453,2834.88,1856.621,2834.567,1856.528Zm2.7,1.04c-.013-.04.287-.255.34-.222a3.008,3.008,0,0,1,.492.466l-.478.42A3.871,3.871,0,0,1,2837.266,1857.568Zm1.394,8.113c-.143-.152-.315-.276-.3-.324a1.916,1.916,0,0,1,.3-.416c.089.107.242.211.25.324S2838.779,1865.5,2838.659,1865.681Zm.341-2.449a.639.639,0,0,1-.569-.243,7.655,7.655,0,0,1-.478-1.682c-.022-.147.306-.433.524-.512.288-.1.392.089.285.679a2.666,2.666,0,0,0,.38.514C2839.477,1862.267,2839.416,1863.117,2839,1863.232Zm2.7-2.274c.43.056.376.366.327.675l-.16.089c-.117-.215-.233-.429-.35-.643Zm.473,6.031a1.648,1.648,0,0,1-.56.23.529.529,0,0,1-.329.019c-.051-.021-.068-.186-.055-.279.053-.372.125-.741.2-1.158.842-.2,1.146-.042,1.116.661A.912.912,0,0,1,2842.177,1866.989Zm.012-2.468c-.217.036-.61-.058-.668-.2a1.42,1.42,0,0,1,.01-.891c.028-.092.442-.172.6-.1a6.417,6.417,0,0,1,.978.746A3.98,3.98,0,0,1,2842.189,1864.521Zm1.783,2.32a4.035,4.035,0,0,1-.814-.412l.8-.637c.211.285.4.431.429.6C2844.429,1866.653,2844.275,1866.917,2843.972,1866.841Zm.859,4.04c-.165-.056-.4-.282-.384-.407.025-.186.244-.346.38-.516l.527.545C2845.1,1870.693,2844.925,1870.913,2844.831,1870.881Zm2.4-1.461c-.328.164-.669.3-1.109.489.122-.681.537-1,1.007-.895.073.015.181.088.189.146C2847.33,1869.244,2847.291,1869.39,2847.23,1869.421Zm6.389,18.191c-.24.18-.4.378-.5.354a.565.565,0,0,1-.321-.376c-.021-.081.185-.312.276-.305C2853.222,1887.3,2853.36,1887.446,2853.619,1887.612Zm-.965-10.838c.218.269.357.556.12.878-.041.055-.176.04-.268.057-.034-.312-.069-.623-.11-.992A1.537,1.537,0,0,1,2852.654,1876.774Zm-1.038,3.983c.1.159.287.334.263.473s-.25.27-.388.4l-.217-.169Zm-2.616-5.788a2.287,2.287,0,0,1-.306.354c-.064-.124-.178-.245-.185-.372-.025-.488-.015-.977-.019-1.466a.924.924,0,0,1,.91-1.052c.569-.064.921-.3.9-.943l.142.026a2.365,2.365,0,0,1,.044.625c-.176.89-.187.888.6,1.392-.417.094-.832.213-1.254.276-.653.1-.779.21-.809.851C2849.018,1874.764,2849.047,1874.888,2849,1874.968Zm1.071,5.394c-.137-.023-.233-.3-.366-.484a2.964,2.964,0,0,1,.282-.42,6.975,6.975,0,0,1,.727-.659,1.135,1.135,0,0,1,.428-.1,2.041,2.041,0,0,1-.112.46c-.125.251-.365.47-.412.729C2850.554,1880.239,2850.371,1880.411,2850.071,1880.362Zm.223,8.415c-.02.345-.037.638-.06,1.034C2849.755,1889.272,2849.771,1889,2850.295,1888.776Zm-17.11-1.421c-.022.013-.234-.19-.216-.238a2.518,2.518,0,0,1,.342-.489c.133.2.281.36.254.4A1.122,1.122,0,0,1,2833.185,1887.356Zm9.634-.057c.091-.026.268.254.5.494-.237.177-.426.4-.506.363a1.882,1.882,0,0,1-.479-.437C2842.494,1887.568,2842.633,1887.351,2842.818,1887.3Zm-2.144,2.235a4.173,4.173,0,0,1-.182.875l-.211-.048c-.042-.32-.084-.64-.141-1.073C2840.347,1889.379,2840.674,1889.458,2840.674,1889.533Zm-1-3.57a9.56,9.56,0,0,1,.4.895.376.376,0,0,1-.106.333,1.8,1.8,0,0,1-1.471-.423C2839.3,1887.1,2839.492,1886.551,2839.669,1885.963Zm-2.465,1.383.424.377-.474.409c-.1-.118-.292-.26-.271-.349C2836.923,1887.621,2837.09,1887.49,2837.2,1887.346Zm-.505-1.1c.066.11.2.241.181.326-.037.132-.184.233-.284.348l-.28-.336Zm-1.846-.269c.241.182.42.257.5.39a1.718,1.718,0,0,1,.15.575c0,.013-.21.108-.251.075a1.678,1.678,0,0,1-.444-.463C2834.747,1886.442,2834.823,1886.26,2834.852,1885.972Zm-1.461-.274c.034-.022.17.119.258.185l-.486.409-.2-.225A3.249,3.249,0,0,1,2833.391,1885.7Zm-3.208.3.3.426-.365.491c-.1-.14-.289-.3-.268-.415C2829.886,1886.317,2830.066,1886.162,2830.183,1886Zm-.748,3.852a5.581,5.581,0,0,1,.567.311c.062.043.067.168.1.256-.1.022-.255.1-.3.058a4.929,4.929,0,0,1-.463-.512Zm-2.855-6.232c.042-.18.229-.325.352-.487.189.181.488.333.544.55.114.43-.382.836-.912.789A3.962,3.962,0,0,1,2826.579,1883.617Zm-72.44-20.111a.463.463,0,0,1,.453.017,10.079,10.079,0,0,1,.738.922c-.106.166-.651.2-1.024-.064C2754.059,1864.207,2753.933,1863.674,2754.139,1863.506Zm-2.459,1.864a1.105,1.105,0,0,0,.33-.4c.207-.442.377-.9.583-1.343a.306.306,0,0,1,.257-.119.335.335,0,0,1,.211.183c.139.313.249.64.387.955a.757.757,0,0,1-.77,1.152c-.654-.035-.716.042-.834.638-.05.254-.2.607-.4.689a1.384,1.384,0,0,1-1.329.047,4.738,4.738,0,0,1,.556-1.1A6.487,6.487,0,0,1,2751.68,1865.37Zm-3.111-1.048c.04-.235.118-.464.2-.764a.873.873,0,0,0,1.14-.194.4.4,0,0,1,.354,0,3.261,3.261,0,0,1,.265.851c.009.065-.249.245-.377.238-.273-.015-.539-.139-.813-.175a.563.563,0,0,0-.41.11c-.055.05,0,.246.039.369.028.1.154.2.137.272a2.707,2.707,0,0,1-.215.5c-.138-.113-.375-.214-.391-.342A3,3,0,0,1,2748.57,1864.322Zm-.9,3.2c.1.164.289.341.269.488s-.245.28-.4.378c-.024.015-.184-.19-.34-.356Zm-.873,1.048c.043.154.088.306.128.46a.24.24,0,0,1-.007.1c-.042.207.13.584-.258.529-.176-.025-.305-.366-.541-.676Zm-.53,6.577.4.656-.4.588a4.116,4.116,0,0,1-.344-.844C2745.9,1875.442,2746.142,1875.285,2746.266,1875.15Zm-.533,1.5c.194.029.356.277.663.535-.3.271-.462.528-.661.566-.367.069-.443-.268-.454-.55C2745.269,1876.9,2745.381,1876.594,2745.733,1876.647Zm-7.854,10.989c.033-.171.262-.3.4-.453.263.361.531.719.774,1.093.014.021-.172.173-.215.214C2738.226,1888.454,2737.795,1888.061,2737.878,1887.636Zm1.552,2.816a1.444,1.444,0,0,0-.381.517c-.177.319-.375.538-.786.386-.385-.142-.693-.29-.571-.812.164-.7.183-.692.906-.622a4.431,4.431,0,0,0,1.16-.2A.639.639,0,0,1,2739.43,1890.452Zm1.333.444c.111-.319.2-.623.33-.908a.339.339,0,0,1,.3-.14c.073.017.148.171.166.273C2741.635,1890.622,2741.359,1890.919,2740.763,1890.9Zm1.266-16.426c-.043-.243-.173-.514-.106-.723a4.461,4.461,0,0,1,.532-.968.488.488,0,0,1,.8.117.976.976,0,0,0,.816.7,1.152,1.152,0,0,1,1.028,1.4,8.431,8.431,0,0,1-.2,1.1l-.148-.037c-.2-.5-.408-1-.593-1.5a1.113,1.113,0,0,0-1.685-.371A2.6,2.6,0,0,1,2742.029,1874.47Zm1.485,16.46c-.117-.082-.26-.226-.26-.347s.146-.267.229-.4l.4.5C2743.707,1890.8,2743.548,1890.954,2743.513,1890.93Zm3.5-.148c-.137-.034-.232-.232-.346-.36.13-.113.248-.28.4-.317.083-.02.219.176.433.363C2747.268,1890.623,2747.113,1890.808,2747.01,1890.782Zm3.447-4.231a3.173,3.173,0,0,1-.283-.6c-.02-.087.094-.2.147-.307.095.089.261.171.269.268A2.527,2.527,0,0,1,2750.456,1886.551Zm2.852,4.3c-.44-.109-.266-.469-.316-.812a.566.566,0,0,1,.63.61C2753.626,1890.717,2753.4,1890.876,2753.308,1890.854Zm2.763-3.927-.233.01c-.133-.2-.394-.419-.365-.592.033-.21.311-.381.483-.569a2.367,2.367,0,0,1,.468.658C2756.458,1886.554,2756.2,1886.76,2756.071,1886.927Zm2.253-.112c-.052.146-.314.239-.5.3-.037.011-.179-.236-.232-.379a7.08,7.08,0,0,1-.176-.712,2.143,2.143,0,0,1,.846.128C2758.384,1886.23,2758.4,1886.615,2758.324,1886.815Zm1.071,1.351a.462.462,0,0,1-.317.025c-.086-.032-.213-.172-.2-.23.108-.395.25-.78.381-1.169l.339.072C2759.537,1887.3,2759.48,1887.735,2759.4,1888.166Zm8.256-3.607-.178-.016a8.919,8.919,0,0,1-.142-.95c0-.079.158-.206.265-.237.058-.017.239.131.232.19C2767.792,1883.886,2767.715,1884.222,2767.652,1884.559Zm22.614,3.443c-.12-.05-.191-.22-.284-.336a2.765,2.765,0,0,1,.342-.233,1,1,0,0,1,.3-.065c.711-.1.9.161.6.926A9.475,9.475,0,0,1,2790.266,1888Zm.262-2.057.189-.1c.105.146.273.281.3.439a1.414,1.414,0,0,1-.135.534,2.936,2.936,0,0,1-.283-.442A1.8,1.8,0,0,1,2790.528,1885.946Zm1.3,3.97-.656-.635c.21-.268.336-.556.449-.551.475.021.471.445.483.778C2792.114,1889.64,2791.93,1889.779,2791.832,1889.916Zm2.88-1.687a4.246,4.246,0,0,1-.7-.58c.25-.154.417-.3.457-.275a7.409,7.409,0,0,1,.65.572C2794.977,1888.047,2794.781,1888.263,2794.713,1888.228Zm3.866-1.463a4.869,4.869,0,0,1-.389-1.088,8.509,8.509,0,0,1,.993.214c.181.062.485.269.467.327a1.479,1.479,0,0,1-.428.741A.689.689,0,0,1,2798.578,1886.765Zm1.523,4.261a.58.58,0,0,1-.314.155c-.248.047-.459.015-.448-.322a.389.389,0,0,0-.044-.246c-.342-.4-.071-.541.25-.736a2.783,2.783,0,0,0,.534-.584A1.956,1.956,0,0,1,2800.1,1891.026Zm.755-3.208a7.332,7.332,0,0,1,.464-.63l.438.431a2.926,2.926,0,0,1-.58.444C2801.113,1888.091,2800.848,1887.832,2800.857,1887.818Zm.8,1.386c-.11-.014-.2-.163-.3-.252.095-.078.187-.211.287-.217.119-.007.245.1.52.219C2801.89,1889.094,2801.763,1889.217,2801.654,1889.2Zm2.269-.711c-.049-.035-.253-.108-.261-.2-.027-.3-.1-.762.056-.892.381-.31.829-.508.847-1.093,0-.047.153-.089.234-.134.042.1.148.242.115.288a.91.91,0,0,0,.046,1.065C2805.177,1887.943,2804.639,1888.472,2803.923,1888.493Zm3.979.875c-.1-.1-.027-.357-.032-.543.187,0,.433-.084.55.005a3.158,3.158,0,0,1,.515.654A.741.741,0,0,1,2807.9,1889.368Zm2.432,1.545c-.462-.01-.46-.345-.5-.663C2810.327,1890.159,2810.436,1890.305,2810.334,1890.913Zm.271-1.084a.641.641,0,0,1,.509-.74c.058-.015.25.174.239.248C2811.294,1889.743,2810.981,1889.809,2810.6,1889.829Zm10.68-3.2c.091-.5.321-.635.661-.654.276-.015.464.1.4.4s0,.764-.473.731C2821.665,1887.091,2821.479,1886.8,2821.285,1886.632Zm.547,3.875c.024-.124.2-.218.3-.325l.328.872C2821.848,1891.108,2821.768,1890.834,2821.832,1890.507Zm1.467-3.948a3.053,3.053,0,0,1,.47.281l.127.272c-.128.036-.289.138-.378.094a1.272,1.272,0,0,1-.416-.386C2823.083,1886.8,2823.271,1886.548,2823.3,1886.56Zm-4.456-13.281a6.214,6.214,0,0,1,.893.018c.075.01.119.236.177.363-.117.05-.252.163-.348.137a5.763,5.763,0,0,1-.745-.313C2818.828,1873.414,2818.835,1873.347,2818.843,1873.279Zm-.971,1.185c.113-.093.238-.17.358-.253a1.307,1.307,0,0,1,.189.343c.1.523.532.583.932.711.176.055.463.177.468.278a1.1,1.1,0,0,1-.2.722.959.959,0,0,1-1.426-.335c-.164-.4-.317-.8-.5-1.266A1.766,1.766,0,0,1,2817.872,1874.464Zm.475,3.723a1.755,1.755,0,0,1-.3.4c-.1-.1-.291-.21-.279-.294.019-.138.169-.258.327-.473C2818.222,1878,2818.37,1878.126,2818.346,1878.187Zm-9.6-5.282a.687.687,0,0,1-.719.907Zm-4.965-2.842.194-.021a1.721,1.721,0,0,1,.212.485c.011.094-.14.207-.218.312-.113-.12-.279-.225-.322-.367C2803.612,1870.359,2803.729,1870.2,2803.779,1870.063Zm-1.358-2.928c.265,0,.641.562.577.942a.458.458,0,0,1-.362.257c-.347-.016-.78.02-.773-.565C2801.883,1867.439,2801.98,1867.14,2802.421,1867.135Zm-5.021.588a3.281,3.281,0,0,1,.539.462l-.451.424c-.191-.235-.375-.375-.42-.552C2797.048,1867.974,2797.36,1867.7,2797.4,1867.723Zm-1.792,1.075a2.129,2.129,0,0,1,.261.54c.008.066-.191.234-.243.214-.113-.042-.255-.169-.266-.274S2795.474,1869.042,2795.608,1868.8Zm-1.256.724c.154.033.281.2.479.357l-.476.659a6.754,6.754,0,0,1-.356-.793A.534.534,0,0,1,2794.353,1869.522Zm-3.363,1.891.48.373c-.208.17-.33.346-.438.337a.421.421,0,0,1-.28-.313C2790.75,1871.679,2790.9,1871.546,2790.99,1871.413Zm-2.271-.044c.5.177.442.538.442.85,0,.061-.184.176-.275.168a.324.324,0,0,1-.207-.237A6.065,6.065,0,0,1,2788.718,1871.369Zm-2.868-4.133a2.6,2.6,0,0,1,.232.411,5,5,0,0,1-.73.551c-.032.019-.2-.189-.306-.293Zm-8,4.116c.09.243.194.384.169.5a.379.379,0,0,1-.283.241c-.088,0-.256-.2-.238-.271C2777.534,1871.681,2777.676,1871.57,2777.851,1871.352Zm-2.637,6.916.168-.071.448.865C2775.189,1878.952,2775.1,1878.669,2775.214,1878.267Zm-5.708,7.689c-.126-.066-.368-.162-.36-.194a3.308,3.308,0,0,1,.244-.565l.306.119Zm26.922-14.156a31.721,31.721,0,0,1,7.069.8c.1-.113.2-.223.292-.337a4.329,4.329,0,0,1,.422-.36,2.7,2.7,0,0,1-.007.572c-.024.092-.059.18-.091.27a32.187,32.187,0,0,1,5.142,1.76.1.1,0,0,1-.005-.06.6.6,0,0,1,.448-.369c.144,0,.377.239.4.4.012.082-.088.183-.217.315a32.353,32.353,0,0,1,12.748,10.6h-14.113c.037.109.074.221.117.336-.575.065-1,.154-1.15-.29,0-.014,0-.031-.008-.046h-4.167a.1.1,0,0,1-.077.014.252.252,0,0,1-.022-.014h-32.985A32.265,32.265,0,0,1,2796.428,1871.8Zm-20.807,19.753a1.006,1.006,0,0,1,.335-1.334C2776.055,1890.787,2776.053,1891.207,2775.621,1891.554Zm5.98-1.622a4.31,4.31,0,0,1-.875-.719c-.077-.084.015-.324.029-.491a2.044,2.044,0,0,1,.419.145c.187.113.344.277.531.392a4.529,4.529,0,0,0,.527.241l-.161.326C2781.911,1889.865,2781.7,1889.992,2781.6,1889.932Z" transform="translate(-2735.179 -1840.82)" fill="#d9b771"/>
          <path id="Path_688" data-name="Path 688" d="M2835.109,1907l-.243.129c.025.026.049.052.068.075Z" transform="translate(-2791.519 -1878.224)" fill="#d9b771"/>
          <path id="Path_689" data-name="Path 689" d="M2844.193,1902.818c.188.15.4.351.558.083a.633.633,0,0,0,0-.442c-.264.1-.529.192-.791.294A.442.442,0,0,1,2844.193,1902.818Z" transform="translate(-2796.659 -1875.657)" fill="#d9b771"/>
        </g>
        <path id="Path_690" data-name="Path 690" d="M2735.466,2018.671a62.968,62.968,0,0,0,8.893,19.106l.257-.276c.1.164.289.341.269.488a.444.444,0,0,1-.205.248,63.367,63.367,0,0,0,15.8,15.674,3.516,3.516,0,0,1,.36-1.718,2.129,2.129,0,0,0,.465-1.4c.005-.108.271-.282.418-.283.169,0,.482.154.484.246a1.7,1.7,0,0,1-.165,1.011,3.834,3.834,0,0,0-.524,2.607c0,.126.254.242.364.384a2.125,2.125,0,0,1,.126.184,63.338,63.338,0,0,0,10.631,5.553,2.195,2.195,0,0,1,.265-.294,3.315,3.315,0,0,1,.051.42,63.316,63.316,0,0,0,46.062.387c-.25-.078-.282-.283-.237-.519.024-.124.2-.218.3-.326.085.224.17.45.27.717a63.39,63.39,0,0,0,16.087-9.141,5.1,5.1,0,0,0-.773-.172c-.441-.057-.576.27-.62.671-.018.164-.182.31-.281.465-.073-.171-.213-.346-.205-.514a1.129,1.129,0,0,1,.849-1.014.834.834,0,0,0,.464-.387c.108-.3.306-.417.549-.331a1.237,1.237,0,0,1,.544.446,2.5,2.5,0,0,1,.168.284,63.163,63.163,0,0,0,17.1-21.3,1.945,1.945,0,0,1-.357.27c-.042.024-.224-.2-.469-.427a3.361,3.361,0,0,1,.72-.45c.044-.013.188.161.263.283a63.1,63.1,0,0,0,2.945-7.146c-.6,0-.885-.29-.8-.8.02-.113.133-.209.2-.313a1.107,1.107,0,0,1,.266.2c.141.2.274.421.415.649q.2-.607.4-1.221l-.042,0-.082.117-.4-.447c.221-.185.419-.474.669-.529a1.161,1.161,0,0,1,.124-.011c.089-.3.178-.593.262-.892a3.4,3.4,0,0,0-3.943-5.113h-5.472a3.517,3.517,0,0,1-.24,1.1c-.527-.356-.737-1.163-1.454-.923-.031-.066-.059-.12-.09-.181h-.751c-.078.076-.177.166-.268.159a.409.409,0,0,1-.325-.159h-34.452c-.047.059-.094.117-.153.18-.008-.062-.017-.12-.024-.18h-70.634a3.381,3.381,0,0,0-4.081,4.614Zm120.575-2.647c.074.155.206.311.208.467.005.434.053.771.619.743.085,0,.276.248.252.334a1.439,1.439,0,0,1-.343.561c-.055.059-.238.021-.354,0-.186-.042-.365-.11-.547-.168l.532-.446a2.74,2.74,0,0,1-.545-.432,1.11,1.11,0,0,1-.268-.655C2855.6,2016.282,2855.882,2016.157,2856.04,2016.024Zm-111.489,14.381c-.485-.008-.376-.4-.385-.7,0-.035,0-.07,0-.1h.018a6.626,6.626,0,0,1-.093-1.089c.012-.168.224-.323.345-.484.111.142.277.267.322.428a8.129,8.129,0,0,1,.263,1.288C2745.059,2030.068,2744.98,2030.411,2744.552,2030.406Zm.483,1.961c.131-.074.257-.154.392-.22.042-.021.1,0,.154,0l.081-.13c.322.195.648.381.958.592.049.033.024.175.034.267a.88.88,0,0,1-.276,0c-.323-.1-.642-.219-.96-.337C2745.287,2032.49,2745.162,2032.424,2745.034,2032.366Zm1.4-1.058a.342.342,0,0,1,.292-.1c.344.138.675.31,1.083.5-.575.361-.952.017-1.35-.137C2746.416,2031.555,2746.389,2031.354,2746.431,2031.308Zm-.559,3.056c-.055.05,0,.246.039.369.028.1.154.2.137.271a2.732,2.732,0,0,1-.215.5c-.138-.113-.375-.214-.392-.342a3.007,3.007,0,0,1,.075-.864c.039-.235.118-.464.2-.764a.873.873,0,0,0,1.14-.194.4.4,0,0,1,.354,0,3.278,3.278,0,0,1,.265.851c.009.065-.249.245-.377.238-.273-.015-.539-.14-.813-.176A.565.565,0,0,0,2745.872,2034.364Zm6.852,10.725a1.718,1.718,0,0,1-.609.279c-.134.027-.295-.079-.443-.126.071-.11.136-.224.214-.33a2.586,2.586,0,0,0,.374-.506c.107-.271.185-.6.535-.5.179.054.285.353.5.643A5.336,5.336,0,0,1,2752.724,2045.089Zm1.277-1.536c-.067-.135-.22-.306-.182-.4a1.716,1.716,0,0,1,.386-.437l.289.394Zm3.958,5.722c-.094.03-.15.176-.224.268l-.335.412c-.17-.181-.413-.335-.494-.551a2.46,2.46,0,0,1,.819-1.77.763.763,0,0,1,.531,0c.08.03.1.253.121.393a1.646,1.646,0,0,1-.014.337C2758.415,2048.8,2758.4,2049.133,2757.958,2049.275Zm1.883-.425c-.156-.014-.292-.258-.508-.471l.465-.478.543.631C2760.174,2048.646,2760,2048.863,2759.841,2048.85Zm2-.507c.454-.418,1-.207,1.516.528C2762.691,2049.044,2762.4,2048.416,2761.843,2048.343Zm2.756,6.193-.178-.016a8.828,8.828,0,0,1-.142-.95c0-.079.157-.207.265-.237.058-.017.239.131.232.19C2764.739,2053.863,2764.661,2054.2,2764.6,2054.535Zm1.854,1.4c-.126-.066-.367-.162-.359-.194a3.27,3.27,0,0,1,.244-.564l.305.119Q2766.548,2055.614,2766.453,2055.933Zm12.565,3.868c-.16.041-.374.167-.47.107a4.322,4.322,0,0,1-.875-.72c-.077-.084.014-.324.029-.491a2.03,2.03,0,0,1,.419.144c.187.114.344.277.531.392a4.494,4.494,0,0,0,.528.242Zm5.921,3.632c-.361.231-.543-.151-.85-.6l1.079-.216C2785.1,2062.9,2785.117,2063.32,2784.939,2063.434Zm-.813-1.651c.05-.211.242-.5.42-.546.344-.082.414.219.479.6-.134.13-.255.35-.4.369C2784.363,2062.24,2784.04,2062.143,2784.125,2061.783Zm2.662.386c-.088-.131-.278-.3-.244-.384a1.989,1.989,0,0,1,.405-.481l.385.393Zm1.991-2.277-.656-.635c.21-.268.335-.556.449-.551.476.021.471.445.483.778C2789.061,2059.616,2788.877,2059.756,2788.779,2059.892Zm5.51,1.881c-.12.179-.258.344-.388.515-.047-.128-.144-.263-.13-.386.034-.306.183-.51.576-.375A.777.777,0,0,1,2794.289,2061.773Zm2.2,1.829-.354-.511.352-.409c.087.1.26.209.246.286A3.267,3.267,0,0,1,2796.484,2063.6Zm.564-2.6a.582.582,0,0,1-.314.155c-.248.046-.459.014-.448-.323a.388.388,0,0,0-.044-.246c-.342-.4-.071-.54.25-.736a2.766,2.766,0,0,0,.534-.584A1.956,1.956,0,0,1,2797.048,2061Zm1.381,3.867c-.278-.04-.661-.065-.615-.467.021-.194.263-.363.52-.69.229.32.424.485.469.685C2798.859,2064.635,2798.774,2064.918,2798.429,2064.87Zm.172-5.689c-.111-.013-.2-.163-.306-.252.1-.078.188-.211.287-.217.12-.007.245.1.52.219C2798.837,2059.071,2798.71,2059.194,2798.6,2059.18Zm6.8,2.686c-.012.1-.157.178-.241.265-.07-.1-.2-.2-.2-.3a8.542,8.542,0,0,1,.021-1.3c.017-.155.2-.291.309-.436l.245.252C2805.485,2060.965,2805.461,2061.418,2805.4,2061.866Zm-.552-2.522c-.1-.1-.027-.358-.033-.543.187,0,.433-.084.55.005a3.163,3.163,0,0,1,.515.654A.741.741,0,0,1,2804.848,2059.345Zm2.353,2.4a2.858,2.858,0,0,1-.531.68l-.158-.1a4.01,4.01,0,0,1-.1-.8.44.44,0,0,1,.339-.269C2807.007,2061.288,2807.33,2061.4,2807.2,2061.745Zm.08-.854c-.462-.01-.46-.345-.5-.663C2807.274,2060.135,2807.383,2060.282,2807.281,2060.89Zm.271-1.084a.642.642,0,0,1,.509-.74c.058-.015.25.174.239.248C2808.241,2059.719,2807.928,2059.786,2807.551,2059.806Zm2.5,1.74c-.08,0-.132.246-.229.344-.156.158-.33.377-.516.4-.134.014-.348-.226-.439-.4a4.3,4.3,0,0,1-.309-.881.636.636,0,0,1,.009-.425.367.367,0,0,1,.355-.042c.1.067.137.235.185.365a.981.981,0,0,1,0,.262c.367.093.508.027.435-.368-.067-.361-.112-.8.449-.781.194.008.389.219.565.361a4.893,4.893,0,0,1,.417.44C2810.792,2061.109,2810.606,2061.523,2810.053,2061.545Zm9.236-5.194c-.067.3,0,.764-.473.731-.2-.014-.391-.307-.585-.473.092-.5.322-.635.662-.654C2819.168,2055.94,2819.356,2056.052,2819.289,2056.351Zm1.175.833a1.276,1.276,0,0,1-.416-.386c-.019-.026.169-.272.2-.261a3.041,3.041,0,0,1,.469.281l.127.272C2820.715,2057.126,2820.554,2057.228,2820.464,2057.184Zm3.046-2.738a3.961,3.961,0,0,1,.015-.852c.043-.18.229-.325.352-.487.189.181.487.333.544.55C2824.536,2054.087,2824.041,2054.493,2823.511,2054.446Zm3.557,2.444c-.1-.14-.288-.3-.267-.415.032-.181.212-.336.329-.5.09.125.179.25.3.425Zm2.878-2.706a.855.855,0,0,1-1.17-.259c-.19-.531-.449-.895-1.057-.788.2-.4.351-.719.525-1.02a.277.277,0,0,1,.265-.07.654.654,0,0,1,.283.307c.064.191.023.419.095.6.11.287.317.464.654.295.227-.114.486-.161.535.145A1.085,1.085,0,0,1,2829.946,2054.184Zm-.113-1.358c-.054-.413-.1-.777-.149-1.141l.184-.113c.148.165.375.308.426.5A.566.566,0,0,1,2829.833,2052.825Zm5.2-3.91a2.5,2.5,0,0,1-.313-.029c0-.2.018-.4.034-.607l.279.031Zm.774-2.717c-.025.157-.388.26-.6.388l-.076-.155c-.248.065-.5.113-.744.2a.642.642,0,0,1-.815-.277.546.546,0,0,1,.14-.787,1.9,1.9,0,0,1,.558-.363c.361-.136.722-.226.54-.753-.019-.057.146-.177.226-.267.083.087.244.182.236.261-.033.35.207.483.387.715A1.487,1.487,0,0,1,2835.812,2046.2Zm-2.286.962c-.214.171-.373.359-.431.332-.152-.071-.348-.228-.359-.366s.163-.313.256-.471Zm3.246-3.887c.011-.09.237-.2.375-.216.2-.018.419.085.621.063a.9.9,0,0,0,.424-.236c.118-.1.183-.3.308-.342a.42.42,0,0,1,.377.184c.044.127-.059.3-.1.459-.009.033-.024.064-.058.149l.316.19c-.014.049-.012.1-.032.108a2.234,2.234,0,0,1-2.017.042A.475.475,0,0,1,2836.772,2043.274Zm1.4,4.217c-.088-.235-.175-.469-.264-.7a1.473,1.473,0,0,1,.36-.064,5.922,5.922,0,0,1,.215.683Zm1.262.02c-.163-.02-.3-.218-.523-.394l.427-.509.54.623C2839.732,2047.332,2839.572,2047.527,2839.437,2047.511Zm.708-5.689a.548.548,0,0,1-.362.3c-.088.02-.259-.132-.325-.246-.183-.311-.445-.65.122-.885.087-.036.106-.238.226-.536.177.256.354.407.386.585A1.792,1.792,0,0,1,2840.145,2041.822Zm1.633-.964c-.164-.056-.4-.282-.384-.407.024-.186.243-.346.379-.516l.527.546C2842.051,2040.669,2841.872,2040.89,2841.778,2040.858Zm2.4-1.461c-.328.164-.669.3-1.108.489.122-.681.537-.995,1.007-.9.074.016.181.088.189.146C2844.277,2039.221,2844.238,2039.366,2844.177,2039.4Zm2.179.952c-.476-.3-.7-1.357-.31-1.608.227-.148.631-.027,1.013-.027Zm.176-4.3c-.042.379-.07.641-.1.9-.177-.054-.459-.06-.511-.172C2845.734,2036.381,2846.089,2036.282,2846.531,2036.054Zm2.147-4.56a.526.526,0,0,1-.4.169,1.187,1.187,0,0,0-1.194.906,2.159,2.159,0,0,1-.176.378c-.214.376-.26.382-.7.1a.825.825,0,0,0,.116-.274,1.222,1.222,0,0,1,1.324-1.336c.135-.007.321-.224.375-.382.168-.489.52-.6,1.045-.585A9.315,9.315,0,0,1,2848.679,2031.494Zm.236-1.738a2.18,2.18,0,0,1-.452-.051c-.126-.023-.249-.062-.373-.095.129-.068.255-.142.389-.2a.413.413,0,0,1,.154,0v-.014a1.2,1.2,0,0,1,.353.037c.075.031.116.141.173.216A.727.727,0,0,1,2848.915,2029.755Zm3.721-3.037c-.1-.047-.251-.069-.283-.145a7.274,7.274,0,0,1-.249-.758l.133-.027a4.561,4.561,0,0,1,.432.569C2852.719,2026.446,2852.651,2026.6,2852.636,2026.719Zm1.8-1.675-.652-.705.59-.537c.186.284.4.465.389.629C2854.744,2024.642,2854.548,2024.84,2854.432,2025.044Zm-.354-10.611c.144,0,.281.2.421.313l-.871.952-.542-.511A1.021,1.021,0,0,1,2854.077,2014.433Zm-1.756,1.637a.559.559,0,0,1,.337.4c0,.136-.213.393-.323.388-.15-.007-.29-.213-.556-.436C2852.049,2016.236,2852.222,2016.039,2852.321,2016.07Zm-.3,6.59c.544.009.72.2.711.728a.579.579,0,0,1-.6.641,1.132,1.132,0,0,1-.891-.893C2851.239,2022.8,2851.488,2022.652,2852.016,2022.66Zm-.376,5.79c-.016.083-.187.136-.287.2l-.375-.853C2851.481,2027.83,2851.719,2028.034,2851.64,2028.45Zm-.424,2.2c.2.786.164.842-.512.8Zm-.262,1.526a.5.5,0,0,1,.119.422c-.028.109-.206.179-.317.267a1.746,1.746,0,0,1-.272-.362,3.819,3.819,0,0,1-.136-.61A2.546,2.546,0,0,1,2850.954,2032.178Zm-1.831-16.073.41.4-.571.463c-.08-.109-.249-.258-.221-.319A3.07,3.07,0,0,1,2849.124,2016.1Zm-2.239-.14c.126,0,.253.137.463.266-.189.163-.337.346-.386.323a2.168,2.168,0,0,1-.44-.356C2846.643,2016.115,2846.763,2015.967,2846.885,2015.965Zm-.173,4.3a.963.963,0,0,1-.166.282,1.127,1.127,0,0,1-.322-.213,2.613,2.613,0,0,1-.437-.743,3.516,3.516,0,0,1-.016-.9C2846.664,2019.2,2846.848,2019.53,2846.712,2020.263Zm-.817-4.1.441.584a2.224,2.224,0,0,1-.494.34c-.053.018-.269-.2-.251-.264A4.048,4.048,0,0,1,2845.895,2016.162Zm-1.206,1c.179.013.337.315.5.485-.135.4-.115.748-.581.731-.315-.011-.49-.161-.458-.487C2844.19,2017.548,2844.22,2017.131,2844.689,2017.166Zm-1.137,1.542c.131-.019.294.178.443.278l-.516.522-.475-.476C2843.185,2018.916,2843.357,2018.735,2843.552,2018.707Zm-1.7-4.227.1.006a3.277,3.277,0,0,1,.112.652c0,.112-.142.222-.22.333-.089-.126-.261-.264-.247-.377A2.4,2.4,0,0,1,2841.851,2014.48Zm-.111,1.3.968,1.171-1.417-.075Zm1.1,1.934-.546.494c-.13-.154-.383-.332-.359-.457.035-.181.253-.353.433-.462C2842.407,2017.261,2842.612,2017.5,2842.838,2017.712Zm-4.09,1.06c.01-.3.182-.483.466-.415.173.041.308.237.435.343a6.99,6.99,0,0,1-.253.995c-.054.129-.246.2-.376.3-.094-.129-.249-.248-.27-.388A4.608,4.608,0,0,1,2838.748,2018.772Zm-9.222.014.485.543c-.157.106-.31.219-.472.316-.224.134-.455.257-.682.384l-.171-.177Zm-2.042,3.315c.01.067.021.134.031.2-.139.112-.291.332-.413.316a4.467,4.467,0,0,1-.884-.289,4.7,4.7,0,0,1,.684-.241A2.609,2.609,0,0,1,2827.483,2022.1Zm-1.459-6.148c.195.277.376.513.529.766a.283.283,0,0,1-.039.269.326.326,0,0,1-.279.05C2825.96,2016.943,2825.8,2016.326,2826.025,2015.953Zm-1.129,4.754c.129-.26.814-.208,1.154.064l-.586.334.491.614c-.484.212-.841.109-1.036-.261A.935.935,0,0,1,2824.9,2020.707Zm-1.019,3.45q.082.362.164.723l-.321.068c-.03-.232-.069-.463-.079-.7C2823.64,2024.224,2823.795,2024.189,2823.877,2024.157Zm-1.183-2.413c-.2.2-.344.345-.487.489-.087-.125-.271-.281-.242-.367a1.072,1.072,0,0,1,.365-.426A2.735,2.735,0,0,1,2822.694,2021.744Zm-.661,5.807c-.273.179-.4.335-.546.344-.326.021-.636-.133-.594-.493.023-.193.293-.356.452-.533ZM2820.226,2016a.424.424,0,0,1,.391-.1c.32.3.6.637.927.992-.511.291-.9-.26-1.434-.238A2.362,2.362,0,0,1,2820.226,2016Zm.123,3.454c0,.1-.213.318-.306.306-.649-.081-.229-.632-.465-.992C2820.164,2018.758,2820.336,2019.057,2820.349,2019.451Zm-4.724-.634a11.294,11.294,0,0,1,1.179-.62,5.479,5.479,0,0,1,.463.718,1.918,1.918,0,0,1,.073.574c-.217.007-.494.1-.637,0-.267-.185-.439-.289-.716-.02-.064.063-.423-.038-.486-.152A.524.524,0,0,1,2815.624,2018.818Zm-3.961.032c.129-.062.343.053.52.091.014.057.03.114.044.17l-.492.493c-.083-.093-.236-.187-.235-.279C2811.5,2019.158,2811.553,2018.9,2811.663,2018.85Zm-5.34.034c.1-.015.363.309.367.48.01.439-.3.525-.774.421C2806.087,2019.447,2805.782,2018.961,2806.323,2018.884Zm-.8-1.9c.545,0,.539.38.524.675.008.467-.024.8-.534.8s-.711-.179-.711-.619C2804.8,2017.327,2805.085,2016.987,2805.524,2016.983Zm-3.056-1.062c.457.228.382.633.425,1C2802.281,2016.978,2802.263,2016.933,2802.468,2015.921Zm-6.861-.991h.153c.063.135.177.272.173.405,0,.118-.138.232-.215.348a2.053,2.053,0,0,1-.255-.449C2795.442,2015.152,2795.556,2015.033,2795.608,2014.931Zm-.812,3.612c.044-.1.3-.107.458-.156a1.074,1.074,0,0,1,.05.4,5.425,5.425,0,0,1-.3.689A.682.682,0,0,1,2794.8,2018.543Zm-11.075-.949.371.383-.281.358a2.985,2.985,0,0,1-.26-.5C2783.533,2017.778,2783.66,2017.676,2783.721,2017.594Zm-3.2-3.018c-.069.824-.137,1.626-.209,2.483-.166-.077-.248-.094-.251-.12a15.989,15.989,0,0,1-.133-1.7C2779.932,2014.939,2780.006,2014.563,2780.522,2014.576Zm-3,1.077a1.2,1.2,0,0,1,.311.215.981.981,0,0,1,.155.385c.094.452.325.491.718.318a1.027,1.027,0,0,1,.6.042c.035.009.066.315.01.355a1.02,1.02,0,0,1-.6.26,1.657,1.657,0,0,1-1.354-1.312Zm-8.555,8.526a.519.519,0,0,1,.285-.257c1-.413,1.026-.458.691-1.5a.758.758,0,0,1,0-.19,2.044,2.044,0,0,1,.3.049c.436.142.553-.042.557-.461a3.756,3.756,0,0,1,.114-.707c-.136-.178-.271-.356-.4-.538h.454c.013-.381.008-.763.011-1.144a2.89,2.89,0,0,1,.031-.751c.029-.1.274-.146.42-.217.055.15.2.361.151.441-.411.627-.158,1.119.189,1.671h7.009c.01-.293.014-.642.462-.669.377-.023.466.213.477.536a.855.855,0,0,1,0,.134h3.789c-.066-.487,0-.791.407-1.013a.778.778,0,0,0,.238-.608c-.012-.4.237-.5.485-.381a1.023,1.023,0,0,1,.447.618.488.488,0,0,1-.363.646c-.223.068-.394.307-.585.472-.095.082-.19.166-.3.264h23l-.085-.085.479-.488c.1.112.3.265.279.328a1.127,1.127,0,0,1-.144.244h7.142c.09-.141.183-.283.277-.433a1.854,1.854,0,0,1,.312.433h.822a.284.284,0,0,1-.054-.114c-.022-.115.173-.271.271-.408l.378.487-.033.036h5.856a31.788,31.788,0,0,1-17.341,12.006c.09.112.182.231.287.359-.326.235-.548.352-.643-.11a.473.473,0,0,0-.061-.14,32.372,32.372,0,0,1-8.152,1.039,32.006,32.006,0,0,1-16.978-4.826.325.325,0,0,1-.288.111c-.374-.043-.41-.3-.42-.565a31.853,31.853,0,0,1-7.184-6.52,5.735,5.735,0,0,0-.359,2.364.978.978,0,0,1-.517.985c-.248.146-.38.5-.539.782a1.771,1.771,0,0,0-.114.439A2.084,2.084,0,0,1,2768.97,2024.18Zm49.794,1.66c-.005-.341.026-.643.463-.652a.748.748,0,0,1,.769.749c.018.44-.244.522-.6.48C2818.919,2026.512,2818.771,2026.263,2818.764,2025.84Zm.1,2.631-.386.372c-.061-.1-.185-.21-.17-.3a4.22,4.22,0,0,1,.215-.647Zm-7.373,2.68a.7.7,0,0,1,.368-.468c.094-.037.346.173.44.325a2.918,2.918,0,0,1,.227.666C2811.831,2031.94,2811.4,2031.726,2811.491,2031.151Zm.654,4.147c.021.1-.156.243-.243.366l-.4-.525.342-.391A2.061,2.061,0,0,1,2812.145,2035.3Zm-2.208-1.064-.275.055a5.989,5.989,0,0,1-.177-.744c0-.041.206-.11.316-.166Zm-10,1.036a4.218,4.218,0,0,1,.469-.554c.1.12.3.28.269.352a3.718,3.718,0,0,1-.479.692C2800.041,2035.486,2799.9,2035.324,2799.932,2035.27Zm.012,2.784a.458.458,0,0,1-.361.257c-.347-.016-.78.02-.773-.565.02-.331.117-.629.558-.635C2799.633,2037.108,2800.009,2037.674,2799.944,2038.054Zm-5.058.107-.451.424c-.191-.235-.375-.375-.419-.552-.022-.083.291-.357.332-.334A3.3,3.3,0,0,1,2794.886,2038.161Zm-2.07,1.154c.008.066-.191.233-.243.214-.112-.042-.255-.169-.266-.274s.114-.237.248-.48A2.123,2.123,0,0,1,2792.816,2039.315Zm-9.889-4.645c-.182.044-.36.1-.652.189a9.682,9.682,0,0,1,.027-1.374c.015-.1.4-.247.562-.2a.912.912,0,0,1,.578.466A.668.668,0,0,1,2782.927,2034.671Zm-1.989-2.021-.206-.292.15-.053a5.755,5.755,0,0,1-.1-1,1.491,1.491,0,0,1,.272-.76c.044-.06.462.056.611.2.27.255.078.519-.091.784a9.546,9.546,0,0,0-.4.869A1.249,1.249,0,0,1,2780.938,2032.65Zm.1,1.641c-.006.071-.12.149-.2.189-.037.018-.134-.037-.17-.084-.125-.161.087-.759.382-.945C2781.052,2033.758,2781.066,2034.026,2781.042,2034.291Zm-3.61-3.716c.117.048.19.2.282.307-.125.1-.242.267-.379.286-.491.07-.572-.319-.733-.808A6.274,6.274,0,0,1,2777.432,2030.574Zm-1.362-.578a.826.826,0,0,1-1.053-.122.492.492,0,0,1,.078-.39c.5-.047,1-.061,1.508-.067.048,0,.1.107.133.148C2776.491,2029.721,2776.271,2029.845,2776.07,2030Zm-2.506-2.518c.027.028-.082.194-.138.291-.157.263-.319.521-.521.85a1.4,1.4,0,0,1-.1-.425,2.182,2.182,0,0,1,.154-.642.423.423,0,0,1,.27-.242A.485.485,0,0,1,2773.564,2027.478Zm-7.965-12.667c.1.216.216.43.3.654.009.022-.2.179-.242.156a3.163,3.163,0,0,1-.452-.393Zm-1.3,5.341c.24-.472.539-.914.84-1.408.426.179.437.624.6,1.026-.561.031-.958.2-.872.849a.316.316,0,0,1-.2.238.389.389,0,0,1-.318-.159A.78.78,0,0,1,2764.3,2020.152Zm-.7-1.364.438.356-.338.389c-.106-.131-.261-.249-.3-.4C2763.366,2019.044,2763.519,2018.906,2763.592,2018.789Zm-2.266-3.552c.03-.146.192-.266.294-.4a2.847,2.847,0,0,1,.025.44c-.017.2-.065.406-.1.61l-.194-.005A2.529,2.529,0,0,1,2761.326,2015.236Zm-5.771.861q.1.322.208.644l-.378.091q-.073-.327-.146-.653Zm-11.8.023a.5.5,0,0,1,.349.28c.031.129-.093.3-.148.446a1.971,1.971,0,0,1-.373-.187,3.66,3.66,0,0,1-.376-.414A1.637,1.637,0,0,1,2743.753,2016.12Zm12.559,4.46a.3.3,0,0,1-.048-.148c0-.144.18-.285.281-.428l.523.412-.19.164h5.9a38.485,38.485,0,0,0,13.813,14.233,1.025,1.025,0,0,1,.387-.394c.309-.128.445-.241.425-.592-.008-.147.177-.419.294-.431.162-.017.349.152.514.259.1.066.171.183.276.24.033.018.192-.089.188-.129a1.554,1.554,0,0,0-.115-.358,1.617,1.617,0,0,1-.165-.542c0-.092.211-.224.344-.25.413-.083.531.111.479.526a4.812,4.812,0,0,0,.075,1.006c.015.175.108.413.028.508-.094.112-.335.127-.514.134a3.361,3.361,0,0,1-.579-.074,1.842,1.842,0,0,0-.059.994c.531.285,1.072.555,1.618.815-.056-.345.167-.544.521-.473a.675.675,0,0,0,.819-.36c.087-.14.405-.146.623-.183.03-.005.149.19.125.241a.6.6,0,0,1-.273.266c-.274.121-.452.248-.293.59a1.528,1.528,0,0,1,.143.666c.285.119.571.232.859.344l.484-.4a2.587,2.587,0,0,1,.232.411c-.071.063-.146.122-.22.183a38.551,38.551,0,0,0,8.2,2.075c-.021-.053-.047-.1-.065-.159a.53.53,0,0,1,.352-.224c.154.033.28.2.479.357l-.08.112a39.226,39.226,0,0,0,4.72.288,38.644,38.644,0,0,0,16.858-3.841c.066-.1.139-.195.207-.293l.12.135a38.213,38.213,0,0,0,10.607-7.791c-.3-.236-.552-.528-.839-.8l.538-.431-.416-.285c.476-.172.935.026.891.439a.8.8,0,0,0,.207.677,38.851,38.851,0,0,0,5.467-7.487h5.567c-.015-.043-.031-.089-.044-.136a1.048,1.048,0,0,0-1.521-.716c-.4.17-.56-.012-.644-.347-.105-.422-.186-.851-.277-1.276,0-.018-.016-.037-.011-.051.2-.636.372-1.283.621-1.9.057-.14.381-.172.682-.294-.26,1.1-.26,1.1.707,1.2.541.058.7.242.652.788a2.033,2.033,0,0,1-.138.554c-.333.83-.335.825.312,1.481a.632.632,0,0,1,.209.35,2.187,2.187,0,0,1-.018.342h13.914c-.421,1.212-.89,2.4-1.388,3.569a.791.791,0,0,1,.083.19c.187.712.3,1.444.443,2.18-.449-.006-.7-.24-.742-.788a.822.822,0,0,0-.221-.578,56.64,56.64,0,0,1-17.312,21.818v0c-.074.591.267.765.767.821a1.117,1.117,0,0,1,1.125.817c.11.35.559.592.849.889.129.131.243.276.377.431-.077.122-.112.237-.186.273a.331.331,0,0,1-.276-.028c-.629-.405-1.268-.8-1.867-1.246a3.6,3.6,0,0,1-.631-.745,4.2,4.2,0,0,1-.485-.724.742.742,0,0,1-.056-.207,57.014,57.014,0,0,1-6.472,4.21,1.563,1.563,0,0,0,.166.05c.483.116.983.151,1.475.229.093.015.221.046.258.111s-.029.182-.073.263a2.024,2.024,0,0,1-.3.475.631.631,0,0,1-.422.212.471.471,0,0,1-.331-.311c-.043-.517-.325-.588-.778-.584a1.778,1.778,0,0,1-.633-.1,56.616,56.616,0,0,1-22.286,6.622,1.483,1.483,0,0,1-.279.036l-.022-.012c-1.446.111-2.9.17-4.371.17a56.869,56.869,0,0,1-8.218-.6c-.022.076-.048.158-.083.248a9.381,9.381,0,0,1-.964-.292.376.376,0,0,1-.151-.141,56.743,56.743,0,0,1-26.029-11.646l-.006,0-.007-.014a56.9,56.9,0,0,1-5.587-5.1c.005.039.01.077.015.116l-.108.088c-.129-.1-.352-.181-.367-.295a1.35,1.35,0,0,1,.012-.393,56.51,56.51,0,0,1-4.5-5.463.734.734,0,0,1-.86.636c-.654-.035-.716.042-.834.639-.051.254-.2.606-.4.689a1.385,1.385,0,0,1-1.33.047,4.757,4.757,0,0,1,.556-1.1,6.5,6.5,0,0,1,1.007-.7,1.1,1.1,0,0,0,.33-.4c.189-.4.35-.821.532-1.228a56.438,56.438,0,0,1-6.606-13.136Zm-14.544,10.642c.107,0,.209.137.312.212-.1.059-.218.184-.3.165a5.988,5.988,0,0,1-.774-.279A4.731,4.731,0,0,1,2741.768,2031.222Zm-3.669-13.964c.391,0,.683.149.711.586.028.422-.355.7-1.164.71-.047-.043-.328-.177-.342-.334A.866.866,0,0,1,2738.1,2017.259Z" transform="translate(-2735.162 -1938.616)" fill="#d9b771"/>
      </g>
    </g>
  </g>
</svg>
