<svg xmlns="http://www.w3.org/2000/svg" width="154.893" height="154.894" viewBox="0 0 154.893 154.894">
  <g id="Group_429" data-name="Group 429" transform="matrix(0.966, -0.259, 0.259, 0.966, -3854.831, -841.426)">
    <g id="Group_422" data-name="Group 422" transform="translate(3519.232 1853.163)">
      <path id="Path_714" data-name="Path 714" d="M3554.162,1892.872l4.079,8.242-1.551,1.521-5.516-2.879,2.726,5.615-1.542,1.512-8.169-4.229,1.5-1.469,5.711,3-2.832-5.828,1.338-1.311,5.762,3.022-2.884-5.846Z" transform="translate(-3544.188 -1882.818)" fill="#d9b771"/>
      <path id="Path_715" data-name="Path 715" d="M3583.693,1887.759l.816,1.4-5.852,3.4-4.391-7.557,5.71-3.318.816,1.4-3.973,2.308.954,1.641,3.509-2.039.789,1.36-3.508,2.039,1.016,1.749Z" transform="translate(-3561.748 -1876.289)" fill="#d9b771"/>
      <path id="Path_716" data-name="Path 716" d="M3608.214,1880.777a4.327,4.327,0,0,1-2.049-1.131,4.7,4.7,0,0,1-1.173-4.507,4.339,4.339,0,0,1,1.238-1.986,5.418,5.418,0,0,1,4.292-1.3,4.121,4.121,0,0,1,1.781.723l-.954,1.487a2.8,2.8,0,0,0-2.385-.437,2.919,2.919,0,0,0-1.312.709,2.526,2.526,0,0,0-.71,1.21,3.124,3.124,0,0,0,.73,2.8,2.528,2.528,0,0,0,1.21.711,2.912,2.912,0,0,0,1.491-.02,2.781,2.781,0,0,0,1.866-1.557l1.558.833a4.048,4.048,0,0,1-1.206,1.514,5.152,5.152,0,0,1-1.894.906A5.017,5.017,0,0,1,3608.214,1880.777Z" transform="translate(-3579.585 -1870.512)" fill="#d9b771"/>
      <path id="Path_717" data-name="Path 717" d="M3629.77,1877.263a4.35,4.35,0,0,1-1.774-1.548,4.649,4.649,0,0,1-.182-4.629,4.354,4.354,0,0,1,1.645-1.684,5.412,5.412,0,0,1,4.9-.194,4.457,4.457,0,0,1,.312,7.86,5.408,5.408,0,0,1-4.9.194Zm3.789-1.643a2.558,2.558,0,0,0,.94-1.031,3.128,3.128,0,0,0-.114-2.895,2.557,2.557,0,0,0-1.02-.953,2.92,2.92,0,0,0-2.794.111,2.539,2.539,0,0,0-.94,1.03,3.126,3.126,0,0,0,.115,2.894,2.554,2.554,0,0,0,1.018.954,2.924,2.924,0,0,0,2.795-.11Z" transform="translate(-3592.7 -1868.715)" fill="#d9b771"/>
      <path id="Path_718" data-name="Path 718" d="M3654.759,1869.555l2,.327-1.146,7,4.327.708-.267,1.626-6.322-1.034Z" transform="translate(-3607.917 -1869.206)" fill="#d9b771"/>
      <path id="Path_719" data-name="Path 719" d="M3673.19,1873.538l1.915.651-2.283,6.714,4.149,1.411-.531,1.56-6.063-2.062Z" transform="translate(-3617.859 -1871.531)" fill="#d9b771"/>
      <path id="Path_720" data-name="Path 720" d="M3693.339,1890.341l-.785,1.421-5.926-3.268,4.221-7.653,5.784,3.19-.783,1.421-4.024-2.219-.916,1.662,3.552,1.96-.759,1.377-3.554-1.96-.976,1.771Z" transform="translate(-3627.347 -1875.795)" fill="#d9b771"/>
      <path id="Path_721" data-name="Path 721" d="M3706.7,1902.071a4.329,4.329,0,0,1-.263-2.326,4.694,4.694,0,0,1,3-3.564,4.332,4.332,0,0,1,2.336-.14,5.419,5.419,0,0,1,3.547,2.746,4.127,4.127,0,0,1,.441,1.871l-1.766.082a2.8,2.8,0,0,0-1.022-2.2,2.923,2.923,0,0,0-1.337-.66,2.523,2.523,0,0,0-1.4.121,3.126,3.126,0,0,0-1.866,2.217,2.529,2.529,0,0,0,.122,1.4,2.915,2.915,0,0,0,.879,1.2,2.78,2.78,0,0,0,2.349.621l.223,1.754a4.051,4.051,0,0,1-1.933-.108,5.135,5.135,0,0,1-1.834-1.02A5.02,5.02,0,0,1,3706.7,1902.071Z" transform="translate(-3638.877 -1884.612)" fill="#d9b771"/>
      <path id="Path_722" data-name="Path 722" d="M3727.107,1910.627l-1.772-2.164,1.275-1.044,4.824,5.893-1.275,1.044-1.771-2.164-5.488,4.493-1.281-1.565Z" transform="translate(-3647.775 -1891.311)" fill="#d9b771"/>
    </g>
    <g id="Group_423" data-name="Group 423" transform="translate(3509.232 1918.046)">
      <path id="Path_723" data-name="Path 723" d="M3524.875,2017.535a4.706,4.706,0,0,1,.148-1.711l1.667.117a4.654,4.654,0,0,0-.159,1.482,5,5,0,0,0,.3,1.539,2.466,2.466,0,0,0,.68,1.106.773.773,0,0,0,.781.151.653.653,0,0,0,.4-.407,1.856,1.856,0,0,0,.094-.7q-.015-.4-.1-1.062a14.093,14.093,0,0,1-.121-1.7,2.658,2.658,0,0,1,.337-1.288,2.056,2.056,0,0,1,1.154-.911,2.432,2.432,0,0,1,1.437-.091,2.773,2.773,0,0,1,1.35.827,5.087,5.087,0,0,1,1.042,1.778,6.762,6.762,0,0,1,.378,1.6,4.87,4.87,0,0,1-.055,1.51l-1.658-.054a4.865,4.865,0,0,0-.193-2.51,2.273,2.273,0,0,0-.692-1.082.838.838,0,0,0-.819-.131.708.708,0,0,0-.465.671,7.4,7.4,0,0,0,.09,1.49,13.944,13.944,0,0,1,.121,1.7,2.71,2.71,0,0,1-.325,1.284,2.008,2.008,0,0,1-1.143.907,2.389,2.389,0,0,1-1.428.081,2.82,2.82,0,0,1-1.354-.839,5.126,5.126,0,0,1-1.043-1.784A7.18,7.18,0,0,1,3524.875,2017.535Z" transform="translate(-3524.858 -2013.993)" fill="#d9b771"/>
      <path id="Path_724" data-name="Path 724" d="M3543,2037.17l-7.635,4.255-.985-1.767,3.13-1.745-1.933-3.468-3.13,1.744-.985-1.767,7.634-4.255.985,1.767-3.011,1.677,1.933,3.468,3.01-1.677Z" transform="translate(-3528.713 -2023.436)" fill="#d9b771"/>
      <path id="Path_725" data-name="Path 725" d="M3548.731,2058.451a4.457,4.457,0,0,1,5.854-5.253,5.409,5.409,0,0,1,3.274,3.647A4.458,4.458,0,0,1,3552,2062.1a5.415,5.415,0,0,1-3.273-3.647Zm3.684,1.87a2.546,2.546,0,0,0,1.393.066,3.119,3.119,0,0,0,2.156-1.934,2.55,2.55,0,0,0,.084-1.392,2.927,2.927,0,0,0-1.867-2.081,2.552,2.552,0,0,0-1.394-.068,3.124,3.124,0,0,0-2.156,1.935,2.559,2.559,0,0,0-.084,1.392,2.925,2.925,0,0,0,1.869,2.081Z" transform="translate(-3538.718 -2036.722)" fill="#d9b771"/>
      <path id="Path_726" data-name="Path 726" d="M3571.675,2076.344l-.914,1.341-5.594-3.807,4.917-7.226,5.461,3.716-.914,1.342-3.8-2.586-1.068,1.569,3.355,2.282-.885,1.3-3.354-2.283-1.139,1.672Z" transform="translate(-3547.344 -2044.736)" fill="#d9b771"/>
      <path id="Path_727" data-name="Path 727" d="M3595.97,2080l3.824,1.072a5.579,5.579,0,0,1,2.276,1.2,4.061,4.061,0,0,1,1.222,1.93,4.663,4.663,0,0,1-1.24,4.424,4.071,4.071,0,0,1-2.048,1.015,5.6,5.6,0,0,1-2.57-.156l-3.823-1.073Zm1.816,7.862a2.933,2.933,0,0,0,2.21-.139,2.9,2.9,0,0,0,1.069-3.812,2.937,2.937,0,0,0-1.816-1.267l-1.779-.5-1.463,5.218Z" transform="translate(-3563.222 -2052.528)" fill="#d9b771"/>
      <path id="Path_728" data-name="Path 728" d="M3621.7,2094.372a4.354,4.354,0,0,1-1.6-1.725,4.648,4.648,0,0,1,.3-4.622,4.356,4.356,0,0,1,1.812-1.5,5.406,5.406,0,0,1,4.89.318,4.457,4.457,0,0,1-.51,7.849,5.411,5.411,0,0,1-4.89-.318Zm3.94-1.239a2.552,2.552,0,0,0,1.042-.927,3.125,3.125,0,0,0,.188-2.89,2.559,2.559,0,0,0-.914-1.054,2.93,2.93,0,0,0-2.791-.182,2.558,2.558,0,0,0-1.042.927,3.126,3.126,0,0,0-.188,2.891,2.55,2.55,0,0,0,.914,1.054,2.922,2.922,0,0,0,2.791.181Z" transform="translate(-3577.744 -2056.08)" fill="#d9b771"/>
      <path id="Path_729" data-name="Path 729" d="M3653.62,2085.23l.806,8.7-1.653.153-4.829-4.882.489,5.284-1.989.184-.806-8.7,1.666-.154,4.816,4.883-.49-5.283Z" transform="translate(-3592.292 -2055.582)" fill="#d9b771"/>
      <path id="Path_730" data-name="Path 730" d="M3677.463,2087.859l-3.9,1.106-.235,2.012-1.994.566,1.365-9.472,1.922-.544,6.142,7.344-2.042.579Zm-1.031-1.3-2.246-2.841-.42,3.6Z" transform="translate(-3606.608 -2053.421)" fill="#d9b771"/>
      <path id="Path_731" data-name="Path 731" d="M3688.872,2075.138l-2.492,1.269-.748-1.469,6.786-3.456.748,1.469-2.492,1.27,3.218,6.319-1.8.917Z" transform="translate(-3614.645 -2047.555)" fill="#d9b771"/>
      <path id="Path_732" data-name="Path 732" d="M3702.785,2068.686l1.636-1.189,5.141,7.068-1.636,1.19Z" transform="translate(-3624.298 -2045.229)" fill="#d9b771"/>
      <path id="Path_733" data-name="Path 733" d="M3719.01,2063.266a4.357,4.357,0,0,1-2.348.167,4.65,4.65,0,0,1-3.412-3.133,4.353,4.353,0,0,1-.034-2.354,5.409,5.409,0,0,1,3.314-3.61,4.458,4.458,0,0,1,5.794,5.32,5.406,5.406,0,0,1-3.315,3.61Zm1.506-3.847a2.556,2.556,0,0,0-.069-1.393,3.124,3.124,0,0,0-2.134-1.959,2.557,2.557,0,0,0-1.394.051,2.927,2.927,0,0,0-1.891,2.06,2.562,2.562,0,0,0,.068,1.393,3.122,3.122,0,0,0,2.134,1.96,2.554,2.554,0,0,0,1.394-.051,2.925,2.925,0,0,0,1.892-2.06Z" transform="translate(-3629.319 -2037.397)" fill="#d9b771"/>
      <path id="Path_734" data-name="Path 734" d="M3728.894,2031.305l7.7,4.13-.784,1.464-6.736,1.333,4.676,2.507-.944,1.76-7.7-4.13.791-1.474,6.73-1.322-4.677-2.508Z" transform="translate(-3636.346 -2024.1)" fill="#d9b771"/>
      <path id="Path_735" data-name="Path 735" d="M3744.546,2021.768a4.708,4.708,0,0,1-1.178,1.251l-1.234-1.126a4.649,4.649,0,0,0,1.044-1.064,5.015,5.015,0,0,0,.719-1.394,2.472,2.472,0,0,0,.152-1.29.771.771,0,0,0-.518-.6.65.65,0,0,0-.568.07,1.835,1.835,0,0,0-.509.491q-.237.323-.581.894a14.227,14.227,0,0,1-.959,1.407,2.656,2.656,0,0,1-1.063.8,2.057,2.057,0,0,1-1.471,0,2.429,2.429,0,0,1-1.183-.821,2.768,2.768,0,0,1-.545-1.485,5.063,5.063,0,0,1,.286-2.041,6.727,6.727,0,0,1,.7-1.492,4.826,4.826,0,0,1,.981-1.151l1.265,1.071a4.866,4.866,0,0,0-1.405,2.089,2.272,2.272,0,0,0-.129,1.278.84.84,0,0,0,.563.611.709.709,0,0,0,.781-.238,7.308,7.308,0,0,0,.853-1.224,14.478,14.478,0,0,1,.96-1.407,2.72,2.72,0,0,1,1.051-.806,2.007,2.007,0,0,1,1.459,0,2.387,2.387,0,0,1,1.17.822,2.822,2.822,0,0,1,.541,1.5,5.105,5.105,0,0,1-.289,2.047A7.117,7.117,0,0,1,3744.546,2021.768Z" transform="translate(-3643.076 -2014.121)" fill="#d9b771"/>
    </g>
    <g id="Group_425" data-name="Group 425" transform="translate(3497.232 1842.076)">
      <g id="Group_424" data-name="Group 424" transform="translate(0 0)">
        <path id="Path_736" data-name="Path 736" d="M3747.9,2086.6a1.761,1.761,0,0,1-.11.294q.521-.54,1.024-1.089A1.256,1.256,0,0,0,3747.9,2086.6Z" transform="translate(-3638.233 -1978.951)" fill="#d9b771"/>
        <path id="Path_737" data-name="Path 737" d="M3592.129,1960.077a1.022,1.022,0,0,1-.419-.64c-.041-.264.124-.519.489-.394a5.594,5.594,0,0,1,.967.372.451.451,0,0,1,.152.173,63.146,63.146,0,0,0,11.255-8.6c-.476-.87-.153-1.9-.135-2.877.017-.914,0-1.828,0-2.833.544-.127.688-.65.731-1.266a.969.969,0,0,1,.549-.94c.456-.192.693-.09.92.355a4.895,4.895,0,0,1,.564.982,7.314,7.314,0,0,1,.116,1.657c-.009.792-.031.792.746,1.025a1.012,1.012,0,0,1,.173.076,62.864,62.864,0,0,0,8.02-11.4c-.227-.076-.246-.219-.241-.634l.165-.1.235.438a63.117,63.117,0,0,0,6.935-20.827c-.073.059-.2.207-.306.2-.57-.05-.427-.535-.463-.882-.011-.105.163-.336.234-.328.509.055.484.471.543.959q.2-1.361.34-2.729a2.315,2.315,0,0,1-.272.178c-.02.011-.2-.193-.188-.22a1.474,1.474,0,0,1,.385-.457c.028-.019.075-.009.128.01a63.6,63.6,0,0,0,.235-8.615.743.743,0,0,1-.207-.262c.06-.071.123-.142.191-.209a63.769,63.769,0,0,0-1.254-9.9l-.074.056c-.088-.149-.259-.31-.241-.444a.47.47,0,0,1,.185-.247q-.379-1.733-.856-3.448a1.313,1.313,0,0,1-.394.694.516.516,0,0,1-.418-.03.319.319,0,0,1-.091-.3c.2-.463.406-.921.617-1.379q-.662-2.242-1.493-4.441c-.076-.081-.133-.176-.121-.231,0-.014.01-.027.014-.041a62.8,62.8,0,0,0-5.749-11.382c-.172.116-.227.308-.244.686-.005.1.024.229-.023.309a2.264,2.264,0,0,1-.305.354c-.064-.123-.178-.244-.185-.372-.025-.488-.015-.977-.02-1.466a1.263,1.263,0,0,1,.1-.545q-1.063-1.592-2.235-3.131l-.235.1a1.724,1.724,0,0,1,.085-.3q-1.083-1.41-2.253-2.774a4.193,4.193,0,0,1-.8-.4l.258-.206c-.514-.582-1.037-1.159-1.575-1.726-.152-.035-.288-.1-.321-.176a.9.9,0,0,1-.055-.209c-.249-.258-.5-.517-.751-.771-.638-.637-1.288-1.255-1.946-1.859a2.582,2.582,0,0,0,.375.505c.334.28.274,1.13-.142,1.245a.639.639,0,0,1-.57-.243,7.67,7.67,0,0,1-.478-1.682c-.013-.09.1-.23.246-.345a62.917,62.917,0,0,0-12.763-8.881l-.175.175c-.087-.125-.271-.281-.241-.367,0-.006.006-.01.008-.016q-2.469-1.274-5.019-2.317a.4.4,0,0,1-.252-.04c-.267-.185-.439-.289-.716-.02-.064.063-.423-.038-.485-.152a.5.5,0,0,1,.026-.352,63.67,63.67,0,0,0-35.129-2.9c-.028.328-.055.655-.083,1-.167-.077-.249-.094-.251-.12-.025-.263-.057-.526-.083-.789q-.929.192-1.853.411c.125.142.316.126.583.009a1.037,1.037,0,0,1,.6.042c.035.009.066.315.01.355a1.019,1.019,0,0,1-.6.261,1.776,1.776,0,0,1-1-.568,63,63,0,0,0-6.257,1.889c.065.138.158.294.114.36-.412.628-.158,1.119.19,1.672a1.073,1.073,0,0,1-.009.932,5.159,5.159,0,0,0-.566,2.783.977.977,0,0,1-.516.985c-.248.146-.38.5-.539.782,0,.008,0,.018-.009.026a56.507,56.507,0,0,1,5.884-2.189,4.483,4.483,0,0,0-.519-.544.675.675,0,0,1,.89.336.507.507,0,0,1,.037.082,56.974,56.974,0,0,1,7.49-1.72,2.875,2.875,0,0,1,.506-.2c.042-.011.1.036.159.094q1.757-.26,3.527-.407c.062-.073.139-.159.207-.247.081.09.152.154.208.213q2.2-.169,4.406-.172a56.691,56.691,0,0,1,44.715,21.78.623.623,0,0,0,.13,0,.893.893,0,0,0,.423-.236c.119-.1.184-.3.308-.341a.421.421,0,0,1,.377.183c.043.127-.059.3-.1.459-.009.033-.024.064-.058.149l.316.19c-.014.049-.012.1-.032.108a1.768,1.768,0,0,1-.774.254q1.576,2.086,2.937,4.279c.448-.269.85.087,1.279.177.04-.113.068-.207.105-.3.055-.132.094-.346.182-.37.11-.029.256.125.4.153a1.129,1.129,0,0,0,.584.033,4.557,4.557,0,0,0,.75-.469,1.361,1.361,0,0,1,.225,1.776c-.33.375-.491-.036-.667-.111a13.633,13.633,0,0,0-1.381.161,6.161,6.161,0,0,0-.714.211q1.241,2.124,2.28,4.329a1.752,1.752,0,0,1,.213-.405l.463.4-.471.438a56.467,56.467,0,0,1,3.51,9.952.653.653,0,0,1,.208.01c.167.032.438.333.409.435a.473.473,0,0,1-.42.364,57.182,57.182,0,0,1,1.5,11.423.3.3,0,0,1,.135.163,1,1,0,0,0,.834.885c.136.035.332.3.3.4a2.3,2.3,0,0,1-.431.621,4.292,4.292,0,0,1-.654-.65c-.062-.1-.113-.208-.168-.313a56.575,56.575,0,0,1-15.729,39.817c.335.1.31.493.453.818-.434.135-.749.1-.816-.339a.378.378,0,0,1,.007-.113c-.168.172-.332.345-.5.515a56.447,56.447,0,0,1-17.5,11.918c-.054.055-.124.1-.161.137a1.03,1.03,0,0,0-.1-.027,56.745,56.745,0,0,1-14.348,4l.4.416c-.105.08-.288.244-.3.229a4.349,4.349,0,0,1-.411-.478l.173-.148a57.233,57.233,0,0,1-16.1-.051c-.29.295-.206.693-.159,1.114a8.35,8.35,0,0,1-.068,1.394l-.188.038a2.711,2.711,0,0,1-.2-.6c-.042-.448-.012-.9-.064-1.349a1.1,1.1,0,0,0-.284-.476.435.435,0,0,1-.126-.291,56.76,56.76,0,0,1-6.2-1.387c.012.188.019.383.034.593a1.082,1.082,0,0,1-.549-.739,56.709,56.709,0,0,1-31.769-23.857l-.275.139a1.476,1.476,0,0,1-.264-.483c-.007-.059.091-.13.19-.2-.131-.211-.257-.424-.386-.636h-.394c-.022-.107-.046-.213-.069-.319l.2-.106a56.586,56.586,0,0,1-7.481-21.973.625.625,0,0,1-.283.12c-.09,0-.178-.141-.268-.22a1.265,1.265,0,0,1,.36-.276c.035-.011.088.031.156.093a57.271,57.271,0,0,1-.277-10.3c-.564.06-.864-.327-.838-1.162.061-.26.137-.689.27-1.1a.507.507,0,0,1,.373-.255c.076-.008.243.195.253.313a2.149,2.149,0,0,0,.08.428,56.509,56.509,0,0,1,11.4-29.1c-.436.073-.87.162-1.308.2-.088.008-.195-.174-.292-.269a1.32,1.32,0,0,1,.311-.192,2.758,2.758,0,0,1,.7-.13,3.091,3.091,0,0,1,.628.117q-.007.12-.015.239a57.046,57.046,0,0,1,4.917-5.608q1.568-1.568,3.227-2.988a1.242,1.242,0,0,0-.409-.408.77.77,0,0,1-.527-.8.664.664,0,0,0-.388-.493,1.073,1.073,0,0,1-.763-.777c-.063-.169-.244-.295-.371-.44-.139.155-.356.29-.4.469a.964.964,0,0,1-.876.83.618.618,0,0,1-.45-.193c-.052-.057.052-.268.1-.4a8.028,8.028,0,0,0,.521-1.346,1.024,1.024,0,0,0-.869-1.233q-1.747,1.509-3.407,3.165c-.25.251-.495.506-.741.76.008.038.021.075.027.113.009.064-.237.236-.368.236q-2.031,2.132-3.822,4.4l.459-.282c.043.153.089.306.129.46a.239.239,0,0,1-.007.1c-.042.207.13.584-.258.529-.162-.023-.286-.315-.488-.6q-1.52,1.938-2.869,3.964a1.007,1.007,0,0,0,.769.572,1.151,1.151,0,0,1,1.028,1.4,8.487,8.487,0,0,1-.2,1.1l-.148-.037c-.2-.5-.408-.995-.593-1.5a1.124,1.124,0,0,0-1.537-.475,63.164,63.164,0,0,0-9.8,30.824c.046-.051.116-.113.159-.163q.174.261.347.524l-.253.177a3.767,3.767,0,0,1-.261-.395,63.818,63.818,0,0,0,.283,9.712.429.429,0,0,1,.019.172,63.317,63.317,0,0,0,4.5,17.568.407.407,0,0,1,.205-.039c.153.008.358.324.414.533a.323.323,0,0,1-.229.432c.087.2.179.4.269.6a1.32,1.32,0,0,1,.249.045c0,.151-.014.3-.026.453a62.95,62.95,0,0,0,3.281,6.2l.023-.02a2.144,2.144,0,0,1,.338.407c.012.023-.013.065-.053.119a63.361,63.361,0,0,0,21.185,21.007c-.084-.092-.168-.185-.25-.277a1.408,1.408,0,0,1-.139-.234c.071-.036.139-.1.213-.1.389-.028,1.109.639,1.232,1.239a63.081,63.081,0,0,0,23.023,7.862c-.1-.1-.2-.2-.211-.308-.033-.469.347-.483.682-.518s.472.149.484.456c.02.509-.316.412-.592.418a63.438,63.438,0,0,0,39.751-7.82C3592.244,1960.149,3592.188,1960.114,3592.129,1960.077Zm30.862-55.44.619.534-.141.177c-.342.068-.536-.125-.627-.434C3622.819,1904.843,3622.937,1904.73,3622.991,1904.637Zm-.156,4.005a1.436,1.436,0,0,1,.337.309c-.1.095-.229.285-.288.265-.135-.046-.234-.2-.424-.374C3622.643,1908.74,3622.775,1908.614,3622.835,1908.642Zm-82.4-59.58-.359-.378.4-.433c.079.109.236.233.219.322A1.82,1.82,0,0,1,3540.433,1849.063Zm6.469-.83c-.036-.044-.254-.19-.248-.323.016-.3-.02-.713.465-.743.377-.023.466.214.477.536C3547.61,1848.072,3547.467,1848.268,3546.9,1848.232Zm4.7-3.383c.114.116.227.234.371.383l-.281.358a3.033,3.033,0,0,1-.26-.5C3551.416,1845.033,3551.543,1844.931,3551.6,1844.849Zm.991,2.249c-.223.068-.393.307-.585.472-.167.144-.33.292-.586.519-.12-.641-.113-1.009.365-1.268a.777.777,0,0,0,.238-.608c-.011-.4.238-.5.485-.38a1.023,1.023,0,0,1,.447.618A.487.487,0,0,1,3552.595,1847.1Zm10.593-1.054a5.27,5.27,0,0,1-.3.689.682.682,0,0,1-.206-.936c.043-.1.3-.107.458-.157A1.065,1.065,0,0,1,3563.188,1846.045Zm.415-3.107a2.02,2.02,0,0,1-.254-.45c-.023-.081.09-.2.142-.3l.154,0c.063.135.177.272.174.4S3563.68,1842.822,3563.6,1842.938Zm6.749.238c.457.228.382.633.424,1C3570.164,1844.233,3570.146,1844.188,3570.352,1843.176Zm3.045,2.534c-.5,0-.712-.179-.712-.619,0-.51.283-.85.722-.853.546,0,.539.38.524.675C3573.939,1845.38,3573.906,1845.715,3573.4,1845.71Zm.4,1.33c.172-.338-.133-.824.407-.9.1-.015.364.309.368.48C3574.583,1847.059,3574.275,1847.144,3573.8,1847.04Zm1.211,1.093-.384-.382.479-.488c.1.112.3.265.278.328A2.579,2.579,0,0,1,3575.01,1848.133Zm4.608-1.275c-.083-.093-.235-.187-.234-.279,0-.167.053-.422.162-.475.13-.062.344.052.521.091.014.056.029.113.044.17Zm2.553,1.867a.4.4,0,0,1-.1-.363c.163-.323.373-.623.584-.96.606.644.523,1.182-.117,1.378A.449.449,0,0,1,3582.171,1848.725Zm.694,1.2a2.439,2.439,0,0,1,.467-.566c.14-.094.38-.039.575-.049l.067.219-.91.6Zm1,2.186-.371-.408.462-.56a1.594,1.594,0,0,1,.254.576C3584.211,1851.851,3583.988,1851.982,3583.866,1852.113Zm.224-3.985c-.125-.135-.323-.255-.35-.407-.022-.115.172-.27.271-.408l.378.486Zm3.19,5.544c-.478.095-.626-.154-.633-.577-.005-.341.026-.643.464-.653a.749.749,0,0,1,.768.75C3587.9,1853.632,3587.635,1853.714,3587.28,1853.672Zm2.089,1.478c-.326.021-.636-.133-.593-.493.023-.193.293-.357.452-.534l.688.682C3589.642,1854.984,3589.511,1855.141,3589.369,1855.15Zm2.391-3.738q.082.362.163.724l-.32.068c-.03-.232-.068-.463-.078-.7C3591.523,1851.479,3591.678,1851.444,3591.76,1851.411Zm-.5,3.51.537-.43-.417-.285c.475-.172.935.026.891.44-.056.529.235.75.6.99.146.1.224.3.407.56C3592.271,1856.106,3591.838,1855.475,3591.257,1854.921Zm6.292,6.39-.63-.04a2.508,2.508,0,0,1,.062-.355,5.085,5.085,0,0,1,.605.086C3597.573,1861.1,3597.561,1861.208,3597.548,1861.311Zm.06-3.891c-.075.327-.262.366-.479.142a1.042,1.042,0,0,0-1.471-.282c-.3.181-.573-.133-.542-.423a3,3,0,0,1,.382-.906.19.19,0,0,1,.179-.025.286.286,0,0,1,.088.216c-.057.244-.278.561.077.67.223.068.519-.144.787-.168a5.52,5.52,0,0,1,.987.026c.038,0,.06.182.086.27C3597.668,1857.112,3597.643,1857.267,3597.608,1857.42Zm1.391,1.737c-.185-.131-.531-.274-.523-.391.016-.225.233-.436.366-.653.138.274.275.549.413.823Zm2.658,5.575.664.8C3601.774,1865.564,3601.468,1865.2,3601.658,1864.732Zm1.831-1.82c-.143-.152-.315-.276-.3-.324a1.921,1.921,0,0,1,.3-.416c.089.107.242.21.25.324S3603.608,1862.728,3603.489,1862.913Zm2.582,3.661c-.042.1-.151.217-.238.225a.329.329,0,0,1-.251-.194c-.108-.391-.184-.792-.278-1.225C3606.119,1865.535,3606.352,1865.934,3606.072,1866.573Zm.375-2.123a.531.531,0,0,1-.329.019c-.05-.021-.067-.186-.054-.279.053-.372.125-.741.2-1.158.842-.2,1.145-.042,1.115.661a.913.913,0,0,1-.37.528A1.66,1.66,0,0,1,3606.447,1864.45Zm1.581,4.626a.549.549,0,0,1-.362.3c-.089.02-.259-.132-.325-.246-.183-.311-.444-.65.122-.885.088-.036.106-.238.227-.536.176.255.353.407.386.585A1.8,1.8,0,0,1,3608.028,1869.076Zm1.632-.964c-.165-.056-.4-.281-.384-.407.024-.186.244-.346.38-.516l.528.546C3609.934,1867.924,3609.755,1868.144,3609.66,1868.112Zm3.733,14.849a1.854,1.854,0,0,1-.319-.466c-.027-.085.124-.227.287-.5a4.624,4.624,0,0,1,.281.735C3613.653,1882.792,3613.481,1882.884,3613.393,1882.961Zm1.671,4.081c-.479-.539-.464-.812.06-1.034C3615.1,1886.352,3615.087,1886.646,3615.064,1887.042Zm.8-10.656c-.125.251-.365.471-.412.729-.065.354-.248.527-.547.478-.138-.023-.233-.3-.365-.484a2.935,2.935,0,0,1,.281-.42,7.034,7.034,0,0,1,.728-.659,1.147,1.147,0,0,1,.428-.1A2.051,2.051,0,0,1,3615.86,1876.386Zm.462,2.477-.217-.169.341-.706c.1.159.287.334.263.473S3616.46,1878.73,3616.322,1878.863Zm4.137,42.913a7.269,7.269,0,0,1-.472.724l-.2-.045a7.114,7.114,0,0,1,.234-.935c.03-.079.258-.084.4-.123C3620.434,1921.525,3620.507,1921.681,3620.459,1921.776Zm1.118-15.456-.42.433c-.119-.134-.353-.291-.332-.4.034-.173.236-.312.367-.466Zm-.6-3.967c.212.185.332.445-.01.791l-.705-.823.127-.209A1.971,1.971,0,0,1,3620.973,1902.352Zm-.2-16.8-1.64,1.123c-.061-.354-.112-.654-.168-.979A1.706,1.706,0,0,1,3620.774,1885.548Zm-3.147-.726c-.021-.081.185-.312.275-.306.148.011.286.161.545.327-.24.18-.4.378-.5.354A.565.565,0,0,1,3617.628,1884.822Zm.547,16.008c.026-.123.269-.27.423-.282.6-.046.65.017.669.735-.038.039-.148.261-.292.286C3618.653,1901.626,3618.111,1901.123,3618.175,1900.83Zm.674,6.374c.124,0,.251.162.427.285l-.612.814c-.125-.155-.352-.306-.355-.463A.556.556,0,0,1,3618.848,1907.2Zm-1.039,6.919.206-.036c.094.272.2.542.273.819.013.047-.1.185-.129.177-.123-.033-.323-.09-.334-.163A5.129,5.129,0,0,1,3617.809,1914.123Zm-3.564,19.754c.108-.017.239.1.465.215-.233.159-.356.3-.492.315-.088.008-.194-.175-.292-.272C3614.032,1934.044,3614.128,1933.9,3614.245,1933.878Zm-.369,1.347.211-.071c.071.147.205.3.195.438s-.162.284-.252.426l-.154-.072Zm-1.17-5.363a2.757,2.757,0,0,1,.48.4l-.343.319-.425-.463C3612.517,1930.026,3612.664,1929.84,3612.706,1929.861Zm-1.307,5.571.418.4c-.186.1-.315.224-.4.2-.114-.031-.271-.183-.27-.282S3611.306,1935.537,3611.4,1935.433Zm-1.212,6.152.18,0c.078.131.245.286.218.389a1.917,1.917,0,0,1-.33.517c-.1-.093-.281-.2-.273-.277A2.889,2.889,0,0,1,3610.187,1941.585Zm-3.559-1.206c.143-.062.281-.138.423-.2.945-.442.966-.461,1.672.316a1,1,0,0,1,.136.8c-.119.463-.53.549-.989.512a1.376,1.376,0,0,1-1.462-.825A.4.4,0,0,1,3606.628,1940.379Zm-3.772,9.267a19.349,19.349,0,0,1-.508,2.059c-.086.249-.427.41-.758.706-.045-1.276.917-1.995,1.026-3.035l.181.038C3602.818,1949.492,3602.872,1949.577,3602.856,1949.646Zm.448-6.714c.025-.054.248-.068.342-.023a4.315,4.315,0,0,1,.627.41.254.254,0,0,1-.08.168.256.256,0,0,1-.225-.011c-.471-.466-.589-.111-.711.287a4.418,4.418,0,0,1-.228.506l-.251-.091C3602.948,1943.76,3603.109,1943.338,3603.3,1942.932Zm-2.147,3.163c.208-.212.38-.1.484.13.324.713.64,1.43.973,2.176.241-.212.48-.676,1.041-.344-.164.228-.3.449-.465.642a.709.709,0,0,1-1.232-.162c-.328-.587-.676-1.164-1.031-1.735C3600.713,1946.459,3600.971,1946.282,3601.157,1946.094Zm-6.272,6.506c.059.275.118.55.194.9-.136-.023-.311-.024-.318-.058-.054-.276-.076-.558-.107-.838Zm-75.917-91.863a.466.466,0,0,1,.454.017,10.164,10.164,0,0,1,.737.922c-.106.166-.651.2-1.024-.064C3518.889,1861.439,3518.764,1860.906,3518.969,1860.737Zm-3.465,2.564a6.509,6.509,0,0,1,1.007-.7,1.112,1.112,0,0,0,.33-.4c.206-.442.378-.9.583-1.343a.3.3,0,0,1,.257-.119.333.333,0,0,1,.211.182c.14.314.25.64.387.954a.757.757,0,0,1-.77,1.153c-.654-.035-.716.042-.833.639-.05.254-.2.607-.4.689a1.385,1.385,0,0,1-1.33.046A4.773,4.773,0,0,1,3515.5,1863.3Zm-3,1.455c.1.164.289.341.268.489s-.244.28-.4.378c-.024.015-.183-.189-.34-.356Zm-1.4,7.625.4.656-.4.588a4.147,4.147,0,0,1-.345-.844C3510.73,1872.674,3510.973,1872.516,3511.1,1872.381Zm-.533,1.5c.2.029.356.276.664.535-.3.272-.462.528-.661.566-.367.069-.444-.268-.454-.55C3510.1,1874.133,3510.211,1873.826,3510.563,1873.879Zm-4.64,13.341a.341.341,0,0,1,.3-.141c.073.017.149.171.166.274.081.5-.2.8-.791.775C3505.7,1887.808,3505.793,1887.5,3505.923,1887.219Zm-3.214-2.352c.034-.171.262-.3.4-.452.263.361.531.719.775,1.092.014.021-.173.173-.215.214C3503.057,1885.686,3502.625,1885.292,3502.709,1884.867Zm-.186,2.907c.164-.7.183-.692.906-.621a4.432,4.432,0,0,0,1.16-.2.64.64,0,0,1-.328.735,1.436,1.436,0,0,0-.381.516c-.176.319-.374.538-.786.386C3502.709,1888.444,3502.4,1888.3,3502.523,1887.774Zm-3.831,12.732a2.81,2.81,0,0,1-.614-.517c-.073-.106.057-.352.1-.535l.152,0,.5.9Zm2.039,14.487c0,.055-.153.157-.219.146a.287.287,0,0,1-.187-.2c-.021-.336-.009-.673-.009-1.01l.182-.041A1.6,1.6,0,0,1,3500.731,1914.992Zm.505-19.462c.153-.5.321-.99.516-1.471a.688.688,0,0,1,.844-.451,3.183,3.183,0,0,1,.805.378c.062.036.055.191.073.265-.02.382-.131.671-.552.622-.5-.059-.422.25-.4.556.042.652-.365.981-.926.759A.5.5,0,0,1,3501.236,1895.531Zm.471,21.871c-.118-.294-.241-.458-.225-.6.012-.108.208-.2.321-.292.084.13.233.26.232.389S3501.881,1917.147,3501.707,1917.4Zm.45-5.108a2.457,2.457,0,0,1-.462-.552c-.053-.12.083-.323.134-.489.145.115.337.2.419.351a1.563,1.563,0,0,1,.078.549Zm.463-9.438c-.135.105-.415.025-.63.028a1.62,1.62,0,0,1,.112-.483.808.808,0,0,1,1.106-.317A3.754,3.754,0,0,1,3502.62,1902.856Zm.438-4.095c-.089.032-.323-.07-.331-.13-.049-.387.109-.667.591-.8C3503.31,1898.2,3503.537,1898.589,3503.058,1898.761Zm.816,32.27c-.527.021-.512-.413-.536-.627-.055-.585.238-.714.572-.688.16.013.453.283.432.337C3504.21,1930.39,3504.566,1931,3503.874,1931.031Zm.276-11.567c0-.4-.167-.857.424-.911.347-.032.755.563.776,1.04.026.555-.391.538-.741.58C3503.949,1920.253,3504.218,1919.73,3504.15,1919.464Zm.457,14.194a3.24,3.24,0,0,0-.008-.662c-.084-.391.119-.488.438-.527.387-.047.4.164.4.471C3505.444,1933.741,3505.462,1933.741,3504.606,1933.658Zm4.57,1.668-.114-.038a3.643,3.643,0,0,1,.014-.682c.017-.088.189-.147.291-.219.043.111.147.241.118.328A4.046,4.046,0,0,1,3509.177,1935.326Zm.394-3.675.45-.531c.113.188.3.37.317.568.016.145-.18.314-.282.472Zm1.612,5.636c-.022.121-.313.317-.384.282a3.414,3.414,0,0,1-.627-.486l.162-.1c.058-.585.1-1.172.189-1.752a.424.424,0,0,1,.34-.245c.269.039.589.112.553.5C3511.356,1936.083,3511.292,1936.69,3511.183,1937.287Zm4.288,8.221-.462-.28a2.624,2.624,0,0,1,.612-.221c.114-.013.246.137.369.213Zm3.712.775c-.51.267-1.038.5-1.6.761-.041-.353-.071-.618-.1-.881-.3-.069-.794.1-.68-.521l.93.285c.408-.069.814-.155,1.225-.2a.376.376,0,0,1,.306.191C3519.3,1946.021,3519.26,1946.243,3519.183,1946.283Zm.9-.617a4.158,4.158,0,0,1-1.048-.538c-.085-.058-.032-.318-.043-.485l.167-.039a.927.927,0,0,0,1,.511c.145-.006.3.2.447.311C3520.425,1945.512,3520.214,1945.709,3520.081,1945.665Zm1.745,6.454c-.1.026-.267-.175-.507-.35l.532-.5c.139.159.348.3.387.486C3522.259,1951.854,3521.994,1952.076,3521.826,1952.119Zm4.116,0-.51-.484c.244-.2.4-.431.53-.417.16.017.445.3.419.357A2.257,2.257,0,0,1,3525.942,1952.121Zm2.951,6.722-.42-.458.433-.467a2,2,0,0,1,.335.57C3529.261,1958.578,3529.017,1958.724,3528.893,1958.843Zm2.315-1.973c-.024-.053.188-.305.3-.311s.255.166.467.323l-.385.411A1.839,1.839,0,0,1,3531.208,1956.87Zm1,4.186c-.118-.137-.32-.268-.331-.412s.17-.306.354-.6c.19.286.392.46.365.581C3532.564,1960.79,3532.35,1960.914,3532.213,1961.056Zm1.655-3.838c-.053.01-.214-.2-.2-.286a.394.394,0,0,1,.265-.269c.108-.009.227.129.448.272A2.021,2.021,0,0,1,3533.868,1957.219Zm9.055,5.416-.166.038c-.038-.238-.076-.475-.116-.73C3543.092,1961.979,3543.116,1962.059,3542.922,1962.635Zm3.673-1.712.341.393c-.131.105-.254.278-.4.293-.1.01-.217-.2-.326-.307Zm.625,6.052c-.123-.03-.188-.3-.33-.551l.488-.66a4.939,4.939,0,0,1,.214.754C3547.625,1966.768,3547.555,1967.054,3547.22,1966.974Zm.532-3.136a1.285,1.285,0,0,0-.921,1.194c0,.084-.5.238-.731.189a.676.676,0,0,1-.4-.533c.019-.246.274-.463.377-.713a6.959,6.959,0,0,0,.23-.872c.469.377.848.4,1.205,0,.031-.034.346.089.348.146C3547.873,1963.451,3547.862,1963.79,3547.752,1963.839Zm1.134,1.518c-.134-.131-.333-.243-.379-.4-.036-.124.117-.3.186-.459l.2-.009a2.288,2.288,0,0,1,.2.551C3549.108,1965.136,3548.961,1965.251,3548.886,1965.356Zm1.524,2.194a3.44,3.44,0,0,1-.291-.675c-.012-.07.157-.17.244-.258a2.252,2.252,0,0,1,.292.471C3550.68,1967.164,3550.553,1967.291,3550.41,1967.55Zm-.04-3.9c.142-.351.241-.593.339-.834l.188.073C3550.939,1963.2,3551.035,1963.546,3550.371,1963.65Zm5.156,3.917-.653-.886c-.02-.028-.057-.057-.058-.085-.006-.284-.015-.568,0-.852,0-.039.18-.115.2-.1.18.194.445.381.491.611A6.927,6.927,0,0,1,3555.526,1967.567Zm1.107-1.165a4.557,4.557,0,0,1,.721-.331.523.523,0,0,1,.418.12,2.471,2.471,0,0,1,.335.51C3557.412,1967,3556.855,1966.867,3556.634,1966.4Zm9.355-.741a1.48,1.48,0,0,1-1.466-.951.8.8,0,0,0-.32-.348c-.412-.286-.836-.554-1.273-.839a1.809,1.809,0,0,1,2.128-.323c.146.044.175.481.189.742.331.449.673.892.977,1.36C3566.26,1965.354,3566.089,1965.647,3565.989,1965.661Zm18.808-4.061a.567.567,0,0,1-.451.07,2.916,2.916,0,0,1-.546-.437c.011-.042.023-.083.034-.125a5.353,5.353,0,0,1,.738-.04.509.509,0,0,1,.359.2C3584.971,1961.332,3584.885,1961.548,3584.8,1961.6Z" transform="translate(-3497.571 -1842.076)" fill="#d9b771"/>
        <path id="Path_738" data-name="Path 738" d="M3550.811,1860.978a5.561,5.561,0,0,0,1.066,2.011c.736.633.941,1.665,1.9,2.133a1.742,1.742,0,0,1,.63.983,54,54,0,0,1,8.709-5.932c-.047-.076-.087-.144-.067-.169a2.2,2.2,0,0,1,.426-.356l.189.228q1.615-.859,3.275-1.6a1.986,1.986,0,0,1-.69-2.016.5.5,0,0,1,.272-.246c.96-.4.983-.438.662-1.431a.72.72,0,0,1,0-.182,1.969,1.969,0,0,1,.283.047c.417.136.529-.04.532-.441,0-.321.129-.64.152-.963.03-.439.013-.882.018-1.324a3.031,3.031,0,0,1,.024-.689A60.067,60.067,0,0,0,3550.811,1860.978Zm2.988,3.509a2.944,2.944,0,0,1-.4-.428c-.016-.025.2-.263.24-.245a3.38,3.38,0,0,1,.536.328Zm-.125-2.056c-.678,0-1-.2-.99-.564.014-.422.517-.749,1.087-.743.5.005.457.323.409.681C3554.28,1862.2,3554.094,1862.43,3553.674,1862.431Zm.373-2.1c-.075-.126-.222-.262-.2-.374.02-.135.179-.25.279-.373l.264.421Zm1.139.45c-.014.033-.083.042-.127.063l-.2.185a2.373,2.373,0,0,1-.145-.441.967.967,0,0,1,.027-.495,2.482,2.482,0,0,1,.394-.558c.073-.086.208-.2.283-.184.1.025.258.2.238.259C3555.526,1860,3555.353,1860.39,3555.186,1860.776Zm1.887-1.644c-.072.194-.274.353-.306.546a2.315,2.315,0,0,0,.146.723l-.345.41a2.137,2.137,0,0,1-.263-.491c-.058-.238-.029-.5-.075-.739a.68.68,0,0,1,.45-.794c.09-.044.272-.063.31-.014A.439.439,0,0,1,3557.073,1859.132Z" transform="translate(-3527.494 -1847.305)" fill="#d9b771"/>
      </g>
      <path id="Path_739" data-name="Path 739" d="M3630.381,1954.447c-.059-.534-.346-.786-1.029-.764l.494-.582c.383.319.633.893,1.2.721a39.919,39.919,0,0,0,1.173-28.014c-.057-.068-.1-.137-.088-.163s.014-.027.021-.041a39.27,39.27,0,0,0-1.477-3.762,1.152,1.152,0,0,1-.458.041l.22-.578a40.008,40.008,0,0,0-21.084-19.926c.005.048.011.1.019.144s-.166.188-.2.171c-.128-.056-.307-.149-.331-.257a1.519,1.519,0,0,1-.024-.266,39.713,39.713,0,0,0-14.355-2.673c-.748,0-1.492.026-2.233.067-.068.089-.138.175-.206.264-.029-.08-.073-.161-.1-.241a39.376,39.376,0,0,0-19.779,6.765.437.437,0,0,1-.121.2,2.01,2.01,0,0,1-.657.347,40.2,40.2,0,0,0-5.007,4.239,39.447,39.447,0,0,0-11.47,24.434,5.508,5.508,0,0,1,.246.587l-.313.363,0,0c-.061.9-.1,1.812-.1,2.727a39.875,39.875,0,0,0,1.757,11.741c.058-.043.12-.088.129-.079.188.179.364.373.543.563l-.189.164-.424-.467a39.334,39.334,0,0,0,5.995,11.754.559.559,0,0,1,.117-.087c0,.084,0,.163,0,.239a40.5,40.5,0,0,0,3.712,4.28c.591.59,1.2,1.152,1.822,1.7a.529.529,0,0,1,.507-.451,1.261,1.261,0,0,1,.73.382c.1.083.062.318.086.484a2.8,2.8,0,0,1-.5.01,4.538,4.538,0,0,1-.448-.1,39.764,39.764,0,0,0,46.115,4.111l-.03-.027.036-.128c.1-.007.2-.017.3-.027a40.033,40.033,0,0,0,15.688-17.618C3630.533,1954.646,3630.391,1954.539,3630.381,1954.447Zm.678-11.716c-.452-.406-.441-.5.106-.886C3631.323,1942.157,3631.5,1942.45,3631.059,1942.731Zm1.4-3.786.5.561c-.223.157-.4.354-.48.321-.154-.057-.364-.262-.354-.387C3632.139,1939.267,3632.337,1939.109,3632.457,1938.945Zm-.592,6.008c-.116.081-.257.248-.34.223-.129-.039-.22-.209-.328-.324.124-.106.234-.271.374-.3s.3.084.45.135Zm-.275-5-.743-.166a1.3,1.3,0,0,1,.082-.268c.245.023.488.071.732.114Q3631.625,1939.794,3631.59,1939.954Zm-.979-3.071c-.259-.55-.132-.764.463-.817C3630.912,1936.355,3630.78,1936.586,3630.611,1936.883Zm.188-3.023a.828.828,0,0,1,.215.4c.01.035-.165.183-.223.167a.84.84,0,0,1-.426-.236,2.133,2.133,0,0,1-.182-.623A3.059,3.059,0,0,1,3630.8,1933.86Zm-.93,13.425c.007-.051.125-.085.192-.128.04.084.127.178.113.252a10.881,10.881,0,0,1-.31,1.327,2.853,2.853,0,0,1-.453.633c-.277-.2-.51-.279-.575-.432a.563.563,0,0,1,.167-.494C3629.382,1948.118,3629.792,1947.836,3629.868,1947.285Zm-.831-27.5c.128.17.326.329.36.517.019.108-.219.35-.363.371-.128.018-.287-.188-.537-.373C3628.746,1920.067,3628.891,1919.927,3629.037,1919.789Zm.183,6.122c-.159.2-.256.326-.353.449-.119-.17-.311-.33-.334-.512-.021-.167.139-.358.218-.539Zm-.426,4.529c.053.061.106.122.16.182l-.521.492-.187-.218Zm.095,15.478c.208.257.146.73.18.965l-.89-1.074C3628.21,1945.7,3628.739,1945.731,3628.889,1945.917Zm-3.588-30.3,1.128.673-.064.2a6.384,6.384,0,0,1-1.055-.242C3625.24,1916.224,3625.3,1915.866,3625.3,1915.616Zm-.5,5.082c.452.045.593.338.6.761a1.094,1.094,0,0,1-.1.45c-.1.138-.328.323-.443.29-.549-.159-.41-.679-.466-1.077C3624.359,1920.862,3624.484,1920.666,3624.8,1920.7Zm-4.252-10.5.521.526-.487.376a2.05,2.05,0,0,1-.3-.551C3620.263,1910.458,3620.454,1910.319,3620.549,1910.2Zm-1.959-2.614.344.478a1.62,1.62,0,0,1-.465.264c-.076.015-.292-.216-.272-.263A2.3,2.3,0,0,1,3618.59,1907.587Zm-3.857-.871c.171,0,.342.156.515.244l-.506.378-.51-.371C3614.4,1906.878,3614.566,1906.717,3614.733,1906.716Zm-2.8-.693.369.411-.463.656c-.081-.13-.249-.281-.225-.388A3.318,3.318,0,0,1,3611.934,1906.024Zm-1.907.6c.111-.237.249-.461.376-.689.073.064.216.14.207.188-.056.3-.021.669-.526.767C3610.059,1906.781,3610,1906.683,3610.027,1906.625Zm-3.633-3.3c.1.132.2.264.347.454l-.405.611c-.069-.156-.209-.32-.193-.467A2.2,2.2,0,0,1,3606.394,1903.324Zm-1.38-2.107.629.219-.188.344-.555-.305Zm-1.278.532a4.144,4.144,0,0,1,.7.566c-.277.192-.5.387-.532.361a5.679,5.679,0,0,1-.559-.628C3603.481,1901.942,3603.67,1901.718,3603.736,1901.749Zm-1.229,1.774c.057.052.209.126.241.234.139.476.25.96.349,1.446.013.066-.1.158-.151.238-.066-.048-.159-.081-.2-.146-.184-.316-.353-.641-.529-.962S3602.164,1903.55,3602.506,1903.523Zm-5.934-3.229c.236.329.436.5.482.7.057.244-.03.534-.385.485-.286-.04-.679-.066-.632-.479C3596.06,1900.8,3596.309,1900.629,3596.572,1900.294Zm-.914,2.314-.17.055c-.065-.234-.13-.469-.23-.831C3595.857,1902.022,3595.762,1902.313,3595.659,1902.608Zm-.99-3.372c.09.1.267.214.252.294a3.327,3.327,0,0,1-.25.651l-.364-.525Zm-4.6,5.522a2.445,2.445,0,0,1,.256.341,2.676,2.676,0,0,1-.469.416c-.023.015-.235-.187-.227-.2C3589.74,1905.141,3589.879,1904.983,3590.064,1904.757Zm-13.993,1.929a2.046,2.046,0,0,1,.541.233c-.208.151-.329.3-.4.277a1.4,1.4,0,0,1-.385-.271C3575.91,1906.84,3576,1906.681,3576.071,1906.686Zm-11.51,11.75c.373-.055.458.229.416.507a1.847,1.847,0,0,1-.281.533l-.65-.7C3564.294,1918.608,3564.418,1918.457,3564.562,1918.436Zm-1.666,1.507,1.015.592c-.233.07-.555.264-.667.179a2.372,2.372,0,0,1-.468-.739Zm-4.21,7.318.312.114q-.115.334-.231.668c-.1-.049-.3-.12-.295-.142A6.157,6.157,0,0,1,3558.686,1927.262Zm-.275,15.433c-.153,0-.309-.275-.589-.547a3.54,3.54,0,0,1,.73-.54c.077-.03.386.235.381.357C3558.919,1942.291,3558.843,1942.694,3558.41,1942.695Zm.694-10.982c-.064-.019-.085-.019-.1-.03q-.254-.249-.505-.5a2.345,2.345,0,0,0-.386.773,2.866,2.866,0,0,0,.175,1.095,1.308,1.308,0,0,1-.087,1.326.769.769,0,0,1-.55.307.735.735,0,0,1-.464-.436,3.485,3.485,0,0,1,.2-1.934,7.286,7.286,0,0,0,.1-.959c.021-.266.031-.532.047-.8.241.04.484.077.725.121a2.793,2.793,0,0,0,.408.084C3559.173,1930.769,3559.375,1931.183,3559.1,1931.712Zm.505,8.046c-.116-.245-.209-.5-.306-.755l.273-.117q.191.371.383.744C3559.839,1939.675,3559.614,1939.769,3559.61,1939.758Zm1.5,17.83c-.342.165-.939-.2-1.028-.633.354.054.662.086.964.155.1.023.242.127.255.212S3561.2,1957.545,3561.112,1957.589Zm4.218,5.113c-.128.02-.393-.1-.4-.186-.068-.471.324-.5.711-.635C3565.622,1962.243,3565.828,1962.624,3565.33,1962.7Zm.455-3.9-.44-.191.3-.607.318.132Zm5.149,5.1c-.3.6-.585,1.212-.9,1.869a1.236,1.236,0,0,1-1.356-.527c-.049-.133.077-.48.14-.485.754-.055.859-.571.913-1.167.061-.681.343-.808.943-.483A.523.523,0,0,1,3570.935,1963.9Zm3.513,6.568c-.012-.07.1-.163.156-.244.136.1.365.177.391.3a8.768,8.768,0,0,1,.1,1.155A1.414,1.414,0,0,1,3574.448,1970.47Zm1.915,2.385c-.1.01-.222-.2-.336-.315.107-.107.215-.214.391-.389l.351.4C3576.633,1972.662,3576.507,1972.839,3576.362,1972.854Zm3.933,2.1c.146-.361.248-.609.348-.857l.193.075C3580.879,1974.493,3580.977,1974.843,3580.3,1974.951Zm.418-4.681-.135-.125c.086-.321.155-.648.27-.958.04-.108.2-.174.3-.26.063.124.212.292.174.365C3581.145,1969.631,3580.92,1969.945,3580.713,1970.269Zm2.09,2.219c-.593.307-.469.8-.411,1.328a8.68,8.68,0,0,1-.069,1.432l-.193.039a2.792,2.792,0,0,1-.209-.616c-.043-.46-.013-.927-.065-1.386a1.134,1.134,0,0,0-.292-.489c-.24-.3-.147-.465.2-.491.334-.025.673-.005,1.01-.005C3582.791,1972.39,3582.819,1972.48,3582.8,1972.488Zm9.881.5c-.521,0-.535-.46-.534-.815,0-.153.25-.3.385-.456l.731.8C3592.993,1972.745,3592.838,1972.988,3592.685,1972.987Zm3.654,4.03a1.519,1.519,0,0,1-1.505-.977.824.824,0,0,0-.329-.357c-.423-.294-.858-.569-1.307-.862a1.858,1.858,0,0,1,2.186-.331c.15.045.179.494.195.762.34.461.691.917,1,1.4C3596.616,1976.7,3596.441,1977,3596.338,1977.017Zm3-3.651a4.385,4.385,0,0,1-.422-.49l.27-.23.466.486C3599.543,1973.214,3599.356,1973.383,3599.338,1973.366Zm7.991-3.456c-.083-.089-.249-.2-.231-.26a1.951,1.951,0,0,1,.275-.438l.322.306Zm4.23-2.625a2.682,2.682,0,0,1-.578-.149c.035-.106.043-.277.111-.3a1.192,1.192,0,0,1,.665-.153c.216.056.387.287.666.513A6.272,6.272,0,0,1,3611.56,1967.285Zm2.755,1.094c-.021.105-.172.186-.23.245-.444-.158-1.012.03-1.025-.593-.007-.365.316-.443.619-.431A.707.707,0,0,1,3614.315,1968.378Zm6.642-5.528a2,2,0,0,1-.439-.318c.106-.071.221-.208.321-.2a1.957,1.957,0,0,1,.535.268C3621.158,1962.736,3621.024,1962.877,3620.957,1962.85Zm2.438-5.256-.272.14c-.047-.149-.168-.327-.126-.443a.737.737,0,0,1,.384-.4c.079-.028.25.21.38.328Zm.123-1.29a3.73,3.73,0,0,0-.431-.564,3.587,3.587,0,0,0-.4-.288,33.308,33.308,0,0,1-4.859,6.168,32.8,32.8,0,0,1-18.991,9.386c-.11.129-.236.25-.349.377-.084-.082-.169-.166-.3-.3a33.592,33.592,0,0,1-3.728.214c-.786,0-1.566-.037-2.343-.091-.023.024-.046.047-.064.069a1.157,1.157,0,0,0-.087-.08,32.922,32.922,0,0,1-8.457-1.751,2.111,2.111,0,0,1-.308.4c-.063.057-.308.039-.33-.008a2.175,2.175,0,0,1-.117-.533c-.005-.031.02-.069.033-.1,0-.007,0-.017.006-.024a33.09,33.09,0,0,1-21.383-30.932,33.269,33.269,0,0,1,.858-7.493,1.484,1.484,0,0,1,.068-1.168c.057.065.115.125.173.183a32.706,32.706,0,0,1,6.011-12,.552.552,0,0,1-.25-.294,9.943,9.943,0,0,1-.286-3.068c.049-.336.153-.6.509-.528a2.482,2.482,0,0,1,1.088.44.682.682,0,0,1-.215,1.09c-.123.074-.3.1-.371.208a2.777,2.777,0,0,0-.391.792c-.014.045.355.2.545.3.056.031.107.067.161.1.568-.664,1.157-1.315,1.782-1.94.513-.513,1.044-1,1.584-1.475,0-.115,0-.23,0-.345l.231-.054c.014.053.029.107.044.16q.613-.528,1.249-1.023a.623.623,0,0,1,.025-.261c.028-.1.193-.151.3-.224l.053.194a32.709,32.709,0,0,1,7.851-4.392,2.218,2.218,0,0,1-.556-.412c-.053-.066.13-.327.213-.5a1.617,1.617,0,0,1,.167-.274c.269-.343.588-.36.83-.009.154.224.4.628.325.72a.879.879,0,0,1-.187.165,33.055,33.055,0,0,1,11.243-1.955c.269,0,.534.013.8.02-.039-.064-.078-.13-.121-.189.154-.01.308-.025.462-.03a2.057,2.057,0,0,0,.471-.009,1.408,1.408,0,0,0,.36-.234l.276.495-.012.031a32.729,32.729,0,0,1,18.24,7.031l.167.028-.013.092a33.728,33.728,0,0,1,2.739,2.447c.125.125.241.256.365.382.276-.006.38.091.346.365a33.046,33.046,0,0,1,4.677,38.921,2.081,2.081,0,0,0,.472.571C3624.048,1955.435,3623.859,1955.86,3623.517,1956.3Zm1.185,1.186c-.114-.115-.3-.22-.32-.348s.151-.263.311-.509c.137.23.276.358.26.463C3624.932,1957.237,3624.791,1957.36,3624.7,1957.49Zm1.179-6.189a2.339,2.339,0,0,0,.012-.729.722.722,0,0,1,.983-.844c.316.1.621.236,1.006.384-.489.17-.979.2-1.23.467a1.6,1.6,0,0,0-.319,1.13,4.46,4.46,0,0,0,.483,1.215c-.1,0-.225.041-.3-.007A1.686,1.686,0,0,1,3625.881,1951.3Zm3.065,4.537c-.437-.656-.433-.669-1.334-.956-.145-.046-.346.07-.517.127s-.382.229-.469.176a1.1,1.1,0,0,1-.389-.512,1.119,1.119,0,0,1-.018-.52c.017-.15.063-.414.122-.421a.684.684,0,0,1,.521.113c.675.73.666.74,1.547.275a1.953,1.953,0,0,1,.325-.185,1.072,1.072,0,0,1,.325,0c-.01.1.016.23-.038.286-.346.361-.283.674.021,1.035.107.126.07.373.1.565Zm.507-4.542a4,4,0,0,1,.582.247l-.177.258a2.781,2.781,0,0,1-.246.184,3.287,3.287,0,0,1-.378-.5C3629.224,1951.472,3629.4,1951.282,3629.454,1951.3Z" transform="translate(-3530.927 -1875.017)" fill="#d9b771"/>
    </g>
    <g id="IDojFb.tif" transform="translate(3543.232 1888.601)">
      <g id="Group_427" data-name="Group 427" transform="translate(0 0)">
        <g id="Group_426" data-name="Group 426">
          <path id="Path_740" data-name="Path 740" d="M3635.788,1964.167c-3.684,4.283-8.68,3.94-13.809,3.7a46.55,46.55,0,0,1,.965,7.049,27.588,27.588,0,0,1-1.182,6.62c-.164.619-1.137,1.025-1.74,1.528a24.724,24.724,0,0,1-1.541-1.99,3.508,3.508,0,0,1-.239-1.216c-2.342,1.411-3.384,1.1-3.86-1.6a74.585,74.585,0,0,1-.944-9.47c-.049-1.075.606-2.183.968-3.372-1.257.09-2.62.251-3.986.268a28.019,28.019,0,0,1-3.929-.2c-1.531-.2-2.954-.747-2.777-2.668.165-1.794,1.459-2.372,3.1-2.368,1.939,0,3.878.022,5.818.032a4.649,4.649,0,0,0,1.93-.275c-4.214-1.125-8.466-.4-13.138-.133,4.122-3.324,8.654-1.582,12.728-2.171,0-2.138-.018-4.193.008-6.247a6.619,6.619,0,0,1,.228-2.461c.346-.8,1.024-1.883,1.7-2,.692-.117,1.7.653,2.3,1.29a11.8,11.8,0,0,1,1.39,2.727c.151-.968.243-1.563.335-2.158l.408-.046c.395,2.641.792,5.283,1.218,8.135,2.069-.217,4.38-.6,6.7-.657a20.245,20.245,0,0,1,5.277.57,2.748,2.748,0,0,1,1.647,1.864c.083.491-.9,1.233-1.5,1.748a6.44,6.44,0,0,1-1.5.719l3.427,1.955Zm-2.426.288-.169-.719a11.988,11.988,0,0,0-2.578-.371c-2.622.184-5.24.464-7.846.809-.464.061-.865.607-1.3.929.48.375.941,1.037,1.445,1.072a24.749,24.749,0,0,0,5.592-.031A28.173,28.173,0,0,0,3633.362,1964.455Zm.075-5.526c-.553-.349-.783-.623-1-.61-3.562.21-7.122.441-10.678.735-.2.016-.538.647-.481.927a1.069,1.069,0,0,0,.841.611C3625.833,1960.461,3629.592,1960.608,3633.437,1958.928Zm-17.323-.937,2.63-.29c-.006-3.2-.188-6.15-2.63-8.592Zm-.377,9.387c-1.169,3.725-.52,7.344.687,10.919C3617.67,1974.576,3616.63,1971,3615.737,1967.378Zm-.106-3.914c-2.221-1.977-9.1-1.887-10.428.008C3608.648,1964.309,3611.878,1963.953,3615.63,1963.464Zm5.04,7.261-.5.063v9.5C3621.883,1977.11,3621.333,1973.918,3620.67,1970.726Z" transform="translate(-3601.419 -1947.176)" fill="#e20613"/>
        </g>
      </g>
    </g>
  </g>
</svg>
